<svg xmlns="http://www.w3.org/2000/svg" width="26.952" height="34.396" viewBox="0 0 26.952 34.396"><path d="M1526.089,71.88c-2.9,0-5.8,0-8.774,0,.008-2.134.005-4.268,0-6.4l0-2.074a4.057,4.057,0,0,0-.078-.9,3.275,3.275,0,0,0-6.5.748c-.012,2.523-.01,5.047-.009,7.571v6.732q-1.228-2.177-2.451-4.356a2.291,2.291,0,0,0-.832-.852,2.869,2.869,0,0,0-3.328.236,3.215,3.215,0,0,0-.961,3.341l1.077,4.295q1.078,4.294,2.158,8.588c.044.174.084.349.123.524a6.266,6.266,0,0,0,.737,2.072,5.463,5.463,0,0,0,4.764,2.72q1.948.024,3.9,0c.714-.011,1.428,0,2.142.009.5.006,1,.013,1.513.013.862,0,1.734-.019,2.6-.085,4.279-.333,7.782-4.377,7.811-9.016.018-3,.011-6,0-8.993A3.875,3.875,0,0,0,1526.089,71.88Zm-19.729,2.828q1.729,3.14,3.465,6.273l.849,1.534c.056.1.111.2.174.306a1.159,1.159,0,0,0,1.391.637,1.3,1.3,0,0,0,.865-1.351V70.146q0-3.383,0-6.765a1.116,1.116,0,0,1,.343-.859.862.862,0,0,1,.77-.185.974.974,0,0,1,.725,1.044c.008.824.006,1.648,0,2.472l0,7.142a1.266,1.266,0,0,0,1.37,1.434h9.781a1.412,1.412,0,0,1,1.516,1.609l.005,2.654c.007,2.108.014,4.217-.019,6.324a6.419,6.419,0,0,1-5.861,6.5c-1.509.072-3.055.061-4.552.052-.529,0-1.058-.007-1.586-.007h-.36c-.872,0-1.74,0-2.607,0l-.652,0a3.1,3.1,0,0,1-2.654-1.4,3.719,3.719,0,0,1-.467-1.265l-3.382-13.53a.857.857,0,0,1-.024-.588.489.489,0,0,1,.457-.339A.463.463,0,0,1,1506.359,74.708Z" transform="translate(-1503.039 -59.749)"/></svg>