<svg xmlns="http://www.w3.org/2000/svg" width="31.598" height="20.368" viewBox="0 0 31.598 20.368"><g transform="translate(1704.144 -1175.707)"><path d="M-1697.149,1184.909a2.461,2.461,0,0,1-.682-.379c-.61-.591-1.183-1.225-1.76-1.854a1.375,1.375,0,0,1-.015-1.946,1.192,1.192,0,0,1,1.819.028c.573.6,1.16,1.184,1.719,1.8a1.42,1.42,0,0,1,.252,1.569A1.29,1.29,0,0,1-1697.149,1184.909Z"/><path d="M-1679.88,1184.775a1.416,1.416,0,0,1-1.2-.86,1.373,1.373,0,0,1,.241-1.507q.871-.963,1.771-1.893a1.248,1.248,0,0,1,1.814.035,1.382,1.382,0,0,1-.047,1.922c-.573.617-1.136,1.246-1.739,1.827A3.749,3.749,0,0,1-1679.88,1184.775Z"/><path d="M-1701.642,1191.293c.406,0,.812-.006,1.218,0a1.337,1.337,0,0,1,1.307,1.345,1.326,1.326,0,0,1-1.316,1.369q-1.218.012-2.436,0a1.287,1.287,0,0,1-1.275-1.36,1.3,1.3,0,0,1,1.284-1.353C-1702.454,1191.288-1702.048,1191.293-1701.642,1191.293Z"/><path d="M-1675.061,1193.75c-.428,0-.856.017-1.283,0a1.315,1.315,0,0,1-1.225-1.386,1.293,1.293,0,0,1,1.277-1.327q1.251-.013,2.5,0a1.31,1.31,0,0,1,1.244,1.329,1.324,1.324,0,0,1-1.2,1.38c-.437.022-.877,0-1.316,0Z"/><path d="M-1687.229,1178.381c0,.448.007.9,0,1.345a1.269,1.269,0,0,1-1.2,1.321,1.266,1.266,0,0,1-1.3-1.255c-.029-.931-.033-1.865,0-2.8a1.276,1.276,0,0,1,1.341-1.288,1.3,1.3,0,0,1,1.169,1.362c.007.437,0,.874,0,1.311Z"/><path d="M-1688.405,1183.315c-4.728.007-8.595,4.159-8.583,9.217a9.743,9.743,0,0,0,.67,3.543h15.948a9.652,9.652,0,0,0,.657-3.531C-1679.72,1187.387-1683.562,1183.307-1688.405,1183.315Z"/></g></svg>