<svg xmlns="http://www.w3.org/2000/svg" width="60.465" height="30.272" viewBox="0 0 60.465 30.272"><path d="M-16.594,2.848A24.389,24.389,0,0,0-13.2-6.976h5.472v5.632c0,.8-.208.8-.833.8h-3.063l.476,3.392h3.837c2.35,0,2.469-1.472,2.469-3.392V-26.368H-15.7V-12.1a23.749,23.749,0,0,1-1.4,8.832v-2.56h-6.008V-8.16h5.235v-11.9h-5.235v-1.952H-17.1v-2.976h-6.008V-27.2h-2.855v2.208h-5.919v2.976h5.919v1.952h-5.145v11.9h5.145v2.336h-6.246V-2.88h6.246V2.848h2.855V-2.88h5.889A15.693,15.693,0,0,1-19.211.8ZM-20.579-17.5v2.144h-7.852V-17.5Zm0,4.544v2.208h-7.852V-12.96Zm12.848-10.3v5.184h-5.086v-5.184Zm0,8.128V-9.92h-5.175c.03-.64.089-1.28.089-2.144v-3.072Zm31.556-2.272c.833.384,1.4.608,2.825,1.152l1.606-3.136c-5.413-1.472-9.012-3.584-12.521-7.808H11.929A25.929,25.929,0,0,1-.979-19.52L.656-16.256a25.345,25.345,0,0,0,2.706-1.088V-.672c-1.4.1-1.993.128-3.182.16l.446,3.3C9.876,1.824,12.494,1.344,14.962.9l-.208-3.008c-2.736.48-5.532.832-8.328,1.12v-6.08H11.1A23.331,23.331,0,0,0,26.264,3.072l1.309-3.2a24.97,24.97,0,0,1-6.6-1.984A38.263,38.263,0,0,0,27.008-6.88l-2.32-2.048a8.136,8.136,0,0,1-.863.96Zm-3,3.072H6.426V-16.32H20.821Zm0,4.512H6.426V-12H20.821Zm-5.681-9.248v-3.04H12.107v3.04H6.456a35.13,35.13,0,0,0,7.287-5.7,35.571,35.571,0,0,0,6.96,5.7Zm7.733,12a36.25,36.25,0,0,1-4.64,3.488A13.956,13.956,0,0,1,14.4-7.072Z" transform="translate(32.208 27.2)"/></svg>