<svg xmlns="http://www.w3.org/2000/svg" width="40.809" height="19.812" viewBox="0 0 40.809 19.812"><defs><style>.a{fill:#dbdbdb;}</style></defs><path class="a" d="M-22.36-11a9.589,9.589,0,0,0,9.882,9.906A9.584,9.584,0,0,0-2.62-11,9.584,9.584,0,0,0-12.478-20.9,9.589,9.589,0,0,0-22.36-11Zm2.247,0a7.643,7.643,0,0,1,7.635-7.828A7.637,7.637,0,0,1-4.867-11,7.637,7.637,0,0,1-12.478-3.17,7.643,7.643,0,0,1-20.113-11Zm22.108-9.52V-1.478H4.242V-18.2l10.9,16.72h3.31V-20.517H16.2V-3.8L5.3-20.517Z" transform="translate(22.36 20.904)"/></svg>