<svg xmlns="http://www.w3.org/2000/svg" width="142.491" height="34.32" viewBox="0 0 142.491 34.32"><defs><style>.a{fill:#dbdbdb;}</style></defs><path class="a" d="M-75.35-30.28v4.24H-56.2C-61.707-10.24-72.9-4.24-77.32-2.2L-74.9,1.52a45.506,45.506,0,0,0,14.8-11.92A139.248,139.248,0,0,1-48.733,1.52l3.494-3.64A138.5,138.5,0,0,0-57.58-13.76,43.951,43.951,0,0,0-50.7-30.28ZM-36.762-15a26.725,26.725,0,0,0,4.535-3.8A50.813,50.813,0,0,1-21.3-11.2c-1.413,1.64-6.32,6.8-15.688,9.08L-34.9,1.96C-12.3-4.28-10.443-24-9.848-30.36H-29.7A25.034,25.034,0,0,1-39.476-18.4Zm22.007-11.24A29.409,29.409,0,0,1-18.77-14.52a52.629,52.629,0,0,0-11-7.24,34.469,34.469,0,0,0,2.862-4.48Zm11.933,8.68v4.68h31.9v-4.68ZM65.171-14a92.833,92.833,0,0,0-17.844-8.48v-9.88h-4.5V1.8h4.5V-17.8A75.024,75.024,0,0,1,63.015-9.36Z" transform="translate(77.32 32.36)"/></svg>