<svg xmlns="http://www.w3.org/2000/svg" width="59.749" height="29.728" viewBox="0 0 59.749 29.728"><defs><style>.a{fill:#dbdbdb;}</style></defs><path class="a" d="M-24-.032h-4.848v-5.5H-24Zm-6.989-26.016v2.272h9.13v-2.272Zm0,9.088v2.3h9.13v-2.3Zm12.848-9.088c0,.448.03.864.03,1.44,0,3.584-.714,6.336-2.974,7.9l1.784,1.952c2.647-2.208,3.271-4.736,3.48-8.832h4.7V-17.7a1.794,1.794,0,0,0,1.993,2.048h2.379c1.844,0,2.409-1.248,2.617-6.112l-2.231-.576a22.328,22.328,0,0,1-.3,3.424c-.059.288-.149.768-.714.768h-.714c-.714,0-.714-.48-.714-.832v-7.072ZM-30.987-12.32v2.3h9.13v-2.3Zm0,4.64V2.176h9.13V-7.68ZM-4.041.16a23.109,23.109,0,0,1-6.87-3.136,23.924,23.924,0,0,0,4.64-7.936v-2.5H-20.22v2.528H-8.859a17.59,17.59,0,0,1-3.956,6.4,16.081,16.081,0,0,1-3.956-5.632l-1.993.9A18.184,18.184,0,0,0-14.6-2.944,17.559,17.559,0,0,1-20.994.1l1.249,2.5A18.049,18.049,0,0,0-12.7-1.248,25.038,25.038,0,0,0-5.142,2.688ZM-31.968-21.5v2.336h11.123V-21.5ZM12.375-1.376a11.091,11.091,0,0,1-5.77-5.44,29.867,29.867,0,0,0,1.368-5.92L5.535-13.12C4.673-7.584,2.62-2.688-.5.256L1.133,2.528A18.647,18.647,0,0,0,5.595-4.256,12.34,12.34,0,0,0,16.688,1.952H27.305l.476-2.56H17.253a19.5,19.5,0,0,1-2.409-.16V-7.52H24.42V-9.952H14.844v-5.536h8.149v-2.5H4.286v2.5h8.089ZM12.316-27.04v2.784H.42v7.136H2.858v-4.64H24.42v4.64h2.468v-7.136H14.9V-27.04Z" transform="translate(31.968 27.04)"/></svg>