<svg xmlns="http://www.w3.org/2000/svg" width="130.502" height="42.52" viewBox="0 0 130.502 42.52"><defs><style>.a{fill:#dbdbdb;}</style></defs><path class="a" d="M-52.195-24.27a62.26,62.26,0,0,1,9.932,6.656H-62.8v4.528h17.507V2.039c0,1.223-.337,1.63-1.347,1.63H-54l.842,4.89h7.954c.631,0,4.461-.272,4.461-4.211V-13.085h11.194a38.456,38.456,0,0,1-7.533,7.7l3.325,3.713a57.968,57.968,0,0,0,10.1-11.411v-4.528H-39.149l2.1-1.857c-.631-.589-1.263-1.132-1.768-1.54,1.3-.543,8.333-3.577,11.952-6.7V-32.33H-59.686v4.438h10.605Zm17.212-3.623a26.249,26.249,0,0,1-7.659,3.985,66.277,66.277,0,0,0-6.4-3.985Zm58.749,7.019a36.529,36.529,0,0,1-15.4-13H3.65C1.041-28.843-4.808-23.726-9.9-20.919l2.651,4.257a37.1,37.1,0,0,0,4.293-2.989v3.577H15.518v-3.713a32.666,32.666,0,0,0,6.06,3.94Zm-25.8.408A42.535,42.535,0,0,0,6.175-30.02a37.441,37.441,0,0,0,8.459,9.555Zm-9.132,8.921C-12.3-7.017-14.993-.27-17.476,2.854l3.7,4.3A86.334,86.334,0,0,0-7.207-8.511Zm5.934-.362V-7.56H1.757V8.469H6.091V-7.56h9.6V.092c0,.226,0,1.041-.8,1.041H11.141L11.9,5.571h5.345c.168,0,2.735-.045,2.735-3.351V-11.908ZM-17.265-28.571a30.8,30.8,0,0,1,6.944,5.887l2.946-3.849a38.057,38.057,0,0,0-7.112-5.524Zm48.944,2.4V-4.164H47.291V8.515H51.71V-4.164H67.7V-26.171H51.71V-33.96H47.291v7.789Zm15.613,17.3H36.055V-21.462H47.291Zm15.95,0H51.71V-21.462H63.241Z" transform="translate(62.8 33.96)"/></svg>