<svg xmlns="http://www.w3.org/2000/svg" width="131.055" height="42.64" viewBox="0 0 131.055 42.64"><defs><style>.a{fill:#dbdbdb;}</style></defs><path class="a" d="M-50.48,6.43A33.534,33.534,0,0,0-39.615-5.714V8.56h4.253V-5.714A35.433,35.433,0,0,0-25.086,6.838l2.569-4.214a31.752,31.752,0,0,1-10.7-11.555h10.023v-4.3H-35.361v-4.441h9.854V-32.539h-23.71v14.863h9.6v4.441H-51.743v4.3H-41.72A28.883,28.883,0,0,1-53.007,2.261Zm20.8-34.755V-21.8H-45.005v-6.525ZM-58.818,8.56h4.338V-22.163a67.006,67.006,0,0,0,2.737-11.192l-4.464-.725c-1.053,7.386-3.622,14.228-7.033,18.4L-61.3-9.928a25.244,25.244,0,0,0,2.485-3.263Zm79.3-41.19H-3.734v17.944H20.48ZM16.269-18.583H.435v-3.534H16.269Zm0-10.06v3.081H.435v-3.081Zm-31.248-1.4A43.159,43.159,0,0,1-8.03-25.334l2.611-4.124A43.217,43.217,0,0,0-12.662-33.9ZM-4.829,2.669h-2.7v4.35h30.7V2.669H21.491v-14H-4.829ZM10.079-7.209V2.669H6.415V-7.209Zm-7.286,0V2.669H-.871V-7.209Zm14.655,0V2.669H13.742V-7.209ZM-17-17.314a28.661,28.661,0,0,1,6.78,4.3l2.7-4.3a34.377,34.377,0,0,0-7.37-4.259Zm7.075,6.933C-12.873-2.27-14.473.54-16.832,3.666l2.864,4.667c2.443-3.4,3.622-5.574,7.749-15.633ZM31.767-26.15V-4.128H47.391V8.56h4.422V-4.128h16V-26.15h-16v-7.794H47.391v7.794ZM47.391-8.84H36.146v-12.6H47.391Zm15.961,0H51.812v-12.6H63.351Z" transform="translate(63.24 34.08)"/></svg>