<svg xmlns="http://www.w3.org/2000/svg" width="113.309" height="29.824" viewBox="0 0 113.309 29.824"><defs><style>.a{fill:#dbdbdb;}</style></defs><path class="a" d="M-47.455-25.856v10.368h8.922V-.736c0,.736-.506.736-.922.736l-3.539-.032.506,2.688h4.1c2.2,0,2.2-2.176,2.2-2.72V-25.856Zm3.182,18.432V-11.1h3.39V-13.28H-57.061V-11.1h3.717v2.976a5.833,5.833,0,0,1-.03.7h-4.461V-5.28h4.223A8.105,8.105,0,0,1-57.359.256l1.576,1.888a11.148,11.148,0,0,0,4.52-7.424h4.7V2.208h2.29V-5.28h4.134V-7.424Zm5.68-14.144h-6.543V-23.84h6.543Zm0,4.064h-6.543v-2.3h6.543ZM-51.083-7.424a4.619,4.619,0,0,0,.03-.672V-11.1h4.491v3.68ZM-61.76-25.856V2.656h2.379V-15.488h8.8V-25.856Zm8.862,4.288h-6.454V-23.84H-52.9Zm0,4.064h-6.454v-2.3H-52.9Zm25.368-3.84c.208-1.92.327-3.232.446-5.5l-2.379-.16c-.119,2.528-.178,3.552-.387,5.664h-3.182v2.464h2.885a47.861,47.861,0,0,1-2.439,9.76,32.565,32.565,0,0,1,4.669,3.264A16.8,16.8,0,0,1-33.269.384l1.725,2.176a22.406,22.406,0,0,0,5.472-6.816A35.331,35.331,0,0,1-23.455-1.5l1.606-2.24A29.889,29.889,0,0,0-24.942-6.72c.565-1.472,1.814-5.632,2.29-14.624Zm2.5,2.464A43.17,43.17,0,0,1-26.9-8.224c-.981-.7-1.606-1.152-2.914-1.952a68.564,68.564,0,0,0,1.963-8.7ZM-6.652-11.2H-20.689V2.016H-6.652ZM-9.031-.288H-18.34V-8.9h9.309Zm-2.914-21.248A29.3,29.3,0,0,1-9.3-17.248c-3.717.48-7.762.736-8.357.768a87.068,87.068,0,0,0,3.628-10.336l-2.617-.352A70.367,70.367,0,0,1-20.154-16.32c-1.19.064-1.338.064-2.2.1l.208,2.656c4.7-.256,10.5-.9,13.918-1.472a24.451,24.451,0,0,1,.981,2.592l2.2-1.344a37.985,37.985,0,0,0-4.848-9.024ZM2.366,1.056C4.954-4.8,6.381-11.1,7.6-17.44l2.26-.032c3.6-.064,5.234.128,5.234,5.472A28.16,28.16,0,0,1,14.2-4.64c-.625,2.144-1.428,2.848-3.42,2.848a15.277,15.277,0,0,1-3.242-.384L7.66.768a26.749,26.749,0,0,0,3.509.224c1.368,0,3.9,0,5.175-3.2a30.888,30.888,0,0,0,1.428-9.664c0-7.424-2.944-8.256-6.483-8.256H8.076c.387-2.368.506-3.1.862-5.632l-2.885-.128c-.238,2.5-.387,3.744-.684,5.76H.2v2.752l4.729-.032A74.241,74.241,0,0,1-.221-.192ZM25.623-9.376c-.357-4.16-1.457-9.76-4.877-13.5l-2.2,1.312c3.033,3.872,3.985,8.7,4.223,12.736Zm22.059-14.56a44.576,44.576,0,0,0-12.193-2.016L35.013-23.2a34.385,34.385,0,0,1,11.926,2.3Zm-16.3,2.56a32.109,32.109,0,0,0-.773,6.4c-.03.96-.119,5.76-.119,6.848l2.647.1c.03-.16.059-.256.149-.576,1.963-2.784,5.948-4.608,9.933-4.608,3.926,0,5.5,2.3,5.5,4.8a5.95,5.95,0,0,1-1.16,3.776c-1.784,2.112-5.353,2.976-9.457,2.976a29.7,29.7,0,0,1-5.8-.576L32.6.576a33.976,33.976,0,0,0,5.71.448c6.364,0,13.234-1.728,13.234-9.408,0-2.656-1.279-7.424-8.178-7.424a15.243,15.243,0,0,0-10.23,3.936c0-4.7.238-6.56.922-8.992Z" transform="translate(61.76 27.168)"/></svg>