<svg xmlns="http://www.w3.org/2000/svg" xmlns:xlink="http://www.w3.org/1999/xlink" width="33.457" height="35.317" viewBox="0 0 33.457 35.317"><defs><style>.a{fill:none;}.b{clip-path:url(#a);}.c{fill:#dbdbdb;}</style><clipPath id="a"><rect class="a" width="33.457" height="35.317"/></clipPath></defs><g transform="translate(0 0)"><g class="b" transform="translate(0 0)"><path class="c" d="M32.605,19.869a.877.877,0,0,0,.852-.9V16.34a.878.878,0,0,0-.848-.9H30.441a1.211,1.211,0,0,1-1.085-.858L27.721,10.4a1.3,1.3,0,0,1,.186-1.413L29.44,7.367a.936.936,0,0,0,0-1.265L27.678,4.238a.827.827,0,0,0-1.2,0L24.948,5.855a1.138,1.138,0,0,1-1.338.194L19.638,4.307a1.257,1.257,0,0,1-.815-1.145V.893A.873.873,0,0,0,17.972,0h-2.49a.874.874,0,0,0-.849.893V3.159A1.259,1.259,0,0,1,13.82,4.3L9.839,6.037a1.126,1.126,0,0,1-1.337-.2l-1.52-1.6a.827.827,0,0,0-1.2,0L4.018,6.1a.942.942,0,0,0,0,1.27L5.54,8.973a1.306,1.306,0,0,1,.184,1.411l-1.649,4.2a1.2,1.2,0,0,1-1.083.858H.848a.879.879,0,0,0-.848.9v2.632a.877.877,0,0,0,.848.9H3a1.207,1.207,0,0,1,1.082.86l1.65,4.194a1.3,1.3,0,0,1-.179,1.411L4.018,27.947a.937.937,0,0,0,0,1.266L5.78,31.076a.825.825,0,0,0,1.2,0l1.533-1.622a1.14,1.14,0,0,1,1.336-.194l3.97,1.729a1.26,1.26,0,0,1,.813,1.145V34.42a.875.875,0,0,0,.849.9h2.49a.874.874,0,0,0,.85-.9V32.131a1.26,1.26,0,0,1,.815-1.144L23.6,29.254a1.141,1.141,0,0,1,1.338.193l1.538,1.629a.825.825,0,0,0,1.2,0l1.762-1.863a.937.937,0,0,0,0-1.266L27.9,26.319a1.3,1.3,0,0,1-.184-1.413l1.638-4.179a1.212,1.212,0,0,1,1.084-.86Zm-15.888,4.6a6.656,6.656,0,0,1-6.461-6.824,6.657,6.657,0,0,1,6.461-6.821,6.658,6.658,0,0,1,6.462,6.821,6.657,6.657,0,0,1-6.462,6.824" transform="translate(0 0)"/></g></g></svg>