<svg xmlns="http://www.w3.org/2000/svg" width="98.908" height="24.597" viewBox="0 0 98.908 24.597"><defs><style>.a{fill:#dbdbdb;stroke:#dbdbdb;stroke-width:0.5px;}</style></defs><path class="a" d="M-40.72-11.206h7.974V-13.39h-19.67v2.184h9.472c-.1,6.5-2.054,9.022-8.168,10.192l.894,2.132C-43.548-.364-40.914-3.64-40.72-11.206Zm-9.738-8.84v2.21h13.17v-2.21Zm13.508-1.742a23.369,23.369,0,0,1,1.426,5.382l1.812-.676a23.935,23.935,0,0,0-1.571-5.3Zm3.552-.468a23.179,23.179,0,0,1,1.377,5.408l1.812-.65a24.239,24.239,0,0,0-1.5-5.33Zm16.988,4.914a31.137,31.137,0,0,0-7.08-2.834l-.87,1.976a31.071,31.071,0,0,1,7.032,3.016Zm-1.981,6.084A27.786,27.786,0,0,0-25.376-14.2l-.846,2.054a29.686,29.686,0,0,1,6.935,3.094Zm5.872-10.348a21.912,21.912,0,0,1,2.1,5.1l1.692-.91a22.523,22.523,0,0,0-2.223-5.044Zm4.035-.26a23.134,23.134,0,0,1,2.03,5.148l1.716-.884a22.682,22.682,0,0,0-2.151-5.07ZM-24.434.572C-14.574-.806-9.887-4.81-6.745-14.456L-8.63-15.938C-11.288-6.916-15.348-2.99-24.965-1.976ZM.746-9.958a15.159,15.159,0,0,0,3.069-2.626A35.4,35.4,0,0,1,11.5-7.2,19.871,19.871,0,0,1,1.036-1.014L2.075,1.144c14.5-4.056,15.755-16.484,16.19-20.722H5.772a16.833,16.833,0,0,1-6.452,7.8Zm15.03-7.462a19.746,19.746,0,0,1-2.948,8.45,36.825,36.825,0,0,0-7.684-5.174A21.088,21.088,0,0,0,7.222-17.42Zm14.45-2.522H28.076v6.526c0,6.916-1.426,9.88-4.108,12.766l1.595,1.742c2.489-2.6,4.664-6.292,4.664-14.69Zm6.307-.728H34.359V.624c8.554-.806,10.536-6.76,11.6-11.96L43.9-12.272c-1.3,8.008-4.4,9.022-7.37,10.01Z" transform="translate(52.666 23.139)"/></svg>