<svg xmlns="http://www.w3.org/2000/svg" width="49.189" height="24.771" viewBox="0 0 49.189 24.771"><defs><style>.a{fill:#dbdbdb;stroke:#dbdbdb;stroke-width:0.5px;}</style></defs><path class="a" d="M-3.348.312A15.721,15.721,0,0,1-9.776-4.264a34.63,34.63,0,0,0,4.76-3.588L-6.441-9.36a21.967,21.967,0,0,1-4.543,3.536,15.932,15.932,0,0,1-2.03-4.108H-3.59v-1.82H-13.739v-2.314h8.433v-1.742h-8.433v-2.054h9.593v-1.846h-9.593v-2.21h-1.981v2.21h-9.593v1.846h9.593v2.054H-24.2v1.742h8.482v2.314h-10.2v1.82h8.82a19.974,19.974,0,0,1-9.11,5.252l.846,2.028a28.312,28.312,0,0,0,5-2.288v4.5c-2.247.286-3.093.364-4.035.442l.387,2A84.846,84.846,0,0,0-11.951-.234l-.024-1.9c-2.126.572-4.253,1.014-6.4,1.378V-6.24a21.617,21.617,0,0,0,3.528-3.38c.7,2.08,3.311,8.97,10.367,11.908ZM1.34-21.034v2.028H20.7v-2.028ZM-.11-14.092v2.028H9.942V-.832c0,.572-.169.806-.725.806L5.737-.052l.29,2.21h3.89c1.764,0,2.1-.962,2.1-2.158V-12.064H22.145v-2.028ZM1.243.624a21.882,21.882,0,0,0,4.591-9.8L3.853-9.7A19.333,19.333,0,0,1-.328-.91Zm14.837-9.8A26.442,26.442,0,0,0,20.768.546l1.547-1.56A23.488,23.488,0,0,1,17.989-9.75Z" transform="translate(26.547 22.168)"/></svg>