<svg xmlns="http://www.w3.org/2000/svg" width="124.413" height="25.61" viewBox="0 0 124.413 25.61"><defs><style>.a{fill:#dbdbdb;stroke:#dbdbdb;stroke-width:0.5px;}</style></defs><path class="a" d="M-54.631-11.206h7.974V-13.39H-66.326v2.184h9.472c-.1,6.5-2.054,9.022-8.167,10.192l.894,2.132C-57.458-.364-54.824-3.64-54.631-11.206Zm-9.738-8.84v2.21H-51.2v-2.21Zm13.508-1.742a23.369,23.369,0,0,1,1.426,5.382l1.812-.676a23.935,23.935,0,0,0-1.571-5.3Zm3.552-.468a23.18,23.18,0,0,1,1.377,5.408l1.812-.65a24.24,24.24,0,0,0-1.5-5.33Zm6.379,11.128v2.47h20.781v-2.47Zm27.764,1.17A15.159,15.159,0,0,0-10.1-12.584,35.4,35.4,0,0,1-2.412-7.2,19.87,19.87,0,0,1-12.875-1.014l1.039,2.158C2.662-2.912,3.919-15.34,4.353-19.578H-8.139a16.833,16.833,0,0,1-6.452,7.8ZM1.865-17.42A19.747,19.747,0,0,1-1.083-8.97a36.824,36.824,0,0,0-7.684-5.174A21.088,21.088,0,0,0-6.689-17.42Zm9.811-2.6v9.542h8.457V-.338H12.883V-8.476h-2.03V1.664H31.465V-8.476H29.411V-.338H22.162v-10.14h8.506V-20.02H28.614v7.54H22.162v-9.464h-2.03v9.464h-6.4v-7.54Zm32.96.884c0,1.274-.048,2.132-.1,2.73H36.177v2.132h8.192C43.789-9.152,42.75-4.108,35.6.13l1.232,2c7.346-4.316,8.916-9.932,9.641-16.406h8.916c-.048,2.808-.338,10.322-1.063,12.662A1.881,1.881,0,0,1,52.367-.1h-3.48l.338,2.314h3.649A3.7,3.7,0,0,0,56.548-.936c.628-2.47,1.039-12.792,1.039-15.47H46.665c.072-1.274.1-2.028.1-2.626V-21.97H44.635Z" transform="translate(66.576 23.139)"/></svg>