<svg xmlns="http://www.w3.org/2000/svg" width="79.517" height="37.16" viewBox="0 0 79.517 37.16"><defs><style>.a{fill:#dbdbdb;}</style></defs><path class="a" d="M-11.11-25.6H-31.667v8.28H-11.11Zm-2.862,5.8h-14.8v-3.32h14.8ZM-27.913.12l.52,3.28h5.019c.743,0,2.825-.32,2.825-3.32V-6.84h7.138V-9.6H-30.292v2.76h7.732v6c0,.96-.446,1-1.152,1ZM-8.954-15.12H-33.786v6.84h2.862v-4.16h19.108v4.16h2.862Zm-27.175-8.6a59.111,59.111,0,0,0,2.379-9.4l-3.011-.64c-.3,2-1.6,10.56-6.32,16.64l1.747,3.6a33.9,33.9,0,0,0,2.23-3.36V3.4h2.974Zm13.16-10.04v3.12H-33.675v2.8H-8.21v-2.8H-19.846v-3.12Zm45.093,0h-3.2V-1.48H10.935v-25.4H7.775v25.4H2.013V1.88H36.437V-1.48H22.124V-18.04H34.652v-3.32H22.124Z" transform="translate(43.08 33.76)"/></svg>