<svg xmlns="http://www.w3.org/2000/svg" width="130" height="36" viewBox="0 0 130 36"><defs><style>.a{fill:#8fc31f;}</style></defs><g transform="translate(-3268 207)"><g transform="translate(3320 -207)"><path d="M0,0H26V36H0Z"/><path class="a" d="M0,16H3.188V12.464H0ZM0,3.537H3.188V0H0Z" transform="translate(11.406 9.999)"/></g><g transform="translate(3294 -207)"><rect width="26" height="36"/><path class="a" d="M1045.18,357.946v3.639l-15.13,27.876h-3.977l15.39-28.075h-17.026v-3.44Z" transform="translate(-1022.436 -355.306)"/></g><g transform="translate(3268 -207)"><rect width="26" height="36"/></g><g transform="translate(3372 -207)"><rect width="26" height="36"/><path class="a" d="M1103.875,373.7c0-3.16,0-16.4,10.144-16.4s10.145,13.238,10.145,16.4,0,16.4-10.145,16.4S1103.875,376.9,1103.875,373.7Zm16.8,0c0-5.24-.743-12.958-6.652-12.958-5.833,0-6.651,7.519-6.651,12.958,0,5.639.892,12.958,6.651,12.958C1119.853,386.662,1120.67,379.1,1120.67,373.7Z" transform="translate(-1101.715 -355.306)"/></g><g transform="translate(3346 -207)"><rect width="26" height="36"/><path class="a" d="M1103.875,373.7c0-3.16,0-16.4,10.144-16.4s10.145,13.238,10.145,16.4,0,16.4-10.145,16.4S1103.875,376.9,1103.875,373.7Zm16.8,0c0-5.24-.743-12.958-6.652-12.958-5.833,0-6.651,7.519-6.651,12.958,0,5.639.892,12.958,6.651,12.958C1119.853,386.662,1120.67,379.1,1120.67,373.7Z" transform="translate(-1101.715 -355.306)"/></g></g></svg>