<svg xmlns="http://www.w3.org/2000/svg" width="130" height="36" viewBox="0 0 130 36"><defs><style>.a{fill:#dbdbdb;}</style></defs><g transform="translate(-3268 207)"><g transform="translate(3320 -207)"><rect width="26" height="36"/><path class="a" d="M919.959,384.182a13.55,13.55,0,0,0,8.1,2.519c5.762,0,7.732-3.6,7.732-6.438,0-3.36-2.676-5.84-7.732-5.84h-2.714v-3.4H928.1c4.312,0,5.985-2.92,5.985-5.359,0-3.08-2.268-4.919-5.5-4.919a8.964,8.964,0,0,0-7.138,3.6l-1.339-3.479a12.173,12.173,0,0,1,8.476-3.56c4.238,0,8.884,2.6,8.884,8.159a7.28,7.28,0,0,1-4.349,6.919c3.9,1.36,6.208,4.079,6.208,8.158,0,3.96-2.751,9.559-11.3,9.559a17.469,17.469,0,0,1-9.108-2.44Z" transform="translate(-915.798 -355.306)"/></g><g transform="translate(3294 -207)"><rect width="26" height="36"/></g><g transform="translate(3268 -207)"><rect width="26" height="36"/></g><g transform="translate(3372 -207)"><rect width="26" height="36"/><path class="a" d="M39.1,7.636A13.8,13.8,0,0,0,44.73.28l1.536.393a16.958,16.958,0,0,1-6.087,8.3ZM47.527,18.67l-.274-1.712,2.706.02a1.3,1.3,0,0,0,1.206-.669c.621-1.18.731-4.524.8-7.336H47.344c-.493,5-2.267,7.749-6.91,9.7l-.859-1.495c3.711-1.437,5.868-3.521,6.161-8.2H42.08V7.419H53.523c0,6.059-.531,8.949-.988,9.972a2.275,2.275,0,0,1-2.412,1.279ZM51.183.3a16.586,16.586,0,0,0,5.575,7.336L55.735,8.974A20.74,20.74,0,0,1,49.647.791Z" transform="translate(-35.762 15.72)"/></g><g transform="translate(3346 -207)"><rect width="26" height="36"/><path class="a" d="M1103.875,373.7c0-3.16,0-16.4,10.144-16.4s10.145,13.238,10.145,16.4,0,16.4-10.145,16.4S1103.875,376.9,1103.875,373.7Zm16.8,0c0-5.24-.743-12.958-6.652-12.958-5.833,0-6.651,7.519-6.651,12.958,0,5.639.892,12.958,6.651,12.958C1119.853,386.662,1120.67,379.1,1120.67,373.7Z" transform="translate(-1101.715 -355.306)"/></g></g></svg>