<svg xmlns="http://www.w3.org/2000/svg" width="130" height="36" viewBox="0 0 130 36"><defs><style>.a{fill:#dbdbdb;}</style></defs><g transform="translate(-3268 207)"><g transform="translate(3320 -207)"><rect width="26" height="36"/><path class="a" d="M0,16H3.188V12.464H0ZM0,3.537H3.188V0H0Z" transform="translate(11.406 9.999)"/></g><g transform="translate(3294 -207)"><rect width="26" height="36"/><path class="a" d="M989.569,361.386H977v9.438a10.139,10.139,0,0,1,4.535-.92c6.84,0,10.447,4.919,10.447,10,0,4.88-3.421,10.2-11.375,10.2a15.93,15.93,0,0,1-8.774-2.48l1.078-3.439a12.616,12.616,0,0,0,7.658,2.48c6.357,0,7.88-4.16,7.88-6.839,0-4.12-3.048-6.639-7.062-6.639a7.083,7.083,0,0,0-4.424,1.4h-3.2V357.946h15.8Z" transform="translate(-968.677 -355.306)"/></g><g transform="translate(3268 -207)"><rect width="26" height="36"/><path class="a" d="M876.262,357.946h3.122v31.515h-3.569V362.146L870.2,366.3l-.483-3.559Z" transform="translate(-862.719 -355.306)"/></g><g transform="translate(3372 -207)"><rect width="26" height="36"/><path class="a" d="M1103.875,373.7c0-3.16,0-16.4,10.144-16.4s10.145,13.238,10.145,16.4,0,16.4-10.145,16.4S1103.875,376.9,1103.875,373.7Zm16.8,0c0-5.24-.743-12.958-6.652-12.958-5.833,0-6.651,7.519-6.651,12.958,0,5.639.892,12.958,6.651,12.958C1119.853,386.662,1120.67,379.1,1120.67,373.7Z" transform="translate(-1101.715 -355.306)"/></g><g transform="translate(3346 -207)"><rect width="26" height="36"/><path class="a" d="M1103.875,373.7c0-3.16,0-16.4,10.144-16.4s10.145,13.238,10.145,16.4,0,16.4-10.145,16.4S1103.875,376.9,1103.875,373.7Zm16.8,0c0-5.24-.743-12.958-6.652-12.958-5.833,0-6.651,7.519-6.651,12.958,0,5.639.892,12.958,6.651,12.958C1119.853,386.662,1120.67,379.1,1120.67,373.7Z" transform="translate(-1101.715 -355.306)"/></g></g></svg>