<svg xmlns="http://www.w3.org/2000/svg" width="18.801" height="21.145" viewBox="0 0 18.801 21.145"><defs><style>.a{fill:#dbdbdb;}</style></defs><path class="a" d="M124.092,2.617a2.449,2.449,0,1,1-4.884,0,2.448,2.448,0,1,1,4.884,0m-3.9,0a1.454,1.454,0,1,0,2.9,0,1.454,1.454,0,1,0-2.9,0m17.821,17.137a10.082,10.082,0,0,1-5.352,1.392c-5.933,0-9.345-4.344-9.345-9.792,0-6.193,4.282-9.89,9.3-9.89a8.99,8.99,0,0,1,5.4,1.729l-.691,2.064a6.948,6.948,0,0,0-4.729-1.728c-4.55,0-7.181,3.576-7.181,7.776,0,3.721,2.119,7.777,7.383,7.777a7.639,7.639,0,0,0,5.219-1.824Z" transform="translate(-119.208 -0.001)"/></svg>