<svg xmlns="http://www.w3.org/2000/svg" width="28.81" height="29.864" viewBox="0 0 28.81 29.864"><g transform="translate(-1663.935 -62.34)"><path d="M1678.2,91.846a1.734,1.734,0,0,0,1.241.333c.406-.109.843-.586,1.335-1.457,2.882-5.1,2.9-10.173.055-15.076a11.623,11.623,0,0,1-.995-10.466c.668-1.719.371-2.174-.6-2.6a1.781,1.781,0,0,0-1.377-.158,2.56,2.56,0,0,0-1.085,1.488,14.328,14.328,0,0,0,.8,12.533l.1.179c1,1.806,2.136,3.849,1.868,6.3a9.856,9.856,0,0,1-1.729,6.36,2.321,2.321,0,0,0-.5,1.619A1.722,1.722,0,0,0,1678.2,91.846Z" transform="translate(-1.085)"/><path d="M1666.5,91.868c1.033.571,1.552.51,2.414-.988,2.884-5.018,3-10.013.335-14.845-2.233-4.055-2.542-7.709-.973-11.5a1.464,1.464,0,0,0-.029-1.359,2.175,2.175,0,0,0-1.8-.8l-.1-.009a.918.918,0,0,0-.136-.012c-.255,0-.609.165-1.1,1.4a13.871,13.871,0,0,0,.758,12.715c2.645,4.488,2.711,8.692.206,12.852a2.313,2.313,0,0,0-.474,1.635A1.679,1.679,0,0,0,1666.5,91.868Z"/><path d="M1694.915,83.135l0-.056,0-.058a12.4,12.4,0,0,0-1.868-7.112c-2.3-3.814-2.643-7.424-1.044-11.038a2.135,2.135,0,0,0,.2-1.529,1.566,1.566,0,0,0-.932-.779,2.439,2.439,0,0,0-.894-.207,1.087,1.087,0,0,0-.441.085,2.347,2.347,0,0,0-.992,1.336c-1.693,4.478-1.542,8.532.444,12.048,2.927,5.179,3.018,9.594.284,13.9a1.536,1.536,0,0,0-.311,1.177,1.974,1.974,0,0,0,1.049,1.019c.991.515,1.509.347,2.133-.691A13.79,13.79,0,0,0,1694.915,83.135Z" transform="translate(-2.189)"/></g></svg>