<svg xmlns="http://www.w3.org/2000/svg" width="34.661" height="20.764" viewBox="0 0 34.661 20.764"><g transform="translate(-4312.692 -368.97)"><g transform="translate(4312.692 368.97)"><path d="M4322.376,380.434a2.747,2.747,0,0,1-.748-.387c-.669-.6-1.3-1.249-1.931-1.89a1.332,1.332,0,0,1-.017-1.983,1.372,1.372,0,0,1,2,.028c.629.611,1.272,1.208,1.886,1.835a1.372,1.372,0,0,1,.276,1.6C4323.6,380.185,4323.142,380.4,4322.376,380.434Z" transform="translate(-4314.703 -371.053)"/><path d="M4350.445,380.216a1.553,1.553,0,0,1-1.317-.877,1.324,1.324,0,0,1,.266-1.536q.954-.982,1.942-1.931a1.443,1.443,0,0,1,1.99.036,1.34,1.34,0,0,1-.052,1.96c-.628.628-1.246,1.27-1.908,1.863A4.174,4.174,0,0,1,4350.445,380.216Z" transform="translate(-4323.829 -370.971)"/><path d="M4315.437,391.891c.445,0,.891-.006,1.336,0a1.385,1.385,0,1,1-.01,2.767q-1.337.011-2.671,0a1.383,1.383,0,1,1,.01-2.765C4314.546,391.886,4314.992,391.891,4315.437,391.891Z" transform="translate(-4312.692 -376.001)"/><path d="M4357.495,394.276c-.469,0-.939.017-1.408,0a1.383,1.383,0,0,1,.058-2.765q1.371-.015,2.745,0a1.382,1.382,0,0,1,.049,2.762c-.48.022-.962,0-1.444,0Z" transform="translate(-4325.593 -375.882)"/><path d="M4338.229,371.7c0,.457.008.915,0,1.372a1.376,1.376,0,0,1-2.749.067c-.032-.95-.037-1.9,0-2.851a1.377,1.377,0,0,1,2.752.076c.008.445,0,.891,0,1.336Z" transform="translate(-4319.674 -368.97)"/><path d="M4333.431,380.159a9.432,9.432,0,0,0-9.415,9.4,9.325,9.325,0,0,0,.735,3.612h17.493a9.254,9.254,0,0,0,.721-3.6A9.4,9.4,0,0,0,4333.431,380.159Z" transform="translate(-4316.166 -372.403)"/></g></g></svg>