<svg xmlns="http://www.w3.org/2000/svg" width="16.729" height="18.811" viewBox="0 0 16.729 18.811"><defs><style>.a{fill:#8fc31f;}</style></defs><path class="a" d="M83.686,2.327a2.179,2.179,0,1,1-4.346,0,2.178,2.178,0,1,1,4.346,0m-3.472,0a1.293,1.293,0,1,0,2.579,0,1.293,1.293,0,1,0-2.579,0M96.069,17.572a8.975,8.975,0,0,1-4.762,1.239c-5.278,0-8.315-3.865-8.315-8.712,0-5.51,3.81-8.8,8.275-8.8a8,8,0,0,1,4.8,1.537l-.615,1.836a6.187,6.187,0,0,0-4.207-1.537c-4.048,0-6.39,3.182-6.39,6.918,0,3.31,1.886,6.919,6.569,6.919a6.8,6.8,0,0,0,4.643-1.622Z" transform="translate(-79.34)"/></svg>