<svg xmlns="http://www.w3.org/2000/svg" xmlns:xlink="http://www.w3.org/1999/xlink" width="152" height="50" viewBox="0 0 152 50"><defs><style>.a{fill:url(#a);}.b{fill:#dbdbdb;}</style><linearGradient id="a" x1="0.5" x2="0.5" y2="1" gradientUnits="objectBoundingBox"><stop offset="0" stop-color="#757575"/><stop offset="1" stop-color="#302d2c"/></linearGradient></defs><rect class="a" width="152" height="50" rx="8"/><g transform="translate(-3.616 -103.123)"><g transform="translate(13 113.26)"><path class="b" d="M89.719,154.683h-8.39V128.54h8.39ZM87.579,131H83.5v9.119h4.082Zm0,11.487H83.5v9.728h4.082ZM103.766,154.2c0,.672,0,2.688-2.336,2.688H97.235l-.45-2.623,4,.031c.479,0,.7-.031.7-.64v-8.191H91.013v-2.432h10.473v-3.647h-10.7v-2.464H97.6v-4.256H91.745v-2.431H97.6v-3.008h2.252v3.008h6v2.431h-6v4.256h6.869v2.464h-2.956v3.647h2.76v2.432h-2.76Zm-8.276-1.023a25.35,25.35,0,0,0-3.716-5.376l1.745-1.472a21.268,21.268,0,0,1,3.885,5.216Z" transform="translate(-0.117 -127.229)"/><path class="b" d="M118.92,128.445V139.58h-8.192v17.375h-2.252v-28.51Zm-2.2,2.111h-6v2.432h6Zm0,4.288h-6v2.592h6ZM126.8,153.466H113.966V141.787H126.8Zm-2.14-9.566h-8.586v2.688h8.586Zm0,4.512h-8.586v2.943h8.586Zm7.686,5.886c0,.641,0,2.657-1.971,2.657h-4.11l-.422-2.56,3.462.032c.507,0,.817-.1.817-.9V139.58h-8.446V128.445h10.67Zm-2.224-23.742h-6.25v2.432h6.25Zm0,4.288h-6.25v2.592h6.25Z" transform="translate(-0.117 -127.229)"/></g><g transform="translate(14 113.5)"><path class="b" d="M15.882,202.844h9.149V205.5H15.854c-.366,9.568-5.659,12.448-11.627,14.047L3.1,216.954c8.277-1.92,9.994-5.6,10.247-11.455H1.806v-2.655H13.348V197.6a68.178,68.178,0,0,1-9.909.832L2.96,195.8c6.222,0,13.288-.96,18.609-3.2l1.323,2.592a56.245,56.245,0,0,1-7.01,1.951Z" transform="translate(-1.806 -191.261)"/><path class="b" d="M34.5,201.532c0,10.335-2.534,14.879-5.433,18.079l-1.858-2.145c3.124-3.55,4.785-7.2,4.785-15.71v-8.032H34.5Zm7.348,13.951c3.462-1.216,7.066-2.464,8.586-12.319l2.393,1.152c-1.238,6.4-3.547,13.727-13.513,14.719V192.829h2.534Z" transform="translate(-1.806 -191.261)"/><path class="b" d="M76.2,210.491a60.435,60.435,0,0,0-12.387-6.847V219.8h-2.73V192.445h2.73v8.223a71.614,71.614,0,0,1,13.71,6.847Zm-4.842-17.023a30.4,30.4,0,0,1,3.04,6.08l-1.97,1.376a28.854,28.854,0,0,0-2.928-6.176Zm4.082-2.207a27.7,27.7,0,0,1,3.041,6.079l-1.971,1.376a28.146,28.146,0,0,0-2.928-6.176Z" transform="translate(-1.806 -191.261)"/></g></g></svg>