<svg xmlns="http://www.w3.org/2000/svg" width="160" height="50" viewBox="0 0 160 50"><defs><style>.a{fill:#5f5e5e;}</style></defs><path d="M0,0H160V50H0Z"/><path class="a" d="M472,50V8a8.024,8.024,0,0,0-8-8H328a8.024,8.024,0,0,0-8,8V50" transform="translate(-316)"/><path d="M-23.751-12.64A29.2,29.2,0,0,1-17.03-7.36C-20.985-3.616-25.714-1.728-30.889-.7L-29.4,2.72C-11.2-1.152-7.424-15.424-6.2-22.912h-13.5a27.775,27.775,0,0,0,1.576-3.9l-3.509-.448a24.558,24.558,0,0,1-9.993,13.248l2.2,2.784a30.976,30.976,0,0,0,7.851-8.416h11.242a21.984,21.984,0,0,1-4.164,9.6,26.607,26.607,0,0,0-7.2-5.12Zm47.613-4.768c.833.384,1.4.608,2.825,1.152l1.606-3.136c-5.413-1.472-9.011-3.584-12.52-7.808H11.967A25.928,25.928,0,0,1-.941-19.52L.7-16.256A25.342,25.342,0,0,0,3.4-17.344V-.672c-1.4.1-1.993.128-3.182.16l.446,3.3C9.914,1.824,12.532,1.344,15,.9l-.208-3.008c-2.736.48-5.532.832-8.327,1.12v-6.08h4.669A23.329,23.329,0,0,0,26.3,3.072l1.309-3.2a24.967,24.967,0,0,1-6.6-1.984A38.261,38.261,0,0,0,27.045-6.88l-2.32-2.048a8.136,8.136,0,0,1-.862.96Zm-3,3.072H6.465V-16.32H20.859Zm0,4.512H6.465V-12H20.859Zm-5.68-9.248v-3.04H12.145v3.04H6.494a35.128,35.128,0,0,0,7.286-5.7,35.569,35.569,0,0,0,6.959,5.7Zm7.732,12a36.248,36.248,0,0,1-4.639,3.488,13.955,13.955,0,0,1-3.836-3.488Z" transform="translate(101.652 38)"/><path d="M1354.566,61.546c-.284,0-.562.028-.843.046a15.373,15.373,0,0,1,5.666,12.062c0,8.3-6.251,15.022-13.961,15.022-.189,0-.371-.022-.557-.03a13.85,13.85,0,0,0,9.7,4.036c7.991,0,14.468-6.97,14.468-15.568S1362.557,61.546,1354.566,61.546Z" transform="translate(-1319.001 -51)"/></svg>