<svg xmlns="http://www.w3.org/2000/svg" width="339" height="76" viewBox="0 0 339 76"><defs><style>.a{fill:#dbdbdb;}.b{fill:#474645;}</style></defs><rect class="a" width="339" height="76"/><rect class="b" width="2" height="70" transform="translate(0 3)"/><path d="M17.572-19.181a2.908,2.908,0,0,0-2.79,3,2.909,2.909,0,0,0,2.79,3,2.9,2.9,0,0,0,2.79-3A2.9,2.9,0,0,0,17.572-19.181Zm0,1.339a1.608,1.608,0,0,1,1.546,1.663,1.609,1.609,0,0,1-1.546,1.663,1.622,1.622,0,0,1-1.546-1.663A1.608,1.608,0,0,1,17.572-17.842ZM1.814-15.6v1.879H14.3C13.417-5.94,9.884-2.16,3.42-1.123L4.283.713a13.363,13.363,0,0,0,8.652-5.1c1.967-2.549,2.589-5.076,3.192-8.489L13.9-15.6Zm20.013-.173V-.3H36.642V-15.768ZM34.815-2.16H23.654V-13.91H34.815Zm6.424,3.283c7.146-1.728,11.342-6,13.008-14.234L52.38-15.768H44.35a15.464,15.464,0,0,1-5.018,6.026l1.144,1.469a17.474,17.474,0,0,0,5.079-5.681H52.52C51.376-7.452,48.265-2.376,40.476-.713ZM55.09-18.36A18.5,18.5,0,0,1,57.217-14.3l1.285-.907a19.317,19.317,0,0,0-2.208-3.974Zm-2.67.842A18.371,18.371,0,0,1,54.608-13.5l1.265-.929A18.469,18.469,0,0,0,53.6-18.36Zm8.331.886v1.814H73.919v-1.814Zm-1.425,5.076v1.814h13.73c-1.164,6.8-6.062,8.186-11.221,8.618l.5,1.879c7.889-.886,11.8-3.586,12.807-12.312ZM78.194.022A133.636,133.636,0,0,0,92.426-1.21c.341.864.482,1.274.723,2.009l1.807-.886a40.34,40.34,0,0,0-5.139-9.569l-1.546.842a41.315,41.315,0,0,1,3.433,6c-3.152.389-6.845.626-10.057.713A107.436,107.436,0,0,0,86.264-16.8l-1.987-.367A118.355,118.355,0,0,1,79.84-2.052c-.2,0-1.746.043-1.827.043Z" transform="translate(11.186 26)"/><path d="M27.922-13.7h-4.61v-1.792h-2.32V-13.7H15.67v-1.792H13.35V-13.7H9.008v2.112H13.35v2.848H8.294v2.144H28.636V-8.736H23.313v-2.848h4.61Zm-6.929,4.96H15.67v-2.848h5.323ZM7.908-21.312a30.705,30.705,0,0,0-4.461-5.28L1.6-24.928A38.235,38.235,0,0,1,6-19.616Zm.178-4.96v1.952h6.6v1.76H8.621v4.288a1.765,1.765,0,0,0,2.022,1.952h5.085c1.4,0,1.814-.7,2.082-3.328L15.729-20c-.238,1.568-.268,1.728-.981,1.728h-3.39c-.535,0-.595-.16-.595-.672v-1.792H16.8v-5.536Zm19.033,0H18.287v1.952h6.662v1.76H18.614v4.32c0,1.856,1.487,1.92,2.23,1.92h5.532c1.755,0,1.9-1.472,2.082-3.36l-2.171-.384c-.149,1.5-.178,1.792-.981,1.792H21.38c-.357,0-.684,0-.684-.64v-1.824h6.424ZM10.7-1.632A22.816,22.816,0,0,0,16.413-4.8L14.629-6.208A22.154,22.154,0,0,1,9.246-3.68ZM20.577-4.7a19.8,19.8,0,0,0,6.572,3.36L28.4-3.424a20.438,20.438,0,0,1-6.186-2.848ZM1.187-14.592v2.56H4.517V-3.2A18.4,18.4,0,0,1,.8.1L2.109,2.752A23.1,23.1,0,0,0,6.3-1.728c1.993,3.488,6.543,3.68,7.97,3.68H28.517l.506-2.464H14.9c-5.561,0-7.405-1.888-7.94-4.9v-9.184ZM42.9-13.216c-.892.384-1.725.768-3.45,1.44v-7.04H42.9v-2.336h-3.45v-5.824H37.037v5.824H32.606v2.336h4.431v7.968c-2.26.832-3.479,1.152-4.61,1.472l.446,2.656c.833-.288,1.725-.576,4.164-1.5V-.64c0,.7-.089.832-.922.8l-3-.064.446,2.624h3.45c2.409,0,2.439-1.632,2.439-2.528V-9.184c2.409-.992,2.855-1.216,3.628-1.568ZM59.342-25.824H44.175v13.216A30.43,30.43,0,0,1,42.9-4.192,13.413,13.413,0,0,1,40.279.576l1.9,2.208c4.164-5.088,4.282-12.9,4.312-15.712h4.729C52-5.6,54.673-1.28,59.223,2.688l1.546-2.3A18.113,18.113,0,0,1,53.6-12.928h5.74ZM56.992-15.36H46.524v-8.064H56.992ZM84-16.832H81.327l.178,6.848a11.973,11.973,0,0,0-3.093-.384c-5.264,0-6.989,3.552-6.989,5.952,0,2.976,2.2,5.632,6.662,5.632,2.944,0,5.948-1.152,5.948-5.888V-5.984a17.44,17.44,0,0,1,4.818,4.352L90.486-4.16a20.183,20.183,0,0,0-6.334-4.9ZM81.564-5.184c0,2.176-.446,3.9-3.39,3.9-.565,0-4.223,0-4.223-3.232,0-1.792,1.427-3.424,4.461-3.424a7.953,7.953,0,0,1,3.152.608ZM72.732-21.76c.387-2.336.416-2.528.654-4.064l-2.825-.128c-.119,1.28-.208,1.984-.535,4.192h-5.5v2.688H69.55c-.773,3.584-2.082,9.856-5.264,15.36l2.736,1.28a68.963,68.963,0,0,0,5.2-16.64h6.751V-21.76Zm17.249,2.5a44.542,44.542,0,0,0-8.119-3.968l-1.041,2.368a41.531,41.531,0,0,1,7.911,4.16Zm5.688-6.272c-.03,2.176-.208,12.8-.208,15.2,0,5.568.535,11.424,8.684,11.424,9.041,0,10.974-6.592,11.925-12.384l-2.5-.992c-.833,4.864-1.814,10.624-9.517,10.624-5.591,0-5.769-4.288-5.769-8.384,0-3.04.119-6.848.387-15.488Z" transform="translate(11.2 64)"/></svg>