<svg xmlns="http://www.w3.org/2000/svg" width="800" height="92" viewBox="0 0 800 92"><defs><style>.a{fill:#dbdbdb;}</style></defs><rect width="800" height="92"/><rect class="a" width="786" height="92" rx="8" transform="translate(7)"/><g transform="translate(78)"><path d="M-38.72,2.1A37,37,0,0,0-26.731-11.3V4.45h4.693V-11.3A39.1,39.1,0,0,0-10.7,2.55L-7.865-2.1a35.035,35.035,0,0,1-11.8-12.75H-8.609V-19.6H-22.038v-4.9h10.874V-40.9H-37.326v16.4h10.595v4.9H-40.114v4.75h11.059A31.871,31.871,0,0,1-41.508-2.5Zm22.955-38.35v7.2H-32.679v-7.2ZM-47.921,4.45h4.786v-33.9a73.935,73.935,0,0,0,3.02-12.35l-4.926-.8c-1.162,8.15-4,15.7-7.76,20.3l2.138,6.35a27.854,27.854,0,0,0,2.742-3.6ZM41.9-41H15.183v19.8H41.9ZM37.256-25.5H19.784v-3.9H37.256Zm0-11.1v3.4H19.784v-3.4ZM2.776-38.15a47.623,47.623,0,0,1,7.667,5.2l2.881-4.55a47.687,47.687,0,0,0-7.993-4.9Zm11.2,36.1H11v4.8H44.877v-4.8H43.018V-17.5H13.975Zm16.45-10.9v10.9H26.382v-10.9Zm-8.039,0v10.9H18.343v-10.9Zm16.171,0v10.9H34.468v-10.9ZM.546-24.1a31.625,31.625,0,0,1,7.481,4.75L11-24.1a37.933,37.933,0,0,0-8.132-4.7Zm7.807,7.65C5.1-7.5,3.334-4.4.732-.95L3.891,4.2c2.7-3.75,4-6.15,8.55-17.25Z" transform="translate(353.8 64.6)"/><g transform="translate(241 22)"><path d="M-1093.807,1217.415a2.419,2.419,0,0,0,1.828.528c.6-.173,1.243-.929,1.969-2.31,4.244-8.086,4.271-16.129.079-23.9a19.651,19.651,0,0,1-1.467-16.594c.985-2.725.547-3.447-.878-4.125a2.452,2.452,0,0,0-2.029-.249,4.044,4.044,0,0,0-1.6,2.358c-2.429,7.1-2.04,13.6,1.186,19.871l.146.284c1.478,2.863,3.147,6.1,2.752,9.988a16.534,16.534,0,0,1-2.548,10.084,3.881,3.881,0,0,0-.741,2.567A2.669,2.669,0,0,0-1093.807,1217.415Z" transform="translate(1114.829 -1170.634)"/><path d="M-1104.636,1217.442c1.524.905,2.288.809,3.558-1.565,4.249-7.958,4.416-15.875.493-23.538-3.29-6.429-3.745-12.222-1.433-18.233a2.48,2.48,0,0,0-.043-2.155,3.121,3.121,0,0,0-2.654-1.272l-.141-.014a1.257,1.257,0,0,0-.2-.019c-.374,0-.9.261-1.622,2.224-2.646,7.188-2.27,13.969,1.118,20.159,3.9,7.116,3.994,13.781.3,20.376a3.875,3.875,0,0,0-.7,2.592A2.582,2.582,0,0,0-1104.636,1217.442Z" transform="translate(1108.42 -1170.627)"/><path d="M-1075.742,1203.594l0-.089,0-.092a20.826,20.826,0,0,0-2.752-11.276c-3.39-6.047-3.894-11.771-1.54-17.5a3.6,3.6,0,0,0,.289-2.424,2.355,2.355,0,0,0-1.371-1.233,3.358,3.358,0,0,0-1.319-.33,1.5,1.5,0,0,0-.648.135,3.7,3.7,0,0,0-1.462,2.118c-2.494,7.1-2.273,13.527.655,19.1,4.312,8.211,4.446,15.213.417,22.03a2.567,2.567,0,0,0-.457,1.866,3.013,3.013,0,0,0,1.546,1.615c1.459.817,2.223.55,3.143-1.1C-1076.626,1211.75-1075.512,1207.676-1075.742,1203.594Z" transform="translate(1121.39 -1170.625)"/></g></g></svg>