<svg xmlns="http://www.w3.org/2000/svg" width="800" height="92" viewBox="0 0 800 92"><defs><style>.a{fill:#dbdbdb;}</style></defs><rect width="800" height="92"/><rect class="a" width="786" height="92" rx="8" transform="translate(7)"/><path d="M-32.909-28.45H-49.823v5h16.915v6.9H-52.1v5h19.191V-1.8c0,1.15-.79,1.15-1.394,1.15h-8.69l.929,5.15h10.5c.372,0,3.578-.1,3.578-4.55v-11.5H-8.745v-5H-27.983v-6.9h17.007v-5H-27.983V-35.4c8.55-.75,13.569-1.65,16.45-2.15l-1.348-5.05c-12.314,2.7-24.861,3.1-37.407,2.95l.465,5.1c2.649,0,14.5-.5,16.915-.6ZM27.082,4.25c3.857-4.8,8.086-12.05,8.457-31.8h3.485c0,3.85-.418,22.55-1.208,25.4-.139.4-.418,1.3-2.138,1.3h-3.81l.79,5.1h4.414c2,0,3.857,0,5.065-3.5,1.441-4.25,1.58-27.4,1.626-33.35H35.539v-9.95H30.846v9.95H27.082v5.05h3.764C30.567-11.9,27.733-6.4,25.688-2.8c-2.556.3-5.2.6-9.9.9V-4.65h9.944V-8.7H15.79V-11h9.387V-28.6H15.79v-2.25H26.246V-34.9H15.79v-2.4a39.625,39.625,0,0,0,9.34-1.35L23.6-42.55c-6.366,1.45-10.13,1.7-21.98,1.8l.558,3.9c2.277,0,5.019,0,9.433-.2v2.15H1.106v4.05h10.5v2.25H2.454V-11h9.154v2.3H2.175v4.05h9.433v3c-4.879.3-7.807.3-10.5.3l.465,4.6c5.809-.25,13.383-.6,21.84-1.7ZM11.608-24.9v3.25H6.543V-24.9Zm0,6.65v3.45H6.543v-3.45Zm9.48-6.65v3.25h-5.3V-24.9Zm0,6.65v3.45h-5.3v-3.45Z" transform="translate(314.1 64.6)"/><path d="M-1224.41,1185.695c-4.219-.007-8.435-.006-12.768,0q.017-4.658,0-9.316l0-3.018a5.941,5.941,0,0,0-.114-1.312,4.883,4.883,0,0,0-5.046-3.983,4.923,4.923,0,0,0-4.411,5.071q-.024,5.507-.015,11.018v9.795q-1.786-3.167-3.565-6.338a3.326,3.326,0,0,0-1.21-1.24,4.175,4.175,0,0,0-4.843.344,4.68,4.68,0,0,0-1.4,4.863l1.569,6.248q1.567,6.249,3.139,12.5c.064.253.122.508.179.762a9.123,9.123,0,0,0,1.072,3.015,7.951,7.951,0,0,0,6.932,3.958q2.835.037,5.668,0c1.039-.016,2.078,0,3.117.013.726.01,1.461.019,2.2.019,1.254,0,2.523-.027,3.784-.124,6.226-.485,11.325-6.369,11.366-13.119.026-4.363.017-8.724.005-13.086C-1218.754,1188.195-1221.084,1185.7-1224.41,1185.695Zm-28.709,4.115q2.517,4.568,5.042,9.128l1.234,2.232c.08.149.163.3.253.446a1.686,1.686,0,0,0,2.024.927,1.893,1.893,0,0,0,1.26-1.966v-17.4q0-4.922,0-9.844a1.628,1.628,0,0,1,.5-1.25,1.254,1.254,0,0,1,1.12-.269,1.417,1.417,0,0,1,1.057,1.519c.012,1.2.009,2.4.006,3.6l0,10.392a1.843,1.843,0,0,0,1.994,2.087h14.233a2.054,2.054,0,0,1,2.206,2.341l.009,3.862c.01,3.068.021,6.136-.027,9.2-.082,5.081-3.827,9.239-8.527,9.463-2.2.1-4.447.089-6.624.076-.771,0-1.54-.01-2.309-.01h-.524c-1.268,0-2.531,0-3.794,0l-.949,0a4.5,4.5,0,0,1-3.862-2.045,5.4,5.4,0,0,1-.681-1.841l-4.921-19.688a1.25,1.25,0,0,1-.035-.856.713.713,0,0,1,.665-.493A.673.673,0,0,1-1253.12,1189.81Z" transform="translate(1470.465 -1147.518)"/></svg>