<svg xmlns="http://www.w3.org/2000/svg" width="70" height="70" viewBox="0 0 70 70"><defs><style>.a{fill:#505050;}.b{fill:#dbdbdb;}</style></defs><rect class="a" width="70" height="70" rx="4"/><path class="b" d="M123.3,16.5h8.108v3.09h-8.133c-.51,8.97-5.61,11.46-10.735,12.809l-1.25-3c7.369-1.71,8.848-4.649,9.129-9.809h-10.1V16.5h10.149V12.267a56.074,56.074,0,0,1-8.618.659l-.535-3.03c5.915-.03,11.88-.839,16.776-2.849l1.454,3.029a49.353,49.353,0,0,1-6.247,1.71Z" transform="translate(-107.09)"/><path class="b" d="M138.961,15.206c0,10.439-2.5,14.67-4.794,17.279l-2.142-2.52c2.5-3.06,4.105-6.21,4.105-14.46V8.066h2.831Zm6.731,12.569c2.778-1.229,5.839-2.58,6.985-11.01l2.729,1.351c-1.2,6.09-3.416,13.019-12.57,13.829V7.256h2.856Z" transform="translate(-107.09)"/><path class="b" d="M173.511,24.176a49.535,49.535,0,0,0-10.735-6.33V32.515h-3.059V6.9h3.059v7.47a61.432,61.432,0,0,1,12.238,6.3ZM169.4,7.826a27.252,27.252,0,0,1,2.754,5.7l-1.963,1.32a26.041,26.041,0,0,0-2.627-5.789Zm3.672-2.04a27.619,27.619,0,0,1,2.779,5.67l-1.963,1.32a27.945,27.945,0,0,0-2.652-5.79Z" transform="translate(-109.09)"/><path class="b" d="M122.461,63.795h-8.7V38.806h8.7Zm-2.649-21.96h-3.374v7.83h3.374Zm0,10.651h-3.374v8.369h3.374Zm16.617,10.139c0,2.249-.669,3.06-2.983,3.06h-4.1l-.558-3.06h3.959c.39,0,.809,0,.809-.9v-6.45H123.548V52.4h10.009v-2.97H123.325V46.516h6.524V43.035H124.3V40.156h5.549v-2.55h2.816v2.55h5.744v2.879h-5.744v3.481h6.608v2.909h-2.844V52.4h2.62v2.88h-2.62Zm-8.978-.03a24.53,24.53,0,0,0-3.6-5.07l2.259-1.74a20.123,20.123,0,0,1,3.763,4.83Z" transform="translate(-106.964)"/><path class="b" d="M145.951,38.837h10.594V49.786H148.71V65.745h-2.759Zm2.759,4.439h5.13V41.3h-5.13Zm0,4.019h5.13V45.316h-5.13Zm15.725,15.331H151.5V51.5h12.936ZM154.12,56h7.668v-2.07H154.12Zm0,4.17h7.668v-2.16H154.12Zm13.16-10.38h-8.253V38.837h11.041V62.925c0,.84,0,2.82-1.869,2.82h-4.266l-.445-3h3.15c.336,0,.642-.119.642-.72Zm-5.549-6.51h5.549V41.3h-5.549Zm0,4.019h5.549V45.316h-5.549Z" transform="translate(-106.964)"/></svg>