<svg xmlns="http://www.w3.org/2000/svg" width="176" height="40" viewBox="0 0 176 40"><defs><style>.a{fill:#222;}.b{fill:#dbdbdb;}.c,.e{fill:none;}.c{stroke:#dbdbdb;stroke-miterlimit:10;}.d{stroke:none;}</style></defs><rect class="a" width="176" height="40"/><g transform="translate(-6 -52)"><path class="b" d="M39.227,61.337l3.021,4.032c-.817,5.055-1.659,8.8-4.325,12.575A18.019,18.019,0,0,1,26.2,85.5l-1.17-2.72c8.76-1.535,13.549-7.135,14.746-18.654H22.849V61.337Zm8.761-.864c0,2.464-1.687,4.448-3.781,4.448-2.068,0-3.782-1.984-3.782-4.448,0-2.5,1.742-4.448,3.782-4.448,2.067,0,3.781,1.952,3.781,4.448m-5.876,0a2.122,2.122,0,1,0,2.1-2.464,2.322,2.322,0,0,0-2.1,2.464"/><path class="b" d="M70.048,83.992H49.969V61.081H70.048ZM67.571,63.833H52.444V81.24H67.571Z"/><path class="b" d="M75.237,83.384C85.793,80.921,90.01,73.4,91.561,63.77H82.119a25.265,25.265,0,0,1-6.882,8.415l-1.551-2.176a22.508,22.508,0,0,0,6.8-8.927H91.369L93.9,65.018C91.642,77.209,85.955,83.544,76.27,86.1ZM93.029,57.242A28.071,28.071,0,0,1,96.1,63.066L94.39,64.442a28.033,28.033,0,0,0-2.966-5.952Zm3.646-1.216a29.413,29.413,0,0,1,2.993,5.888l-1.741,1.343a28.43,28.43,0,0,0-2.884-6.015Z"/><path class="b" d="M122.217,67.321c-1.361,12.927-6.666,16.927-17.358,18.239l-.681-2.784c6.993-.64,13.631-2.688,15.209-12.767H100.778V67.321Zm-1.66-4.831H102.709V59.8h17.848Z"/><path class="b" d="M123.925,81.464c.108,0,2.2-.064,2.476-.064A187.732,187.732,0,0,0,132.413,59l2.694.544a170.455,170.455,0,0,1-6.257,21.79c4.352-.128,9.358-.48,13.63-1.056a63.012,63.012,0,0,0-4.653-8.9l2.1-1.247a61.7,61.7,0,0,1,6.965,14.175l-2.449,1.312c-.326-1.088-.516-1.7-.979-2.976a166.113,166.113,0,0,1-19.289,1.824Z"/></g><g transform="translate(1.624 -52)"><g class="c" transform="translate(143.376 59)"><rect class="d" width="23.708" height="25.512" rx="2"/><rect class="e" x="0.5" y="0.5" width="22.708" height="24.512" rx="1.5"/></g><path class="b" d="M164.8,62.406h2.7V81.56H164.43V66.054L161.3,68.479l-.39-3.145Z" transform="translate(-10.037 -0.244)"/></g></svg>