<svg xmlns="http://www.w3.org/2000/svg" width="160" height="50" viewBox="0 0 160 50"><defs><style>.a{fill:#dbdbdb;}</style></defs><path d="M0,0H160V50H0Z"/><path class="a" d="M792,50V8a8.024,8.024,0,0,0-8-8H648a8.024,8.024,0,0,0-8,8V50" transform="translate(-636)"/><path d="M-23.581,1.344a23.681,23.681,0,0,0,7.672-8.576V2.848h3V-7.232A25.022,25.022,0,0,0-5.649,1.632l1.814-2.976A22.422,22.422,0,0,1-11.389-9.5h7.078v-3.04h-8.594V-15.68h6.959v-10.5H-22.689v10.5h6.78v3.136h-8.565V-9.5H-17.4a20.4,20.4,0,0,1-7.97,7.9ZM-8.891-23.2v4.608H-19.715V-23.2ZM-29.47,2.848h3.063v-21.7a47.321,47.321,0,0,0,1.933-7.9l-3.152-.512c-.743,5.216-2.557,10.048-4.966,12.992l1.368,4.064a17.826,17.826,0,0,0,1.755-2.3ZM25.784-26.24H8.684v12.672h17.1ZM22.81-16.32H11.628v-2.5H22.81Zm0-7.1v2.176H11.628v-2.176ZM.744-24.416a30.477,30.477,0,0,1,4.907,3.328L7.495-24A30.518,30.518,0,0,0,2.38-27.136Zm7.167,23.1h-1.9V1.76H27.687V-1.312H26.5V-11.2H7.911ZM18.438-8.288v6.976H15.851V-8.288Zm-5.145,0v6.976H10.706V-8.288Zm10.349,0v6.976H21.026V-8.288ZM-.683-15.424A20.239,20.239,0,0,1,4.1-12.384l1.9-3.04A24.275,24.275,0,0,0,.8-18.432Zm5,4.9C2.231-4.8,1.1-2.816-.564-.608l2.022,3.3C3.183.288,4.015-1.248,6.93-8.352Z" transform="translate(102.352 38)"/><g transform="translate(-1638.995 -51)"><path d="M1678.2,91.846a1.734,1.734,0,0,0,1.241.333c.406-.109.843-.586,1.335-1.457,2.882-5.1,2.9-10.173.055-15.076a11.623,11.623,0,0,1-.995-10.466c.668-1.719.371-2.174-.6-2.6a1.781,1.781,0,0,0-1.377-.158,2.56,2.56,0,0,0-1.085,1.488,14.328,14.328,0,0,0,.8,12.533l.1.179c1,1.806,2.136,3.849,1.868,6.3a9.856,9.856,0,0,1-1.729,6.36,2.321,2.321,0,0,0-.5,1.619A1.722,1.722,0,0,0,1678.2,91.846Z" transform="translate(-1.085)"/><path d="M1666.5,91.868c1.033.571,1.552.51,2.414-.988,2.884-5.018,3-10.013.335-14.845-2.233-4.055-2.542-7.709-.973-11.5a1.464,1.464,0,0,0-.029-1.359,2.175,2.175,0,0,0-1.8-.8l-.1-.009a.918.918,0,0,0-.136-.012c-.255,0-.609.165-1.1,1.4a13.871,13.871,0,0,0,.758,12.715c2.645,4.488,2.711,8.692.206,12.852a2.313,2.313,0,0,0-.474,1.635A1.679,1.679,0,0,0,1666.5,91.868Z"/><path d="M1694.915,83.135l0-.056,0-.058a12.4,12.4,0,0,0-1.868-7.112c-2.3-3.814-2.643-7.424-1.044-11.038a2.135,2.135,0,0,0,.2-1.529,1.566,1.566,0,0,0-.932-.779,2.439,2.439,0,0,0-.894-.207,1.087,1.087,0,0,0-.441.085,2.347,2.347,0,0,0-.992,1.336c-1.693,4.478-1.542,8.532.444,12.048,2.927,5.179,3.018,9.594.284,13.9a1.536,1.536,0,0,0-.311,1.177,1.974,1.974,0,0,0,1.049,1.019c.991.515,1.509.347,2.133-.691A13.79,13.79,0,0,0,1694.915,83.135Z" transform="translate(-2.189)"/></g></svg>