<svg xmlns="http://www.w3.org/2000/svg" width="160" height="50" viewBox="0 0 160 50"><defs><style>.a{fill:#dbdbdb;}</style></defs><path d="M0,0H160V50H0Z"/><path class="a" d="M152,50V8a8.024,8.024,0,0,0-8-8H8A8.024,8.024,0,0,0,0,8V50" transform="translate(4)"/><path d="M-16.594,2.848A24.389,24.389,0,0,0-13.2-6.976h5.472v5.632c0,.8-.208.8-.833.8h-3.063l.476,3.392h3.837c2.35,0,2.469-1.472,2.469-3.392V-26.368H-15.7V-12.1a23.749,23.749,0,0,1-1.4,8.832v-2.56h-6.008V-8.16h5.235v-11.9h-5.235v-1.952H-17.1v-2.976h-6.008V-27.2h-2.855v2.208h-5.919v2.976h5.919v1.952h-5.145v11.9h5.145v2.336h-6.246V-2.88h6.246V2.848h2.855V-2.88h5.889A15.693,15.693,0,0,1-19.211.8ZM-20.579-17.5v2.144h-7.852V-17.5Zm0,4.544v2.208h-7.852V-12.96Zm12.848-10.3v5.184h-5.086v-5.184Zm0,8.128V-9.92h-5.175c.03-.64.089-1.28.089-2.144v-3.072Zm31.556-2.272c.833.384,1.4.608,2.825,1.152l1.606-3.136c-5.413-1.472-9.012-3.584-12.521-7.808H11.929A25.929,25.929,0,0,1-.979-19.52L.656-16.256a25.345,25.345,0,0,0,2.706-1.088V-.672c-1.4.1-1.993.128-3.182.16l.446,3.3C9.876,1.824,12.494,1.344,14.962.9l-.208-3.008c-2.736.48-5.532.832-8.328,1.12v-6.08H11.1A23.331,23.331,0,0,0,26.264,3.072l1.309-3.2a24.97,24.97,0,0,1-6.6-1.984A38.263,38.263,0,0,0,27.008-6.88l-2.32-2.048a8.136,8.136,0,0,1-.863.96Zm-3,3.072H6.426V-16.32H20.821Zm0,4.512H6.426V-12H20.821Zm-5.681-9.248v-3.04H12.107v3.04H6.456a35.13,35.13,0,0,0,7.287-5.7,35.571,35.571,0,0,0,6.96,5.7Zm7.733,12a36.25,36.25,0,0,1-4.64,3.488A13.956,13.956,0,0,1,14.4-7.072Z" transform="translate(103.558 38)"/><g transform="translate(1726.145 -1159.955)"><path d="M-1697.149,1184.909a2.461,2.461,0,0,1-.682-.379c-.61-.591-1.183-1.225-1.76-1.854a1.375,1.375,0,0,1-.015-1.946,1.192,1.192,0,0,1,1.819.028c.573.6,1.16,1.184,1.719,1.8a1.42,1.42,0,0,1,.252,1.569A1.29,1.29,0,0,1-1697.149,1184.909Z"/><path d="M-1679.88,1184.775a1.416,1.416,0,0,1-1.2-.86,1.373,1.373,0,0,1,.241-1.507q.871-.963,1.771-1.893a1.248,1.248,0,0,1,1.814.035,1.382,1.382,0,0,1-.047,1.922c-.573.617-1.136,1.246-1.739,1.827A3.749,3.749,0,0,1-1679.88,1184.775Z"/><path d="M-1701.642,1191.293c.406,0,.812-.006,1.218,0a1.337,1.337,0,0,1,1.307,1.345,1.326,1.326,0,0,1-1.316,1.369q-1.218.012-2.436,0a1.287,1.287,0,0,1-1.275-1.36,1.3,1.3,0,0,1,1.284-1.353C-1702.454,1191.288-1702.048,1191.293-1701.642,1191.293Z"/><path d="M-1675.061,1193.75c-.428,0-.856.017-1.283,0a1.315,1.315,0,0,1-1.225-1.386,1.293,1.293,0,0,1,1.277-1.327q1.251-.013,2.5,0a1.31,1.31,0,0,1,1.244,1.329,1.324,1.324,0,0,1-1.2,1.38c-.437.022-.877,0-1.316,0Z"/><path d="M-1687.229,1178.381c0,.448.007.9,0,1.345a1.269,1.269,0,0,1-1.2,1.321,1.266,1.266,0,0,1-1.3-1.255c-.029-.931-.033-1.865,0-2.8a1.276,1.276,0,0,1,1.341-1.288,1.3,1.3,0,0,1,1.169,1.362c.007.437,0,.874,0,1.311Z"/><path d="M-1688.405,1183.315c-4.728.007-8.595,4.159-8.583,9.217a9.743,9.743,0,0,0,.67,3.543h15.948a9.652,9.652,0,0,0,.657-3.531C-1679.72,1187.387-1683.562,1183.307-1688.405,1183.315Z"/></g></svg>