<svg xmlns="http://www.w3.org/2000/svg" width="160" height="50" viewBox="0 0 160 50"><defs><style>.a{fill:#dbdbdb;}</style></defs><path d="M0,0H160V50H0Z"/><path class="a" d="M632,50V8a8.024,8.024,0,0,0-8-8H488a8.024,8.024,0,0,0-8,8V50" transform="translate(-476)"/><path d="M-19.861-18.208H-30.687v3.2h10.826v4.416H-32.144v3.2h12.283v6.24c0,.736-.506.736-.892.736h-5.562l.595,3.3H-19c.238,0,2.29-.064,2.29-2.912v-7.36H-4.4v-3.2H-16.708v-4.416H-5.823v-3.2H-16.708v-4.448c5.472-.48,8.685-1.056,10.529-1.376l-.863-3.232c-7.882,1.728-15.912,1.984-23.942,1.888l.3,3.264c1.7,0,9.279-.32,10.826-.384ZM16.305,2.72c2.469-3.072,5.175-7.712,5.413-20.352h2.231c0,2.464-.268,14.432-.773,16.256-.089.256-.268.832-1.368.832H19.369l.506,3.264H22.7c1.279,0,2.469,0,3.242-2.24.922-2.72,1.011-17.536,1.041-21.344H21.718v-6.368h-3v6.368H16.305v3.232h2.409c-.178,10.016-1.993,13.536-3.3,15.84-1.636.192-3.331.384-6.335.576v-1.76h6.365V-5.568H9.078V-7.04h6.008V-18.3H9.078v-1.44H15.77v-2.592H9.078v-1.536a25.363,25.363,0,0,0,5.978-.864l-.981-2.5C10-26.3,7.591-26.144.007-26.08l.357,2.5c1.457,0,3.212,0,6.038-.128v1.376H-.32v2.592H6.4v1.44H.542V-7.04H6.4v1.472H.364v2.592H6.4v1.92c-3.123.192-5,.192-6.722.192l.3,2.944C3.695,1.92,8.543,1.7,13.956.992ZM6.4-15.936v2.08H3.159v-2.08Zm0,4.256v2.208H3.159V-11.68Zm6.067-4.256v2.08H9.078v-2.08Zm0,4.256v2.208H9.078V-11.68Z" transform="translate(98.844 38)"/><path d="M1526.089,71.88c-2.9,0-5.8,0-8.774,0,.008-2.134.005-4.268,0-6.4l0-2.074a4.057,4.057,0,0,0-.078-.9,3.275,3.275,0,0,0-6.5.748c-.012,2.523-.01,5.047-.009,7.571v6.732q-1.228-2.177-2.451-4.356a2.291,2.291,0,0,0-.832-.852,2.869,2.869,0,0,0-3.328.236,3.215,3.215,0,0,0-.961,3.341l1.077,4.295q1.078,4.294,2.158,8.588c.044.174.084.349.123.524a6.266,6.266,0,0,0,.737,2.072,5.463,5.463,0,0,0,4.764,2.72q1.948.024,3.9,0c.714-.011,1.428,0,2.142.009.5.006,1,.013,1.513.013.862,0,1.734-.019,2.6-.085,4.279-.333,7.782-4.377,7.811-9.016.018-3,.011-6,0-8.993A3.875,3.875,0,0,0,1526.089,71.88Zm-19.729,2.828q1.729,3.14,3.465,6.273l.849,1.534c.056.1.111.2.174.306a1.159,1.159,0,0,0,1.391.637,1.3,1.3,0,0,0,.865-1.351V70.146q0-3.383,0-6.765a1.116,1.116,0,0,1,.343-.859.862.862,0,0,1,.77-.185.974.974,0,0,1,.725,1.044c.008.824.006,1.648,0,2.472l0,7.142a1.266,1.266,0,0,0,1.37,1.434h9.781a1.412,1.412,0,0,1,1.516,1.609l.005,2.654c.007,2.108.014,4.217-.019,6.324a6.419,6.419,0,0,1-5.861,6.5c-1.509.072-3.055.061-4.552.052-.529,0-1.058-.007-1.586-.007h-.36c-.872,0-1.74,0-2.607,0l-.652,0a3.1,3.1,0,0,1-2.654-1.4,3.719,3.719,0,0,1-.467-1.265l-3.382-13.53a.857.857,0,0,1-.024-.588.489.489,0,0,1,.457-.339A.463.463,0,0,1,1506.359,74.708Z" transform="translate(-1478.999 -51)"/></svg>