<svg xmlns="http://www.w3.org/2000/svg" width="339" height="76" viewBox="0 0 339 76"><defs><style>.a{fill:#dbdbdb;}.b{fill:#474645;}.c,.f{fill:none;}.c{stroke:#14100e;stroke-miterlimit:10;}.d{fill:#14100e;}.e{stroke:none;}</style></defs><rect class="a" width="339" height="76"/><rect class="b" width="2" height="70" transform="translate(0 3)"/><path d="M17.572-19.181a2.908,2.908,0,0,0-2.79,3,2.909,2.909,0,0,0,2.79,3,2.9,2.9,0,0,0,2.79-3A2.9,2.9,0,0,0,17.572-19.181Zm0,1.339a1.608,1.608,0,0,1,1.546,1.663,1.609,1.609,0,0,1-1.546,1.663,1.622,1.622,0,0,1-1.546-1.663A1.608,1.608,0,0,1,17.572-17.842ZM1.814-15.6v1.879H14.3C13.417-5.94,9.884-2.16,3.42-1.123L4.283.713a13.363,13.363,0,0,0,8.652-5.1c1.967-2.549,2.589-5.076,3.192-8.489L13.9-15.6Zm20.013-.173V-.3H36.642V-15.768ZM34.815-2.16H23.654V-13.91H34.815Zm6.424,3.283c7.146-1.728,11.342-6,13.008-14.234L52.38-15.768H44.35a15.464,15.464,0,0,1-5.018,6.026l1.144,1.469a17.474,17.474,0,0,0,5.079-5.681H52.52C51.376-7.452,48.265-2.376,40.476-.713ZM55.09-18.36A18.5,18.5,0,0,1,57.217-14.3l1.285-.907a19.317,19.317,0,0,0-2.208-3.974Zm-2.67.842A18.371,18.371,0,0,1,54.608-13.5l1.265-.929A18.469,18.469,0,0,0,53.6-18.36Zm8.331.886v1.814H73.919v-1.814Zm-1.425,5.076v1.814h13.73c-1.164,6.8-6.062,8.186-11.221,8.618l.5,1.879c7.889-.886,11.8-3.586,12.807-12.312ZM78.194.022A133.636,133.636,0,0,0,92.426-1.21c.341.864.482,1.274.723,2.009l1.807-.886a40.34,40.34,0,0,0-5.139-9.569l-1.546.842a41.315,41.315,0,0,1,3.433,6c-3.152.389-6.845.626-10.057.713A107.436,107.436,0,0,0,86.264-16.8l-1.987-.367A118.355,118.355,0,0,1,79.84-2.052c-.2,0-1.746.043-1.827.043Z" transform="translate(10.186 26)"/><g transform="translate(-601.3 -56)"><g class="c" transform="translate(720 60)"><rect class="e" width="23.699" height="25.512" rx="2"/><rect class="f" x="0.5" y="0.5" width="22.699" height="24.512" rx="1.5"/></g><path class="d" d="M11.685,3.67h1.43V22.584H11.481V6.191l-2.572,2.5L8.688,6.551Z" transform="translate(719.5 59.5)"/></g></svg>