<svg xmlns="http://www.w3.org/2000/svg" xmlns:xlink="http://www.w3.org/1999/xlink" width="800" height="52" viewBox="0 0 800 52"><defs><style>.a{fill:#dbdbdb;}.b{fill:#474645;}.c{clip-path:url(#a);}</style><clipPath id="a"><rect class="a" width="170.354" height="37.754" transform="translate(0 0)"/></clipPath></defs><rect width="800" height="52"/><path class="b" d="M4,0H780c2.209,0,4,1.455,4,3.25v45.5c0,1.795-1.791,3.25-4,3.25H4c-2.209,0-4-1.455-4-3.25V3.25C0,1.455,1.791,0,4,0Z" transform="translate(792 52) rotate(180)"/><path class="a" d="M324.743,80.885a1.02,1.02,0,0,0,1.018-1.016V76.888a1.02,1.02,0,0,0-1.013-1.015h-2.594a1.438,1.438,0,0,1-1.3-.972L318.9,70.155a1.413,1.413,0,0,1,.223-1.6l1.832-1.831a1.018,1.018,0,0,0,0-1.433l-2.107-2.11a1.027,1.027,0,0,0-1.436,0l-1.827,1.832a1.418,1.418,0,0,1-1.6.218l-4.749-1.972a1.43,1.43,0,0,1-.974-1.3v-2.57a1.014,1.014,0,0,0-1.017-1.011h-2.976a1.015,1.015,0,0,0-1.016,1.011v2.567a1.434,1.434,0,0,1-.972,1.3l-4.759,1.963a1.4,1.4,0,0,1-1.6-.221l-1.817-1.815a1.027,1.027,0,0,0-1.436,0l-2.107,2.1a1.025,1.025,0,0,0,0,1.438l1.819,1.819a1.418,1.418,0,0,1,.221,1.6L290.634,74.9a1.427,1.427,0,0,1-1.3.972h-2.564a1.022,1.022,0,0,0-1.014,1.015v2.981a1.019,1.019,0,0,0,1.014,1.013h2.569a1.431,1.431,0,0,1,1.293.975l1.973,4.75a1.412,1.412,0,0,1-.215,1.6l-1.83,1.829a1.02,1.02,0,0,0,0,1.434l2.107,2.111a1.025,1.025,0,0,0,1.436,0l1.832-1.838a1.421,1.421,0,0,1,1.6-.219l4.747,1.958a1.434,1.434,0,0,1,.972,1.3v2.59a1.016,1.016,0,0,0,1.016,1.014h2.976a1.015,1.015,0,0,0,1.017-1.014V94.771a1.435,1.435,0,0,1,.974-1.3l4.737-1.962a1.422,1.422,0,0,1,1.6.218l1.84,1.846a1.025,1.025,0,0,0,1.436,0l2.107-2.111a1.02,1.02,0,0,0,0-1.434l-1.842-1.843a1.411,1.411,0,0,1-.22-1.6l1.958-4.733a1.435,1.435,0,0,1,1.295-.975Zm-19,5.208a7.727,7.727,0,1,1,7.726-7.729A7.734,7.734,0,0,1,305.748,86.093Z" transform="translate(1.984 -51.88)"/><g transform="translate(338 7.623)"><g class="c"><path class="a" d="M20.6,32.154a16.681,16.681,0,0,0-4.4-3.319c-.64,4.8-1.959,6.879-3.439,8.839l-2.88-2.96c2.4-3.2,2.76-5.519,2.88-11.558h-1.28v-2.8L10,22.956a18.753,18.753,0,0,1-1.84-4.039v18.8H4.4v-15.8A30.43,30.43,0,0,1,2,29.035L0,23.676A34.323,34.323,0,0,0,4.159,11.358H.44V7.479H4.4V.24H8.158V7.479h2.6v3.879h-2.6V12.8a25.255,25.255,0,0,0,3.76,6.759H22.756A129.943,129.943,0,0,1,21.436.24h4c0,1.84,0,2.879.08,5.24L27.435,3.2c.36.361.48.441.64.6A25.265,25.265,0,0,0,30.355.04l3,1.04a31.779,31.779,0,0,1-3.279,4.679c.479.52.88.92,1.359,1.519a42.5,42.5,0,0,0,2.64-3.8l2.64,1.279a68.208,68.208,0,0,1-6.559,8.279c2.319-.08,3-.12,4.119-.24-.36-.88-.52-1.279-.8-1.92l2.68-.96a25.81,25.81,0,0,1,2.279,6.159l-2.879,1.16c-.28-1.16-.36-1.4-.48-1.839-1.04.16-2.2.24-3.16.32.84.519,1.04.68,2.88,2.039l-1.56,1.8h4.759v3.6H27.435a36.493,36.493,0,0,0,1.36,4.919,20.216,20.216,0,0,0,3.44-4.279l3.559,1.479a22.755,22.755,0,0,1-5.319,6.52c.44.8,1.36,2.079,2.359,2.079s2-2.959,2.48-4.6l3,2.68c-1.4,4.639-2.879,5.8-5.359,5.8-2.839,0-4.439-1.2-5.719-3.56a28.116,28.116,0,0,1-7.719,3.4l-1.559-3.48a21.019,21.019,0,0,0,7.639-3.4,47.551,47.551,0,0,1-2.2-7.559H16.557c0,.96,0,1.48-.04,2.32a23.333,23.333,0,0,1,6.279,3.4Zm-9.918-18.4c.76-.8,1.64-1.8,3.2-3.68A38.543,38.543,0,0,0,9.558,5.6l2.2-2.44c.36.281.64.481.84.641A21.833,21.833,0,0,0,15.037.04l3,1.08a21.508,21.508,0,0,1-3.359,4.6c.439.48.839.92,1.359,1.6C17.437,5.44,18,4.6,18.677,3.6l2.6,1.6A97.261,97.261,0,0,1,14.4,13.678c1-.04,2.52-.08,3.48-.16-.28-.76-.44-1.2-.72-1.8l2.72-.96a24.442,24.442,0,0,1,2,6.079l-2.959,1a15.311,15.311,0,0,0-.32-1.68c-.16,0-7.559.68-8.239.76l-.44-3.159Zm18.8-4a22.369,22.369,0,0,0-3.96-4.04c.04,1.8.241,5.319.44,7.479h.52a34.481,34.481,0,0,0,3-3.439m.6,6.078c-.48.04-3.6.24-3.8.24.159,1.44.4,3,.479,3.48h5.32a23.726,23.726,0,0,0-3.28-2.119Z"/><path class="a" d="M61.157,24.036V36.914H47.24V27.755c-.6.24-.841.32-1.32.52l-1.6-3.8a28.6,28.6,0,0,0,9.918-5.2H44.6V15.638H57.518a17.557,17.557,0,0,0,2-3.68H46.839V1.359H60.877v10.6H60.4l3.32.88a22.907,22.907,0,0,1-1.36,2.8h19.4v3.638H71.715c2.68,2.76,6.919,4.36,10.719,5.36l-1.92,3.559a14.588,14.588,0,0,1-1.4-.479v9.2h-14.4V24.036h7.038a23,23,0,0,1-5.318-4.76h-6.72a28.266,28.266,0,0,1-5.4,4.76ZM57.2,4.64H50.439V8.719H57.2Zm.4,22.555H50.839v6.359H57.6Zm22-15.237H65.156V1.359H79.594ZM75.555,27.195H68.316v6.359h7.239ZM76,4.64H68.8V8.719H76Z"/><path class="a" d="M103.877,10.758H88.4V7.119h15.478Zm-1.44-5.679H89.679v-3.6h12.758Zm0,11.4H89.679v-3.6h12.758Zm0,5.8H89.679v-3.64h12.758Zm0,14.758H89.679V24.676h12.758Zm-3.519-9.079H93.239v5.68h5.679ZM119.874,1.48V9.958c0,.441,0,1,.92,1h.8c.72,0,.84-.68.88-.96a44.316,44.316,0,0,0,.36-4.679l3.68.8c-.161,7.079-1.16,8.719-3.96,8.719h-3.8a2.436,2.436,0,0,1-2.76-2.56V5.4h-5.279c-.48,6.318-2.919,8.678-4.839,10.158l-3.08-3.04c3.48-2.2,4.16-6.118,4.16-11.038Zm5.08,36.234a32.743,32.743,0,0,1-10.238-4.64,22.584,22.584,0,0,1-9.559,4.64l-2.24-3.88a24.34,24.34,0,0,0,8.479-3.319,21.384,21.384,0,0,1-5.519-7.2L109.157,22a18.868,18.868,0,0,0,5.238,6.239,19.115,19.115,0,0,0,5-6.958H104.317v-4h19.357v4a27.59,27.59,0,0,1-6,9.118,38.64,38.64,0,0,0,9,3.439Z"/><path class="a" d="M149.157,15.438H139v-4h24.515v4H153.276v5.8h12.4V25.2h-12.4v7.279a17.741,17.741,0,0,0,2.68.16h14.4l-.841,4.039H154.2c-4.159,0-8.919-.96-13.758-7.079a22.331,22.331,0,0,1-5.759,7.879l-2.559-3.759c3.8-3.12,6.678-9.36,7.318-16.038l4.24.64a34.541,34.541,0,0,1-1.64,7.359c2.6,3.519,4.639,5,7.119,5.879ZM153.4,0V3.56h15.677v9.158h-4.119v-5.2H137.559v5.2h-4.12V3.56H149V0Z"/></g></g></svg>