<svg xmlns="http://www.w3.org/2000/svg" width="800" height="66" viewBox="0 0 800 66"><defs><style>.a{fill:#dbdbdb;}</style></defs><rect width="800" height="66"/><path class="a" d="M9.519-6.144a19.938,19.938,0,0,1-3.48-3.6A19.754,19.754,0,0,0,8.8-14.64v-1.824H5.927v-3.768H4.121v3.768H.909v1.824H6.931A15.6,15.6,0,0,1,.552-7.152L1.31-5.136a19.044,19.044,0,0,0,2.81-2.376v9.5H5.927v-9.6a18.722,18.722,0,0,0,2.543,3ZM9.05-8.136a13.214,13.214,0,0,0,1.963-2.808L9.608-11.952A11.793,11.793,0,0,1,7.756-9.144ZM16.79,1.992c1.717,0,2.877-.168,3.5-2.424.758-2.832.781-16.152.781-18.5H9.541v1.872h3.747c-.045,8.544-.669,13.056-5.6,17.4L9.006,1.92c5.242-4.512,6-9.648,6.134-18.984h4.1a126.131,126.131,0,0,1-.669,15.552c-.245,1.176-.691,1.488-1.985,1.464L14-.1l.446,2.088Zm8.164-22.224v2.472H23.5v1.776h1.45v9.792H23.169v1.728H34.455V-6.192h-1.45v-9.792h1.45V-17.76h-1.45v-2.472H31.288v2.472H26.649v-2.472Zm6.335,10.176H26.649v-2.208h4.639Zm0-3.792H26.649v-2.136h4.639Zm0,7.656H26.649V-8.5h4.639Zm11.8-13.3H35.415v8.928c0,6.168-.825,8.448-2.744,11.208l1.472,1.3A15.867,15.867,0,0,0,36.864-5.4h4.461V-.552c0,.6-.223.72-.647.7L38.336.072l.335,1.968h2.654c1.048,0,1.762-.264,1.762-1.776Zm-1.762,6.12H37.154v-4.344h4.171Zm0,6.192h-4.26c.067-1.8.089-2.544.089-3.384v-1.032h4.171ZM24.151,2.04a16.084,16.084,0,0,0,3.569-5.208l-1.584-.84A13.392,13.392,0,0,1,22.924.576ZM33.162-.936a14.794,14.794,0,0,0-2.3-3L29.638-2.9A22.061,22.061,0,0,1,31.868.288ZM50.292-14.28A28.412,28.412,0,0,0,52.411-19.9l-1.829-.336a22.066,22.066,0,0,1-5.465,9.96L46.143-8.16A15.01,15.01,0,0,0,48.4-10.944V2.04h1.9ZM64.5-15.84a24.4,24.4,0,0,1-7.316,4.272v-8.688H55.311V-.408c0,1.872,1.271,1.992,2.141,1.992h6.156c1.182,0,2.565,0,2.587-5.832l-1.918-.5c-.022,4.368-.379,4.368-1.2,4.368H58.166c-.87,0-.981-.192-.981-1.056V-9.552a28.572,28.572,0,0,0,8.565-4.656ZM78.664.744A11.1,11.1,0,0,0,84.82-1.632a10.031,10.031,0,0,0,2.989-7.512c0-4.056-1.941-9.432-9.167-9.432-5.888,0-10.3,4.176-10.3,10.7,0,3.96,1.829,6.744,4.015,6.744,1,0,2.431-.552,3.747-2.784,2.3-3.96,2.744-9.864,2.944-12.648,6.134.216,6.669,5.5,6.669,7.392,0,6.864-5.42,7.56-7.717,7.824ZM77.058-16.464c-.223,2.76-.58,7.632-2.454,11.088-.58,1.056-1.249,1.944-2.186,1.944-1.584,0-2.141-2.76-2.141-4.392a8.918,8.918,0,0,1,3.1-7.1A8.074,8.074,0,0,1,77.058-16.464Zm23.665,14.28a28.584,28.584,0,0,0-3.39-4.752,26.756,26.756,0,0,0,1.807-7.8h1.45v-1.92H96.418V-20.28H94.567v3.624H90.084v1.92h7.16A21.918,21.918,0,0,1,95.928-8.52a44.519,44.519,0,0,0-3.948-3.864l-1.294,1.392A34.89,34.89,0,0,1,95.1-6.648,18.493,18.493,0,0,1,89.838-.24l1.249,1.776a22.676,22.676,0,0,0,5.353-6.552,30.977,30.977,0,0,1,2.744,4.08Zm7.985-18.1h-1.9v4.608h-5.777v1.992h5.777v13.1c0,.576-.178.552-.714.552l-3.524-.024.468,2.064h3.39c1.762,0,2.275-.768,2.275-2.064V-13.68h2.052v-1.992h-2.052Zm-3.48,15.5a33.319,33.319,0,0,0-3.078-6.432l-1.673.96a27.884,27.884,0,0,1,2.944,6.408Zm7.606,6.168a30.341,30.341,0,0,0,10.974-4.7,10.655,10.655,0,0,1,.134,1.536c0,1.632-.4,1.872-1.517,1.872h-2.253l.379,1.92h2.253c2.052,0,2.9-.72,2.9-3.768a8.667,8.667,0,0,0-3.123-7.008,8,8,0,0,0,1.138-.84,18.17,18.17,0,0,0,8.565,10.656l1.048-1.848a14.359,14.359,0,0,1-5.8-4.752A24.708,24.708,0,0,0,131.5-8.3L130.1-9.576a14.131,14.131,0,0,1-3.48,2.664,16.788,16.788,0,0,1-1.405-2.88h6.312v-5.784h-5.063a14.435,14.435,0,0,0,1.717-1.776v-1.56h-8.141c.335-.408.513-.624.848-1.08l-1.963-.408a13.889,13.889,0,0,1-6.87,4.776l.8,1.68c.468-.216.491-.216,1.182-.552v4.7h7.227c-3.056,1.968-7.338,2.616-8.654,2.832l.558,1.68a25.943,25.943,0,0,0,8.141-2.688,5.218,5.218,0,0,1,.8.768,22.756,22.756,0,0,1-9.7,3.552l.6,1.752A26.448,26.448,0,0,0,123.006-6a5.746,5.746,0,0,1,.446,1.08c-2.1,1.608-5.375,3.456-11.219,4.56Zm12.8-18.768a9.792,9.792,0,0,1-1.807,1.8h-7.784a18.079,18.079,0,0,0,2.431-1.8Zm-3.747,6.024h-6.112v-2.712h6.112Zm7.874,0h-6.178v-2.712h6.178Zm13.851-4.824v3.12h2.81v-3.12Zm0,10.992v3.12h2.81v-3.12ZM177.7-19.44H156.909v1.824h9.524v2.448h-5V-2.64h11.777V-15.168h-5.041v-2.448H177.7ZM166.433-9.864h-3.279v-3.672h3.279Zm5.041,0h-3.3v-3.672h3.3ZM166.433-4.3h-3.279v-3.96h3.279Zm5.041,0h-3.3v-3.96h3.3ZM157.757-15.5V1.512h19.16V-15.5h-1.829V-.264H159.541V-15.5Zm42.2-3.84H179.236v1.776h9.39a17.5,17.5,0,0,1-.758,2.952h-7.606V1.512H199V-14.616h-9.3a21.027,21.027,0,0,0,.825-2.952h9.435ZM185.125-.216h-3.056V-12.888h3.056Zm7.227-9.7h-5.487v-2.976h5.487Zm0,4.728h-5.487V-8.256h5.487Zm0,4.968h-5.487V-3.552h5.487Zm4.862,0h-3.1V-12.888h3.1Zm15.279.96a11.1,11.1,0,0,0,6.156-2.376,10.031,10.031,0,0,0,2.989-7.512c0-4.056-1.941-9.432-9.167-9.432-5.888,0-10.3,4.176-10.3,10.7,0,3.96,1.829,6.744,4.015,6.744,1,0,2.431-.552,3.747-2.784,2.3-3.96,2.744-9.864,2.944-12.648,6.134.216,6.669,5.5,6.669,7.392,0,6.864-5.42,7.56-7.717,7.824Zm-1.606-17.208c-.223,2.76-.58,7.632-2.454,11.088-.58,1.056-1.249,1.944-2.186,1.944-1.584,0-2.141-2.76-2.141-4.392a8.918,8.918,0,0,1,3.1-7.1A8.074,8.074,0,0,1,210.887-16.464Zm20.944-2.712h-7.45V-2.3h7.45Zm-1.717,7.344h-3.993v-5.52h3.993Zm0,7.68h-3.993v-5.88h3.993Zm13.851-15.432h-9.881V-8.856c0,6.144-2.208,7.944-4.483,9.312l1.294,1.56a10.8,10.8,0,0,0,4.8-7.776h6.468V-.6c0,.648-.245.7-.669.7L238.7.072l.4,1.968h2.922c1.829,0,1.941-1.224,1.941-1.992Zm-1.807,5.88h-6.268v-4.1h6.268Zm0,6.12h-6.312c.045-.672.045-.72.045-1.2v-3.144h6.268ZM261.5-18.744c-5.331.336-7.16.36-11.889.36v2.064c3.636-.072,4.952-.12,8.744-.408-4.193,4.056-9.3,8.472-11.019,9.912l1.16,1.8c3.056-3.12,5.955-5.5,9.9-5.5,4.283,0,4.639,3,4.639,4.272a4.622,4.622,0,0,1-2.587,4.416c-1.093-4.44-4.55-4.7-5.331-4.7a3.518,3.518,0,0,0-3.77,3.384c0,2.28,2.208,3.984,5.755,3.984,4.171,0,7.918-2.424,7.918-7.128,0-4.08-2.632-6.024-5.911-6.024a11.155,11.155,0,0,0-3.993.816c1.472-1.248,1.784-1.512,4.639-3.984.558-.48,1.249-1.08,1.74-1.464ZM258.776-1.08a6.074,6.074,0,0,1-1.74.216c-2.5,0-3.926-1.152-3.926-2.328a1.75,1.75,0,0,1,1.941-1.584C256.991-4.776,258.285-3.36,258.776-1.08ZM285.229-7.2a22.2,22.2,0,0,1-3.569-6.288,33.78,33.78,0,0,0,6.312-.744l-.357-2.064a34.123,34.123,0,0,1-6.6.864,29.241,29.241,0,0,1-.8-3.984l-2.119.168a38.18,38.18,0,0,0,.87,3.888c-.558.024-1.762.048-2.7.024l-6.513-.12v2.088h6.424c.335,0,2.052-.024,3.413-.048a26.308,26.308,0,0,0,3.926,7.464ZM273.988-9.168c-2.275,1.2-3.234,2.928-3.234,4.68a4.456,4.456,0,0,0,1.316,3.24c1.561,1.512,3.77,1.992,7.673,1.992a50.14,50.14,0,0,0,5.822-.288l-.022-2.136a39.215,39.215,0,0,1-5.978.408c-3.19,0-6.8-.312-6.8-3.24,0-.456.112-1.944,2.3-3.1ZM297.207-.216a37.129,37.129,0,0,0-3.97-4.824l-1.7,1.344a34.422,34.422,0,0,1,3.7,4.968Zm17.242-17.112v2.088h13.874c-1,8.832-5.085,12.864-12.089,13.992l.959,2.04a14.771,14.771,0,0,0,9.547-5.544c2.409-3.1,3.033-6.216,3.591-9.528l-2.454-3.048Zm16.461-3.024a18.939,18.939,0,0,1,2.409,4.44l1.472-1.032a20.368,20.368,0,0,0-2.5-4.368Zm-3.234.792a19.852,19.852,0,0,1,2.565,4.368l1.428-1.1a20.691,20.691,0,0,0-2.677-4.272Zm14.074,7.1h7.271v3.144c0,2.3,0,7.656-8.61,8.4l.758,2.064c9.279-1.248,9.859-6.936,9.859-10.464v-3.144h4.037V-14.52H350.94l-.067-4.728h-1.851v4.728H341.75v-4.608H339.7v4.608h-3.636v2.064H339.7V-6.12h2.052Zm9.5-8.016a21.7,21.7,0,0,1,.981,4.968l1.717-.384a23.131,23.131,0,0,0-1.115-4.992Zm3.1-.384a20.066,20.066,0,0,1,1.048,4.944l1.7-.408a22.456,22.456,0,0,0-1.16-4.992Zm4.126,10.584v2.28h19.182v-2.28Zm39.837.792H382.367V1.584h15.948Zm-1.851,4.632H384.2V-7.776h12.268Zm0,4.728H384.2V-3.168h12.268ZM384.308-16.464c.312.984.714,2.76.848,3.384H380.07v1.752h20.61V-13.08h-5.2c.424-1.32.647-2.088.981-3.384H399.5V-18.24h-8.208v-2.04h-1.874v2.04H381.23v1.776Zm2.721,3.384c-.2-1.008-.6-2.688-.781-3.384H394.5a25.826,25.826,0,0,1-.959,3.384Zm33.814,2.76H404.605V-4.2h7.249v1.32h-7.874v1.368h7.874V-.1h-9.48v1.56h20.654V-.1h-9.5V-1.512h7.9V-2.88h-7.9V-4.2h7.316Zm-1.717,2.448h-5.6V-9.144h5.6Zm0,2.424h-5.6v-1.3h5.6Zm-7.271-2.424h-5.509V-9.144h5.509Zm0,2.424h-5.509v-1.3h5.509ZM404.271-19.7v5.976h16.863V-19.7Zm15.145,2.544H405.988v-1.1h13.428Zm0,2.208H405.988V-16.08h13.428ZM402.375-11.4h20.654v-1.272H402.375ZM431.036-.216a37.127,37.127,0,0,0-3.97-4.824l-1.7,1.344a34.423,34.423,0,0,1,3.7,4.968ZM449.46-9.192a13.991,13.991,0,0,0,2.833-2.424,32.675,32.675,0,0,1,7.093,4.968,18.341,18.341,0,0,1-9.658,5.712l.959,1.992C464.07-2.688,465.23-14.16,465.631-18.072H454.1a15.538,15.538,0,0,1-5.955,7.2Zm13.874-6.888a18.228,18.228,0,0,1-2.721,7.8,33.99,33.99,0,0,0-7.093-4.776,19.467,19.467,0,0,0,1.918-3.024Zm7.249-1.248v2.088h13.874c-1,8.832-5.086,12.864-12.089,13.992l.959,2.04a14.77,14.77,0,0,0,9.546-5.544c2.409-3.1,3.033-6.216,3.591-9.528l-2.454-3.048Zm16.461-3.024a18.94,18.94,0,0,1,2.409,4.44l1.472-1.032a20.371,20.371,0,0,0-2.5-4.368Zm-3.234.792a19.855,19.855,0,0,1,2.565,4.368l1.428-1.1a20.693,20.693,0,0,0-2.677-4.272Zm9.457,1.848V1.56h17.242V-17.712h-8.677a23.657,23.657,0,0,0,.915-2.448l-1.941-.24c-.112.36-.424,1.512-.87,2.688ZM508.635-6.264H495.118V-10.3h13.517Zm0-5.808H495.118v-3.816h13.517Zm0,11.808H495.118V-4.512h13.517ZM528.219-13.44a37.48,37.48,0,0,1-.424,5.472A16.671,16.671,0,0,1,525.453-.7v-.816c-1.472.216-3.256.48-4.818.624V-2.712h4.818V-4.2h-4.818V-5.712h4.55v-7.872h-4.55v-1.368h5.108v-1.512h-5.108v-1.584a32.713,32.713,0,0,0,4.372-.744l-.736-1.464a41.745,41.745,0,0,1-10.171,1.08l.312,1.488c.87-.024,1.918-.048,4.639-.216v1.44h-5.2v1.512h5.2v1.368h-4.483v7.872h4.483V-4.2h-4.684v1.488h4.684V-.744c-2.766.24-4.327.312-5.242.336l.223,1.8A103.76,103.76,0,0,0,524.9.168c-.112.12-.312.432-.468.624l1.606,1.224a15.823,15.823,0,0,0,3.033-6.6,42.022,42.022,0,0,0,.959-8.856h2.3c0,3.24-.178,9.072-.58,12.192-.112.96-.379,1.368-1.249,1.344L528.308.048l.357,1.944h2.253c1.784,0,2.387-.648,2.744-3.432.357-2.856.424-10.608.424-13.92h-4.06v-4.9h-1.807v4.9h-2.007v1.92ZM519.052-10.3H516.2v-1.872h2.855Zm0,3.192H516.2V-9h2.855Zm4.483-3.192h-2.9v-1.872h2.9Zm0,3.192h-2.9V-9h2.9Zm63.011-2.352c0,5.976,4.126,9.84,9.123,9.84,5.019,0,9.1-3.912,9.1-9.84s-4.082-9.84-9.1-9.84C590.673-19.3,586.546-15.432,586.546-9.456Zm2.074,0c0-4.032,2.788-7.776,7.048-7.776s7.026,3.768,7.026,7.776-2.766,7.776-7.026,7.776S588.621-5.424,588.621-9.456Zm18.848-9.456V0h2.074V-16.608L619.6,0h3.056V-18.912h-2.074V-2.3l-10.06-16.608Zm25.807,0L624.8,0h1.784l8.476-18.912Zm3.234,9.456c0,5.976,4.126,9.84,9.123,9.84,5.019,0,9.1-3.912,9.1-9.84s-4.082-9.84-9.1-9.84C640.636-19.3,636.509-15.432,636.509-9.456Zm2.074,0c0-4.032,2.788-7.776,7.048-7.776s7.026,3.768,7.026,7.776-2.766,7.776-7.026,7.776S638.583-5.424,638.583-9.456ZM659.528-10.7v-6.144h8.52v-2.064H657.431V0h2.1V-8.664h7.784V-10.7Zm13.628,0v-6.144h8.52v-2.064H671.059V0h2.1V-8.664h7.784V-10.7Z" transform="translate(43.448 29)"/><path class="a" d="M189.757-9.84A28.479,28.479,0,0,1,181.1-12a16.3,16.3,0,0,0,5.487-4.872v-1.7H177c.424-.576.6-.84,1-1.44l-2.1-.288c-.8,1.1-2.476,3.456-7.405,5.544l.892,1.7a24.632,24.632,0,0,0,3.993-2.232,19.088,19.088,0,0,0,3.747,3.24A39.167,39.167,0,0,1,168.456-9.7l.669,1.92a43.79,43.79,0,0,0,9.926-3.12,30.085,30.085,0,0,0,10.082,3.072Zm-5.6-6.984a14.106,14.106,0,0,1-4.974,3.84,21.944,21.944,0,0,1-4.394-3.384,3.777,3.777,0,0,0,.513-.456Zm2.766,9.288h-15.5v9.1h15.5Zm-1.9,7.3H173.3V-5.808h11.732ZM211.75-4.68h-7.093V-6.144h5.933v-7.368h-5.933v-1.464h4.416v-1.488h-4.416V-18.1h4.952v2.616h1.762v-4.2H196.337v4.2h1.717V-18.1h4.885v1.632H198.59v1.488h4.349v1.464h-5.866v7.368h5.866V-4.68h-6.781v1.512h6.781V-1.1h1.717V-3.168h7.093Zm-2.855-5.832h-4.238v-1.656h4.238Zm0,2.952h-4.238V-9.24h4.238Zm-5.955-2.952h-4.216v-1.656h4.216Zm0,2.952h-4.216V-9.24h4.216Zm-7.026-8.568a18.162,18.162,0,0,0-3.323-3.744l-1.249,1.2a18.949,18.949,0,0,1,3.167,3.816Zm-4.706,5.184v1.9h2.208V-2.28a11.337,11.337,0,0,1-2.454,2.232l.915,2.04A22.268,22.268,0,0,0,194.8-1.176c1,1.224,2.431,2.568,6,2.568H211.75l.312-1.848H200.8c-4.238,0-5.576-2.64-5.576-3.528v-6.96Zm22.528-7.44v1.728h4.1v1.728h-3.68v9.216h3.68V-3.84h-4.327v1.8h4.327V2.016h1.628V-2.04h4.26v-1.8h-4.26V-5.712h3.725v-9.216h-3.725v-1.728h4.1v-1.728h-4.1v-1.848h-1.628v1.848Zm4.1,7.368h-2.186v-2.328h2.186Zm0,3.7h-2.186V-9.6h2.186Zm3.836-3.7h-2.208v-2.328h2.208Zm0,3.7h-2.208V-9.6h2.208Zm8.454.216A42.145,42.145,0,0,1,231.735-1.9c-2.654.456-2.7.48-4.974.744a81.9,81.9,0,0,0,1.628-9.144h5.732v-1.872H223.906V-10.3h2.721A70.712,70.712,0,0,1,225.021-.96c-1.271.144-1.405.144-1.851.192l.4,1.9c2.632-.288,7.338-1.056,8.543-1.3.134.648.2,1.128.335,2.112l1.762-.6a43.53,43.53,0,0,0-2.52-8.952Zm3.5-11.688h-9.078v1.824h9.078ZM246.656.744a11.1,11.1,0,0,0,6.156-2.376A10.031,10.031,0,0,0,255.8-9.144c0-4.056-1.941-9.432-9.167-9.432-5.888,0-10.3,4.176-10.3,10.7,0,3.96,1.829,6.744,4.015,6.744,1,0,2.431-.552,3.747-2.784,2.3-3.96,2.743-9.864,2.944-12.648,6.134.216,6.669,5.5,6.669,7.392,0,6.864-5.42,7.56-7.717,7.824ZM245.05-16.464c-.223,2.76-.58,7.632-2.454,11.088-.58,1.056-1.249,1.944-2.186,1.944-1.584,0-2.141-2.76-2.141-4.392a8.918,8.918,0,0,1,3.1-7.1A8.074,8.074,0,0,1,245.05-16.464Zm39.7-2.448V0h2.074V-16.608L296.887,0h3.056V-18.912h-2.074V-2.3L287.809-18.912Zm25.807,0L302.084,0h1.784l8.476-18.912Zm3.234,9.456c0,5.976,4.126,9.84,9.123,9.84,5.019,0,9.1-3.912,9.1-9.84s-4.082-9.84-9.1-9.84C317.92-19.3,313.794-15.432,313.794-9.456Zm2.074,0c0-4.032,2.788-7.776,7.048-7.776s7.026,3.768,7.026,7.776-2.766,7.776-7.026,7.776S315.868-5.424,315.868-9.456ZM336.812-10.7v-6.144h8.52v-2.064H334.716V0h2.1V-8.664H344.6V-10.7Zm13.628,0v-6.144h8.52v-2.064H348.344V0h2.1V-8.664h7.784V-10.7ZM367.919-.216a37.132,37.132,0,0,0-3.97-4.824l-1.7,1.344a34.422,34.422,0,0,1,3.7,4.968ZM398.789-20.3c0,1.584,0,4.92.089,7.728h-2.052c.29-1.824.4-2.472.58-4.056h.8V-18.24h-2.788V-20.3H393.7v2.064h-2.989v1.608h.981c.223,1.632.357,2.712.446,4.056H390.67v1.7h8.275a47.572,47.572,0,0,0,.914,7.728A14.43,14.43,0,0,1,397.651-.6V-9.024h-6.357V.24h5.353c-.134.1-.2.144-.468.36l1.093,1.392a18.049,18.049,0,0,0,3.19-3.168c.535,1.44,1.182,3.048,2.342,3.048,1.338,0,1.829-2.592,2.074-4.656L403.5-3.36c-.156,1.248-.335,2.856-.736,2.856s-.914-1.7-1.138-2.472a27.762,27.762,0,0,0,2.52-6.288l-1.584-.6a29.4,29.4,0,0,1-1.472,4.416,37.093,37.093,0,0,1-.513-5.424H404.5v-1.7h-3.993c-.045-1.44-.045-2.064-.045-7.728Zm-2.7,15.1h-3.234V-7.56h3.234Zm0,3.96h-3.234V-3.84h3.234Zm-2.409-11.328c-.268-2.376-.29-2.64-.491-4.056h2.677c-.134,1.128-.379,2.976-.58,4.056Zm-9.256-7.1v1.7h5.621v-1.7ZM388.462,0h-2.431V-4.248h2.431Zm-4.037-9.36v1.728h5.621V-9.36Zm.022,3.48V1.584h5.6V-5.88Zm-.6-10.344V-14.5h6.647v-1.728Zm.58,3.408v1.7h5.554v-1.7Zm20.007-2.136a22.791,22.791,0,0,0-1.762-4.176l-1.494.6a22.756,22.756,0,0,1,1.651,4.248Zm6.513,5.928c.089-1.1.112-1.776.134-2.472h6.156V-19.44H406.8V-11.5h2.476c-.134,6.216-1.093,9.528-3.39,11.976l1.427,1.536c2.208-2.712,3.033-5.424,3.457-9.192h4.282a42.563,42.563,0,0,1-.535,6.456c-.178.672-.4.864-1.16.864L411.1.12l.379,1.9h2.052A2.343,2.343,0,0,0,416.1.456c.669-1.728.825-8.688.825-9.48Zm4.528-4.224h-6.937v-4.44h6.937Zm3.9-5.616V-3.456h1.851V-18.864Zm4.8-1.392V-.864c0,.552,0,.84-.6.84l-2.833-.024.335,2.064h2.989c1.316,0,1.963-.576,1.963-1.968v-20.3Zm20.052,2.376a16.2,16.2,0,0,1-1.338,3.192h-3.3v-2.976a58.784,58.784,0,0,0,8.007-1.008l-.825-1.728a84.926,84.926,0,0,1-17.353,1.368l.357,1.7c3.078-.048,3.591-.048,8.119-.24v2.88h-3.413a14.637,14.637,0,0,0-1.16-2.448l-1.651.48a20.845,20.845,0,0,1,1.026,1.968h-4.216v1.632h7.517a16.735,16.735,0,0,1-7.717,4.56L429.1-6.72a14.775,14.775,0,0,0,1.472-.576V1.512h16.439V-7.3c.312.144.424.216,1.561.7l.8-1.848a17.1,17.1,0,0,1-7.918-4.608h7.651v-1.632H444.67c.825-1.608,1.115-2.328,1.316-2.808ZM437.889-6.864v2.616h-5.554V-6.864Zm7.361,0v2.616h-5.665V-6.864Zm-7.361,4.08V-.1h-5.554V-2.784Zm7.361,0V-.1h-5.665V-2.784Zm-5.665-5.664V-12.96a14.1,14.1,0,0,0,5.13,4.512Zm-6.781,0a16.624,16.624,0,0,0,5.085-4.464v4.464Zm23.018,2.016a25.233,25.233,0,0,0,1.138-2.544h14.453v-1.8H450.781v1.8h4.171a29.331,29.331,0,0,1-2.23,4.344H467.2C466.863,0,465.9.024,465.146.024L461.532,0l.424,2.04h3.368A2.841,2.841,0,0,0,468.112.384c.669-1.3,1.093-6.192,1.138-6.816ZM469.205-19.44h-16.26v6.576h16.26Zm-1.807,4.8H454.774v-3.072H467.4Z" transform="translate(31.448 56.999)"/><path class="a" d="M313.794-9.456c0,5.976,4.126,9.84,9.123,9.84,5.019,0,9.1-3.912,9.1-9.84s-4.082-9.84-9.1-9.84C317.92-19.3,313.794-15.432,313.794-9.456Zm2.074,0c0-4.032,2.788-7.776,7.048-7.776s7.026,3.768,7.026,7.776-2.766,7.776-7.026,7.776S315.868-5.424,315.868-9.456Z" transform="translate(-18.552 56.999)"/><path class="a" d="M2.873-13.536l-2.3.408.112,1.944,2.186-.384v7.68c0,1.152.558,1.752,1.606,1.752h2.61c1.829,0,2.253-1.9,2.61-5.04L7.892-7.632c-.045.912-.2,3.648-1.16,3.648H5.349c-.558,0-.669-.168-.669-.7v-7.2l4.907-.864-.112-1.968-4.8.84v-6.36H2.873ZM8.962-19.2v1.944h3.992c0,8.424-.714,13.824-7.226,17.568L7.022,2.04c6.178-4.056,7.717-8.808,7.806-19.3h4.215c0,2.736,0,14.5-1.182,16.56a1.417,1.417,0,0,1-1.338.648L13.2-.072l.4,2.04h3.234A2.754,2.754,0,0,0,19.69.264c1.227-2.832,1.227-13.608,1.227-19.464ZM25.356-7.968v9.6H41.637v-9.6ZM39.786-6.312V-4.08H27.207V-6.312Zm0,3.768v2.5H27.207v-2.5ZM32.225-9.888a9.752,9.752,0,0,1-2.743-3.36h3.412v-1.608H29.08a9.417,9.417,0,0,0,.134-1.68v-.432h3.279v-1.656H29.214V-20.28h-1.7v1.656H23.638v1.656h3.881v.432a9.071,9.071,0,0,1-.134,1.68H23.148v1.608h3.792a7.939,7.939,0,0,1-4.059,4.3l1.026,1.728a9.834,9.834,0,0,0,4.372-4.8,12.231,12.231,0,0,0,2.743,3.576Zm11.91.864a8.865,8.865,0,0,1-4.3-4.224h4.037v-1.608H39.139a8.243,8.243,0,0,0,.156-1.7v-.408h4.082v-1.656H39.3V-20.28H37.6v1.656H34.188v1.656H37.6v.408a9.312,9.312,0,0,1-.156,1.7H33.853v1.608h3.033a6.775,6.775,0,0,1-3.992,3.216L34.054-8.3a8.639,8.639,0,0,0,4.394-4.2A11.586,11.586,0,0,0,43.11-7.272Z" transform="translate(579 29)"/></svg>