<svg xmlns="http://www.w3.org/2000/svg" width="800" height="72" viewBox="0 0 800 72"><defs><style>.a{fill:#dbdbdb;}.b{fill:#474645;}</style></defs><rect width="800" height="72"/><path class="a" d="M17.687-21.12a61.987,61.987,0,0,0,7.406-1.952l-1.4-2.592c-5.621,2.24-13.086,3.2-19.659,3.2l.506,2.624a76.173,76.173,0,0,0,10.469-.832v5.248H2.816v2.656H15.01C14.742-6.912,12.928-3.232,4.184-1.312L5.374,1.28c6.305-1.6,11.9-4.48,12.283-14.048h9.7v-2.656H17.687Zm23.228-3.424H38.267v8.032C38.267-8,36.513-4.352,33.211-.8l1.963,2.144c3.063-3.2,5.74-7.744,5.74-18.08Zm7.762-.9H46V.768c10.528-.992,12.967-8.32,14.276-14.72L57.748-15.1C56.142-5.248,52.335-4,48.677-2.784ZM89.927-10.752A77.393,77.393,0,0,0,75.444-17.6v-8.224H72.559V1.536h2.885v-16.16A64.992,64.992,0,0,1,88.53-7.776ZM81.451-23.52a28.169,28.169,0,0,1,3.093,6.176l2.082-1.376a29.848,29.848,0,0,0-3.212-6.08Zm4.312-2.208a27.479,27.479,0,0,1,3.093,6.176l2.082-1.376a27.172,27.172,0,0,0-3.212-6.08Z" transform="translate(270.004 51)"/><path class="b" d="M0,0H800V2H0Z"/></svg>