<svg xmlns="http://www.w3.org/2000/svg" width="800" height="180" viewBox="0 0 800 180"><defs><style>.a{fill:#070203;}.b{fill:#dbdbdb;}</style></defs><rect class="a" width="800" height="180"/><g transform="translate(-2386.305 733.634)"><path class="b" d="M467.5,104.1h-2.467V87.4a20.044,20.044,0,0,1-2.376,3.232l-1.263-2.976a30.227,30.227,0,0,0,6.046-13.375l2.526.48A35.248,35.248,0,0,1,467.5,82.63Zm1.293-3.9a22.987,22.987,0,0,0,8.783-8.8h-7.941V89h8.843V85.573h-6.888V75.366h16.3V85.573h-6.978V89h8.752v2.4h-7.91a23.708,23.708,0,0,0,8.361,8.864l-1.564,2.239a23.914,23.914,0,0,1-7.639-8.768V104.1h-2.437V93.892a23.837,23.837,0,0,1-8.241,8.544Zm16.724-22.462H474v5.5h11.52Z" transform="translate(1985 -788)"/><path class="b" d="M498.454,88.678a21,21,0,0,0-4.813-3.329l1.233-2.3a22.255,22.255,0,0,1,5.113,3.2Zm-4.783,12.8a36.784,36.784,0,0,0,5.324-10.495l2.105,1.632a45.541,45.541,0,0,1-5.745,11.359Zm6.407-21.31a30.793,30.793,0,0,0-5.023-3.488l1.353-2.144a23.469,23.469,0,0,1,5.144,3.264Zm20.543,10.271v10.335h1.173V103.2H500.408v-2.432h2.046V90.437ZM503.206,75.4h16.663V87.749H503.206Zm4.632,17.343h-3.1v8.031h3.1Zm9.625-15.071H505.582v2.816h11.881Zm-11.881,7.84h11.881V82.5H505.582Zm7.429,7.231h-3.068v8.031h3.068Zm5.324,0h-3.188v8.031h3.188Z" transform="translate(1985 -788)"/><path class="b" d="M530.639,88.678a21,21,0,0,0-4.813-3.329l1.234-2.3a22.277,22.277,0,0,1,5.113,3.2Zm-4.783,12.8a36.731,36.731,0,0,0,5.324-10.495l2.106,1.632a45.544,45.544,0,0,1-5.745,11.359Zm6.407-21.31a30.707,30.707,0,0,0-5.023-3.488l1.354-2.144a23.489,23.489,0,0,1,5.143,3.264Zm20.543,10.271v10.335h1.173V103.2H532.594v-2.432h2.045V90.437ZM535.391,75.4h16.663V87.749H535.391Zm4.632,17.343h-3.1v8.031h3.1Zm9.625-15.071H537.767v2.816h11.881Zm-11.881,7.84h11.881V82.5H537.767Zm7.429,7.231h-3.068v8.031H545.2Zm5.324,0h-3.188v8.031h3.188Z" transform="translate(1985 -788)"/><path class="b" d="M571.367,76.966v-2.56h2.526v2.56H586.1v2.368h-5.083v2.784H586.2v2.176h-5.173v5.087H567.637V84.294h-4.722v5.6c0,1.92-.03,9.215-2.948,13.983l-2.045-1.984c2.135-3.391,2.527-7.647,2.527-12.127v-12.8ZM585.323,104.1a48.277,48.277,0,0,1-10.738-2.976,33.442,33.442,0,0,1-10.918,3.008l-.993-2.432a40.987,40.987,0,0,0,9.114-2.048,15.851,15.851,0,0,1-4.963-4.223l1.985-1.312a18.9,18.9,0,0,0,5.745,4.384,12.585,12.585,0,0,0,5.414-4.672H563.907V91.493h19.04v2.336a16.076,16.076,0,0,1-5.685,5.791,41.2,41.2,0,0,0,9.174,1.92ZM567.637,79.334h-4.722v2.784h4.722Zm11.039,0h-8.693v2.784h8.693Zm0,4.96h-8.693V87.3h8.693Z" transform="translate(1985 -788)"/></g></svg>