<svg xmlns="http://www.w3.org/2000/svg" width="800" height="180" viewBox="0 0 800 180"><defs><style>.a{fill:#070203;}.b{fill:#474645;}.c{fill:#dbdbdb;}</style></defs><rect class="a" width="800" height="180"/><rect class="b" width="2" height="154" transform="translate(399 13)"/><g transform="translate(-1985 788)"><path class="c" d="M65.071,19.975h2.436v5.664h6.286c-.18,14.975-.21,19.1-.962,21.535C72.259,49,71.327,49.6,69.372,49.6H66.3l-.421-2.687,3.308.031c.692,0,1.143-.1,1.444-1.695.572-2.976.572-5.5.692-17.023h-3.82c0,12.063-2.526,17.95-6.136,21.439l-1.8-2.177c2.948-3.167,5.5-7.359,5.5-19.262H60.108V25.639h4.963ZM86.787,49.061H76.169v-27.1H86.787ZM84.32,24.455H78.575v22.11H84.32Z" transform="translate(1985 -788)"/><path class="c" d="M94.008,49.766l-1.985-1.825a14.914,14.914,0,0,0,3.729-5.918l2.136.639a17.548,17.548,0,0,1-3.88,7.1m10.768-17.119h-2.437a1.7,1.7,0,0,1-1.654-.864v2.144h4.933v2.048h-4.933v2.88c2.737-.289,3.429-.353,4.933-.609l-.06,1.792a17.52,17.52,0,0,0,3.94-7.008,23.386,23.386,0,0,0-2.436-2.431l1.233-1.824c.511.416,1.022.8,1.744,1.472.06-.608.211-1.824.3-4.128h-3.188v-2.4h3.278c.031-1.248.031-1.792,0-3.712h2.226c-.03,2.208-.03,2.848-.06,3.712h4.481c-.029,1.119-.36,8.063-.36,8.479-.03.448-.03.9-.03,1.375,0,1.12,0,4.96.842,4.96.6,0,.992-3.424,1.052-4.128l1.835.993a15.71,15.71,0,0,1-1.113,4.607c-.361.8-.9,1.664-2.015,1.664-2.045,0-2.767-2.943-2.767-7.68,0-.8.15-6.623.18-7.871h-2.195c-.151,2.432-.391,5.088-.6,6.144.842.992,1.474,1.887,2.136,2.752L112.6,37.063c-.541-.768-.872-1.248-1.414-1.953a23.971,23.971,0,0,1-4.12,7.3l-1.925-1.887.18-.193a115.089,115.089,0,0,1-12.783,1.312l-.18-2.272c1.955-.064,4.15-.192,6.075-.32V35.975H93.587V33.927h4.842V31.751h2.226a2.536,2.536,0,0,1-.12-.832v-2.88H98.279a7.756,7.756,0,0,1-5.2,5.951l-1.023-1.951c2.647-.96,3.519-2.08,4-4h-3.7V26.087h6.075V23.911H93.587V21.96h4.842V20.008h2.226V21.96h4.963v1.951h-4.963v2.176h5.865v1.952h-3.94v2.016c0,.448.121.64.571.64h1.084c.451,0,.481-.16.811-1.6l1.775.416c-.511,2.784-.872,3.136-2.045,3.136m-3.489,16.67c.06-.735.15-1.952.15-3.231,0-.641-.09-2.56-.12-3.328l2.165-.064a36,36,0,0,1,.331,6.5Zm8,0a42.435,42.435,0,0,0-1.654-6.623l2.226-.255a36.159,36.159,0,0,1,1.895,6.687Zm8.723.353a37.848,37.848,0,0,0-4.452-6.848l1.835-1.312a35.247,35.247,0,0,1,4.813,6.5Z" transform="translate(1985 -788)"/><path class="c" d="M134.134,47.4h-8.963V21.255h8.963Zm-2.286-23.678h-4.361v9.119h4.361Zm0,11.486h-4.361v9.728h4.361Zm17.295,11.712a2.316,2.316,0,0,1-2.5,2.688h-4.481l-.481-2.624,4.271.032c.511,0,.751-.032.751-.64V38.182H135.518V35.75h11.188V32.1H135.277V29.638h7.279V25.382H136.3V22.951h6.257V19.943h2.406v3.008h6.407v2.431h-6.407v4.256H152.3V32.1h-3.158V35.75h2.947v2.432h-2.947ZM140.3,45.893a25.4,25.4,0,0,0-3.97-5.375l1.865-1.473a21.451,21.451,0,0,1,4.15,5.216Z" transform="translate(1985 -788)"/><path class="c" d="M168.936,21.159V32.295h-8.752V49.67h-2.406V21.159Zm-2.345,2.112h-6.407V25.7h6.407Zm0,4.288h-6.407v2.592h6.407Zm10.767,18.622H163.643V34.5h13.715Zm-2.285-9.567H165.9V39.3h9.174Zm0,4.512H165.9V44.07h9.174Zm8.211,5.888c0,.639,0,2.656-2.106,2.656h-4.391l-.451-2.561,3.7.032c.542,0,.873-.095.873-.9V32.295h-9.024V21.159h11.4Zm-2.376-23.743h-6.677V25.7h6.677Zm0,4.288h-6.677v2.592h6.677Z" transform="translate(1985 -788)"/></g><g transform="translate(-1985 788)"><path class="c" d="M59.693,102.852a12.252,12.252,0,0,0,3.573-4.895l1.84.895a15.637,15.637,0,0,1-3.708,5.665Zm7.037-26.59V74.471h2.165v1.791h7.119V74.471h2.165v1.791h6.766V78.6H78.179v1.759H76.014V78.6H68.895v1.759H66.73V78.6H59.937V76.262ZM69.3,84.806v2.239a16.366,16.366,0,0,1-8.282,9.311l-1.082-2.431a12.807,12.807,0,0,0,7.253-6.88H59.937V84.806Zm14.968.576a29.755,29.755,0,0,1-5.359,4.351,15.735,15.735,0,0,0,5.981,4.32l-1.326,2.368a20.308,20.308,0,0,1-8.986-9.951,11.178,11.178,0,0,1-1.164.479v4.032c0,1.7-.108,3.039-2.652,3.039H68.6l-.406-2.463,2.165.032c.812,0,.947-.192.947-.928V85.094h1.272a19.982,19.982,0,0,0,4.115-2.113H64.051V80.87h16.1v2.111a22.558,22.558,0,0,1-3.871,2.624,13.907,13.907,0,0,0,1.326,2.464c3.465-2.559,4.412-3.551,5.17-4.511ZM80.777,97.221h-16.7v-2.24h16.7ZM67.84,104.132a23.674,23.674,0,0,0-.271-5.344L69.6,98.4a34.823,34.823,0,0,1,.487,5.5Zm6.577-.1a31.369,31.369,0,0,0-1.083-5.344l1.895-.479a35.117,35.117,0,0,1,1.462,5.344Zm8.742.544a23.281,23.281,0,0,0-4.087-5.056L80.534,97.8a26.092,26.092,0,0,1,4.3,4.959Z" transform="translate(1985 -788)"/><path class="c" d="M91.2,80.549c-.623,2.432-.839,4.288-.839,8.991a13.2,13.2,0,0,1,9.31-3.935c6.28,0,7.443,4.767,7.443,7.424,0,7.678-6.252,9.407-12.044,9.407a28.221,28.221,0,0,1-5.2-.448l-.27-2.816a24.677,24.677,0,0,0,5.278.575c3.735,0,6.983-.863,8.607-2.975A6.37,6.37,0,0,0,104.546,93c0-2.5-1.434-4.8-5.007-4.8A10.965,10.965,0,0,0,90.5,92.8c-.081.32-.108.416-.135.576l-2.409-.095c0-1.088.081-5.888.108-6.848a35.07,35.07,0,0,1,.7-6.4Zm11.719-.032a28.862,28.862,0,0,0-10.853-2.3l.433-2.752a37.212,37.212,0,0,1,11.1,2.017Z" transform="translate(1985 -788)"/><path class="c" d="M113.509,75.878c-.244,8.64-.352,12.447-.352,15.487,0,4.1.162,8.383,5.251,8.383,7.01,0,7.9-5.759,8.661-10.623l2.274.992c-.867,5.792-2.626,12.383-10.854,12.383-7.416,0-7.9-5.855-7.9-11.423,0-2.4.162-13.023.189-15.2Z" transform="translate(1985 -788)"/><path class="c" d="M141.232,101.828h-8.963V75.686h8.963ZM138.946,78.15h-4.361v9.119h4.361Zm0,11.486h-4.361v9.728h4.361Zm17.295,11.712a2.316,2.316,0,0,1-2.5,2.688h-4.481l-.481-2.624,4.271.032c.511,0,.751-.032.751-.64V92.613H142.616V90.181H153.8V86.533H142.375V84.069h7.279V79.813H143.4V77.382h6.256V74.374h2.406v3.008h6.407v2.431H152.06v4.256H159.4v2.464h-3.158v3.648h2.947v2.432h-2.947Zm-8.843-1.024a25.4,25.4,0,0,0-3.97-5.375l1.865-1.473a21.45,21.45,0,0,1,4.15,5.216Z" transform="translate(1985 -788)"/><path class="c" d="M173.929,75.59V86.725h-8.753V104.1H162.77V75.59ZM171.583,77.7h-6.407v2.432h6.407Zm0,4.288h-6.407v2.592h6.407Zm10.768,18.622H168.636V88.933h13.715Zm-2.286-9.567h-9.174v2.688h9.174Zm0,4.511h-9.174V98.5h9.174Zm8.211,5.888c0,.64,0,2.656-2.1,2.656h-4.392l-.451-2.56,3.7.032c.541,0,.872-.1.872-.895V86.725h-9.023V75.59h11.4ZM185.9,77.7h-6.677v2.432H185.9Zm0,4.288h-6.677v2.592H185.9Z" transform="translate(1985 -788)"/></g><g transform="translate(-1985 788)"><path class="c" d="M466.809,19.975h2.436v5.664h6.286c-.18,14.975-.21,19.1-.962,21.535C474,49,473.065,49.6,471.11,49.6h-3.068l-.421-2.687,3.309.031c.691,0,1.142-.1,1.444-1.695.571-2.976.571-5.5.691-17.023h-3.82c0,12.063-2.526,17.95-6.136,21.439l-1.8-2.177c2.947-3.167,5.5-7.359,5.5-19.262h-4.963V25.639h4.963Zm21.716,29.086H477.907v-27.1h10.618Zm-2.466-24.606h-5.745v22.11h5.745Z" transform="translate(1985 -788)"/><path class="c" d="M495.746,49.766l-1.985-1.825a14.914,14.914,0,0,0,3.729-5.918l2.136.639a17.548,17.548,0,0,1-3.88,7.1m10.768-17.119h-2.437a1.7,1.7,0,0,1-1.654-.864v2.144h4.933v2.048h-4.933v2.88c2.737-.289,3.429-.353,4.933-.609l-.06,1.792a17.52,17.52,0,0,0,3.94-7.008A23.386,23.386,0,0,0,508.8,30.6l1.233-1.824c.511.416,1.022.8,1.744,1.472.06-.608.211-1.824.3-4.128H508.89v-2.4h3.278c.031-1.248.031-1.792,0-3.712h2.226c-.03,2.208-.03,2.848-.06,3.712h4.481c-.029,1.119-.36,8.063-.36,8.479-.03.448-.03.9-.03,1.375,0,1.12,0,4.96.842,4.96.6,0,.992-3.424,1.052-4.128l1.835.993a15.712,15.712,0,0,1-1.113,4.607c-.361.8-.9,1.664-2.015,1.664-2.045,0-2.767-2.943-2.767-7.68,0-.8.15-6.623.18-7.871h-2.2c-.151,2.432-.391,5.088-.6,6.144.842.992,1.474,1.887,2.136,2.752l-1.444,2.048c-.541-.768-.872-1.248-1.414-1.953a23.97,23.97,0,0,1-4.12,7.3l-1.925-1.887.18-.193a115.089,115.089,0,0,1-12.783,1.312l-.18-2.272c1.955-.064,4.15-.192,6.075-.32V35.975h-4.842V33.927h4.842V31.751h2.226a2.536,2.536,0,0,1-.12-.832v-2.88h-2.256a7.756,7.756,0,0,1-5.2,5.951l-1.023-1.951c2.647-.96,3.519-2.08,4-4h-3.7V26.087h6.075V23.911h-4.842V21.96h4.842V20.008h2.226V21.96h4.963v1.951h-4.963v2.176h5.865v1.952h-3.94v2.016c0,.448.121.64.571.64h1.084c.451,0,.481-.16.811-1.6l1.775.416c-.511,2.784-.872,3.136-2.045,3.136m-3.489,16.67c.06-.735.15-1.952.15-3.231,0-.641-.09-2.56-.12-3.328l2.165-.064a36,36,0,0,1,.331,6.5Zm8,0a42.432,42.432,0,0,0-1.654-6.623l2.226-.255a36.159,36.159,0,0,1,1.9,6.687Zm8.723.353a37.848,37.848,0,0,0-4.452-6.848l1.835-1.312a35.246,35.246,0,0,1,4.813,6.5Z" transform="translate(1985 -788)"/><path class="c" d="M530.639,34.247a21,21,0,0,0-4.813-3.328l1.234-2.3a22.277,22.277,0,0,1,5.113,3.2Zm-4.783,12.8a36.757,36.757,0,0,0,5.324-10.5l2.106,1.631a45.544,45.544,0,0,1-5.745,11.359Zm6.407-21.311a30.772,30.772,0,0,0-5.023-3.488l1.354-2.144a23.488,23.488,0,0,1,5.143,3.264Zm20.543,10.272V46.342h1.173v2.431H532.594V46.342h2.045V36.007ZM535.391,20.968h16.663V33.319H535.391Zm4.632,17.342h-3.1v8.031h3.1Zm9.625-15.071H537.767v2.816h11.881Zm-11.881,7.84h11.881V28.071H537.767ZM545.2,38.31h-3.068v8.031H545.2Zm5.324,0h-3.188v8.031h3.188Z" transform="translate(1985 -788)"/><path class="c" d="M571.367,22.535v-2.56h2.526v2.56H586.1V24.9h-5.083v2.784H586.2v2.176h-5.173V34.95H567.637V29.863h-4.722v5.6c0,1.92-.03,9.215-2.948,13.982l-2.045-1.983c2.135-3.392,2.527-7.648,2.527-12.127v-12.8ZM585.323,49.67a48.354,48.354,0,0,1-10.738-2.977A33.416,33.416,0,0,1,563.667,49.7l-.993-2.432a40.966,40.966,0,0,0,9.114-2.047A15.834,15.834,0,0,1,566.825,41l1.985-1.312a18.9,18.9,0,0,0,5.745,4.384,12.578,12.578,0,0,0,5.414-4.672H563.907V37.062h19.04V39.4a16.076,16.076,0,0,1-5.685,5.791,41.137,41.137,0,0,0,9.174,1.92ZM567.637,24.9h-4.722v2.784h4.722Zm11.039,0h-8.693v2.784h8.693Zm0,4.96h-8.693v3.008h8.693Z" transform="translate(1985 -788)"/></g><g transform="translate(-1985 788)"><path class="c" d="M467.5,104.1h-2.467V87.4a20.044,20.044,0,0,1-2.376,3.232l-1.263-2.976a30.227,30.227,0,0,0,6.046-13.375l2.526.48A35.248,35.248,0,0,1,467.5,82.63Zm1.293-3.9a22.987,22.987,0,0,0,8.783-8.8h-7.941V89h8.843V85.573h-6.888V75.366h16.3V85.573h-6.978V89h8.752v2.4h-7.91a23.708,23.708,0,0,0,8.361,8.864l-1.564,2.239a23.914,23.914,0,0,1-7.639-8.768V104.1h-2.437V93.892a23.837,23.837,0,0,1-8.241,8.544Zm16.724-22.462H474v5.5h11.52Z" transform="translate(1985 -788)"/><path class="c" d="M498.454,88.678a21,21,0,0,0-4.813-3.329l1.233-2.3a22.255,22.255,0,0,1,5.113,3.2Zm-4.783,12.8a36.784,36.784,0,0,0,5.324-10.495l2.105,1.632a45.541,45.541,0,0,1-5.745,11.359Zm6.407-21.31a30.793,30.793,0,0,0-5.023-3.488l1.353-2.144a23.469,23.469,0,0,1,5.144,3.264Zm20.543,10.271v10.335h1.173V103.2H500.408v-2.432h2.046V90.437ZM503.206,75.4h16.663V87.749H503.206Zm4.632,17.343h-3.1v8.031h3.1Zm9.625-15.071H505.582v2.816h11.881Zm-11.881,7.84h11.881V82.5H505.582Zm7.429,7.231h-3.068v8.031h3.068Zm5.324,0h-3.188v8.031h3.188Z" transform="translate(1985 -788)"/><path class="c" d="M530.639,88.678a21,21,0,0,0-4.813-3.329l1.234-2.3a22.277,22.277,0,0,1,5.113,3.2Zm-4.783,12.8a36.731,36.731,0,0,0,5.324-10.495l2.106,1.632a45.544,45.544,0,0,1-5.745,11.359Zm6.407-21.31a30.707,30.707,0,0,0-5.023-3.488l1.354-2.144a23.489,23.489,0,0,1,5.143,3.264Zm20.543,10.271v10.335h1.173V103.2H532.594v-2.432h2.045V90.437ZM535.391,75.4h16.663V87.749H535.391Zm4.632,17.343h-3.1v8.031h3.1Zm9.625-15.071H537.767v2.816h11.881Zm-11.881,7.84h11.881V82.5H537.767Zm7.429,7.231h-3.068v8.031H545.2Zm5.324,0h-3.188v8.031h3.188Z" transform="translate(1985 -788)"/><path class="c" d="M571.367,76.966v-2.56h2.526v2.56H586.1v2.368h-5.083v2.784H586.2v2.176h-5.173v5.087H567.637V84.294h-4.722v5.6c0,1.92-.03,9.215-2.948,13.983l-2.045-1.984c2.135-3.391,2.527-7.647,2.527-12.127v-12.8ZM585.323,104.1a48.277,48.277,0,0,1-10.738-2.976,33.442,33.442,0,0,1-10.918,3.008l-.993-2.432a40.987,40.987,0,0,0,9.114-2.048,15.851,15.851,0,0,1-4.963-4.223l1.985-1.312a18.9,18.9,0,0,0,5.745,4.384,12.585,12.585,0,0,0,5.414-4.672H563.907V91.493h19.04v2.336a16.076,16.076,0,0,1-5.685,5.791,41.2,41.2,0,0,0,9.174,1.92ZM567.637,79.334h-4.722v2.784h4.722Zm11.039,0h-8.693v2.784h8.693Zm0,4.96h-8.693V87.3h8.693Z" transform="translate(1985 -788)"/></g><g transform="translate(-1985 788)"><path class="c" d="M476.588,139.725h8.8v2.656h-8.823c-.352,9.568-5.44,12.448-11.178,14.047l-1.083-2.592c7.957-1.92,9.608-5.6,9.852-11.455h-11.1v-2.656h11.1v-5.247a63.222,63.222,0,0,1-9.527.832l-.46-2.624c5.981,0,12.775-.96,17.89-3.2l1.272,2.592a52.414,52.414,0,0,1-6.739,1.952Z" transform="translate(1985 -788)"/><path class="c" d="M492.589,138.414c0,10.335-2.436,14.879-5.223,18.078l-1.787-2.144c3-3.551,4.6-7.2,4.6-15.711v-8.031h2.409Zm7.064,13.951c3.329-1.216,6.794-2.464,8.255-12.319l2.3,1.151c-1.191,6.4-3.411,13.728-12.992,14.72V129.711h2.436Z" transform="translate(1985 -788)"/><path class="c" d="M528.619,147.372a57.527,57.527,0,0,0-11.909-6.847v16.159h-2.626V129.326h2.626v8.223a67.83,67.83,0,0,1,13.181,6.848Zm-4.656-17.022a30.886,30.886,0,0,1,2.923,6.079l-1.894,1.376a29.375,29.375,0,0,0-2.815-6.175Zm3.925-2.208a28.148,28.148,0,0,1,2.923,6.08l-1.894,1.375a28.682,28.682,0,0,0-2.815-6.175Z" transform="translate(1985 -788)"/><path class="c" d="M537.2,142.414a21,21,0,0,0-4.813-3.328l1.234-2.3a22.278,22.278,0,0,1,5.113,3.2Zm-4.783,12.8a36.757,36.757,0,0,0,5.324-10.495l2.106,1.631a45.543,45.543,0,0,1-5.745,11.359ZM538.82,133.9a30.772,30.772,0,0,0-5.023-3.488l1.354-2.144a23.488,23.488,0,0,1,5.143,3.264Zm20.543,10.272v10.335h1.173v2.431H539.151v-2.431H541.2V144.174Zm-17.415-15.039h16.663v12.351H541.948Zm4.632,17.342h-3.1v8.031h3.1Zm9.625-15.071H544.324v2.816h11.881Zm-11.881,7.84h11.881v-3.008H544.324Zm7.43,7.231h-3.068v8.031h3.068Zm5.323,0h-3.188v8.031h3.188Z" transform="translate(1985 -788)"/><path class="c" d="M575.818,130.7v-2.56h2.526v2.56h12.212v2.368h-5.083v2.784h5.173v2.176h-5.173v5.087H572.088V138.03h-4.722v5.6c0,1.92-.03,9.215-2.948,13.982l-2.045-1.983c2.136-3.392,2.527-7.648,2.527-12.127V130.7Zm13.956,27.135a48.355,48.355,0,0,1-10.738-2.977,33.409,33.409,0,0,1-10.918,3.008l-.993-2.432a40.966,40.966,0,0,0,9.114-2.047,15.849,15.849,0,0,1-4.963-4.224l1.986-1.312a18.876,18.876,0,0,0,5.744,4.384,12.571,12.571,0,0,0,5.414-4.672H568.359v-2.336H587.4v2.336a16.057,16.057,0,0,1-5.685,5.791,41.138,41.138,0,0,0,9.174,1.92ZM572.088,133.07h-4.722v2.784h4.722Zm11.039,0h-8.693v2.784h8.693Zm0,4.96h-8.693v3.008h8.693Z" transform="translate(1985 -788)"/></g></svg>