<svg xmlns="http://www.w3.org/2000/svg" width="60.279" height="30.112" viewBox="0 0 60.279 30.112"><path d="M-23.581,1.344a23.681,23.681,0,0,0,7.672-8.576V2.848h3V-7.232A25.022,25.022,0,0,0-5.649,1.632l1.814-2.976A22.422,22.422,0,0,1-11.389-9.5h7.078v-3.04h-8.594V-15.68h6.959v-10.5H-22.689v10.5h6.78v3.136h-8.565V-9.5H-17.4a20.4,20.4,0,0,1-7.97,7.9ZM-8.891-23.2v4.608H-19.715V-23.2ZM-29.47,2.848h3.063v-21.7a47.321,47.321,0,0,0,1.933-7.9l-3.152-.512c-.743,5.216-2.557,10.048-4.966,12.992l1.368,4.064a17.826,17.826,0,0,0,1.755-2.3ZM25.784-26.24H8.684v12.672h17.1ZM22.81-16.32H11.628v-2.5H22.81Zm0-7.1v2.176H11.628v-2.176ZM.744-24.416a30.477,30.477,0,0,1,4.907,3.328L7.495-24A30.518,30.518,0,0,0,2.38-27.136Zm7.167,23.1h-1.9V1.76H27.687V-1.312H26.5V-11.2H7.911ZM18.438-8.288v6.976H15.851V-8.288Zm-5.145,0v6.976H10.706V-8.288Zm10.349,0v6.976H21.026V-8.288ZM-.683-15.424A20.239,20.239,0,0,1,4.1-12.384l1.9-3.04A24.275,24.275,0,0,0,.8-18.432Zm5,4.9C2.231-4.8,1.1-2.816-.564-.608l2.022,3.3C3.183.288,4.015-1.248,6.93-8.352Z" transform="translate(32.592 27.264)"/></svg>