<svg xmlns="http://www.w3.org/2000/svg" width="59.126" height="30.144" viewBox="0 0 59.126 30.144"><path d="M-19.861-18.208H-30.687v3.2h10.826v4.416H-32.144v3.2h12.283v6.24c0,.736-.506.736-.892.736h-5.562l.595,3.3H-19c.238,0,2.29-.064,2.29-2.912v-7.36H-4.4v-3.2H-16.708v-4.416H-5.823v-3.2H-16.708v-4.448c5.472-.48,8.685-1.056,10.529-1.376l-.863-3.232c-7.882,1.728-15.912,1.984-23.942,1.888l.3,3.264c1.7,0,9.279-.32,10.826-.384ZM16.305,2.72c2.469-3.072,5.175-7.712,5.413-20.352h2.231c0,2.464-.268,14.432-.773,16.256-.089.256-.268.832-1.368.832H19.369l.506,3.264H22.7c1.279,0,2.469,0,3.242-2.24.922-2.72,1.011-17.536,1.041-21.344H21.718v-6.368h-3v6.368H16.305v3.232h2.409c-.178,10.016-1.993,13.536-3.3,15.84-1.636.192-3.331.384-6.335.576v-1.76h6.365V-5.568H9.078V-7.04h6.008V-18.3H9.078v-1.44H15.77v-2.592H9.078v-1.536a25.363,25.363,0,0,0,5.978-.864l-.981-2.5C10-26.3,7.591-26.144.007-26.08l.357,2.5c1.457,0,3.212,0,6.038-.128v1.376H-.32v2.592H6.4v1.44H.542V-7.04H6.4v1.472H.364v2.592H6.4v1.92c-3.123.192-5,.192-6.722.192l.3,2.944C3.695,1.92,8.543,1.7,13.956.992ZM6.4-15.936v2.08H3.159v-2.08Zm0,4.256v2.208H3.159V-11.68Zm6.067-4.256v2.08H9.078v-2.08Zm0,4.256v2.208H9.078V-11.68Z" transform="translate(32.144 27.264)"/></svg>