<svg xmlns="http://www.w3.org/2000/svg" width="52.314" height="21.32" viewBox="0 0 52.314 21.32"><path d="M-28.327-10.244c0,6.474,4.47,10.66,9.883,10.66,5.437,0,9.859-4.238,9.859-10.66S-13.007-20.9-18.444-20.9C-23.857-20.9-28.327-16.718-28.327-10.244Zm2.247,0c0-4.368,3.02-8.424,7.636-8.424s7.612,4.082,7.612,8.424-3,8.424-7.612,8.424S-26.08-5.876-26.08-10.244ZM-1.7-11.6v-6.656h9.23v-2.236H-3.97V0H-1.7V-9.386H6.734V-11.6Zm16.455,0v-6.656h9.23v-2.236h-11.5V0h2.271V-9.386H23.19V-11.6Z" transform="translate(28.327 20.904)"/></svg>