<svg xmlns="http://www.w3.org/2000/svg" width="80.186" height="37.48" viewBox="0 0 80.186 37.48"><defs><style>.a{fill:#dbdbdb;}</style></defs><path class="a" d="M-33.432-25.4a55,55,0,0,1,8.773,5.88H-42.8v4h15.465V-2.16c0,1.08-.3,1.44-1.19,1.44H-35.03l.743,4.32h7.026c.558,0,3.941-.24,3.941-3.72v-15.4h9.888a33.97,33.97,0,0,1-6.654,6.8l2.937,3.28A51.208,51.208,0,0,0-8.228-15.52v-4h-13.68l1.859-1.64c-.558-.52-1.115-1-1.561-1.36,1.152-.48,7.361-3.16,10.558-5.92v-4.08h-29v3.92h9.368Zm15.2-3.2a23.187,23.187,0,0,1-6.766,3.52,58.535,58.535,0,0,0-5.651-3.52Zm55.613,6.2A32.268,32.268,0,0,1,23.78-33.88H19.616c-2.3,4.44-7.472,8.96-11.97,11.44l2.342,3.76a32.776,32.776,0,0,0,3.792-2.64v3.16H30.1v-3.28a28.853,28.853,0,0,0,5.353,3.48ZM14.6-22.04a37.571,37.571,0,0,0,7.249-8.44,33.072,33.072,0,0,0,7.472,8.44ZM6.531-14.16c-1,4-3.383,9.96-5.576,12.72l3.271,3.8a76.267,76.267,0,0,0,5.8-13.84Zm5.242-.32v3.84h6.171V3.52h3.829V-10.64h8.476v6.76c0,.2,0,.92-.706.92H26.233L26.9.96h4.721C31.772.96,34.04.92,34.04-2V-14.48ZM1.141-29.2A27.206,27.206,0,0,1,7.274-24l2.6-3.4a33.616,33.616,0,0,0-6.283-4.88Z" transform="translate(42.8 33.88)"/></svg>