<svg xmlns="http://www.w3.org/2000/svg" width="81.515" height="27.072" viewBox="0 0 81.515 27.072"><defs><style>.a{fill:#dbdbdb;}</style></defs><path class="a" d="M-30.034-17.76h10.349v-2.72H-30.034V-25.7H-32.77v5.216H-43.06v2.72h10.29V1.376h2.736ZM-41.573-.544c3.569-4.256,4.491-9.5,4.907-13.728l-2.528-.288c-.327,3.936-1.4,8.512-4.55,11.9Zm15.554-13.728c1.011,6.56,2.171,10.08,4.847,13.632l2.23-1.856c-2.439-3.2-3.688-6.528-4.58-12.1Zm10.141.576v3.04H9.7V-13.7ZM12.939.032A197.986,197.986,0,0,0,34.024-1.792c.506,1.28.714,1.888,1.071,2.976L37.771-.128A59.761,59.761,0,0,0,30.158-14.3l-2.29,1.248a61.207,61.207,0,0,1,5.085,8.9c-4.669.576-10.141.928-14.9,1.056A159.163,159.163,0,0,0,24.894-24.9L21.95-25.44a175.339,175.339,0,0,1-6.572,22.4c-.3,0-2.587.064-2.706.064Z" transform="translate(43.744 25.696)"/></svg>