<svg xmlns="http://www.w3.org/2000/svg" xmlns:xlink="http://www.w3.org/1999/xlink" width="30" height="24.517" viewBox="0 0 30 24.517"><defs><style>.a{fill:none;}.b{clip-path:url(#a);}.c{fill:#dbdbdb;}</style><clipPath id="a"><rect class="a" width="30" height="24.517" transform="translate(0 0)"/></clipPath></defs><g transform="translate(0 0)"><g class="b"><path class="c" d="M18.994,4.268c-3.2,0-6.409.007-9.613-.01-.448,0-1.095.166-1.215-.465a3.311,3.311,0,0,1,.128-2.249c.149-.276.52-.2.8-.2,6.6,0,13.2,0,19.8-.015.8,0,1.047.316,1.049,1.088,0,1.852.033,1.854-1.821,1.855q-4.566,0-9.132,0"/><path class="c" d="M18.993,13.728c-3.2,0-6.406.006-9.609,0-1.252,0-1.3-.075-1.3-1.517,0-1.339.06-1.417,1.3-1.418q9.61-.009,19.219,0c.449,0,1.1-.183,1.246.417a3.438,3.438,0,0,1-.081,2.259c-.168.356-.692.252-1.071.253q-4.853.007-9.7,0"/><path class="c" d="M18.993,23.183c-3.236,0-6.473,0-9.708,0-1.144,0-1.194-.076-1.2-1.411-.007-1.417.047-1.512,1.2-1.514q9.71-.013,19.418,0c1.213,0,1.235.056,1.228,1.564-.006,1.316-.033,1.359-1.231,1.361-3.236.008-6.473,0-9.709,0"/><path class="c" d="M5.565,2.757A3.018,3.018,0,0,1,2.792,5.571,3.035,3.035,0,0,1,0,2.772,3.069,3.069,0,0,1,2.732,0,3.036,3.036,0,0,1,5.565,2.757"/><path class="c" d="M2.812,18.946a3.014,3.014,0,0,1,2.753,2.832,3.063,3.063,0,0,1-2.755,2.74A3.058,3.058,0,0,1,0,21.726a3.036,3.036,0,0,1,2.812-2.78"/><path class="c" d="M5.557,12.255a3.035,3.035,0,0,1-2.791,2.8A3.086,3.086,0,0,1,0,12.214,3.1,3.1,0,0,1,2.758,9.465a3.037,3.037,0,0,1,2.8,2.79"/></g></g></svg>