<svg xmlns="http://www.w3.org/2000/svg" width="131.217" height="42.76" viewBox="0 0 131.217 42.76"><defs><style>.a{fill:#dbdbdb;}</style></defs><path class="a" d="M-56.031-26.113h-6.483V-21.4h6.483v.725c0,17.032-4.8,22.286-7.409,25.185l3.157,3.986c3.368-3.352,8.546-10.056,8.546-29.9h4.378c0,8.335-.126,17.394-.674,22.059-.337,2.763-.589,3.035-1.768,3.035h-4.589l.716,4.8h4.42c2.273,0,4.462-.408,5.136-3.986,1.095-5.753,1.179-24.188,1.179-30.621h-8.8v-7.836h-4.294Zm16.081-5.345V7.588h15.155V-31.458ZM-29.089,3.013H-35.7V-27.019h6.609ZM5.01-1.925a32.775,32.775,0,0,0,5.262-9.512c.589.679,1.01,1.223,1.684,2.129l2.526-4.031a21.449,21.449,0,0,0-2.947-3.216c.379-2.491.589-6.024.716-7.655h2.526c.042,1.993.042,10.781.168,12.547.126,2.446.463,8.833,4.041,8.833,3.031,0,4.041-4.394,4.5-9.965l-2.947-1.631c-.042.679-.295,3.9-.379,4.348-.084.544-.21,1.359-.674,1.359-.295,0-.463-.362-.547-.589a40.357,40.357,0,0,1-.379-6.7c0-1.993.295-10.735.337-12.5H12.461c.042-1.087.126-4.213.168-5.526H8.757c0,2.038-.042,3.578-.042,5.526H4.8v4.3H8.546c-.084,2.4-.253,3.85-.337,4.847-.631-.453-1.137-.77-2.1-1.4L4.084-17.235a34.762,34.762,0,0,1,3.2,2.627A23.368,23.368,0,0,1,2.442-6.273V-7.949c-1.642.181-3.62.408-6.567.589v-3.488H2.442v-3.578H-4.125V-16.42a3.051,3.051,0,0,0,1.894.634H1.432c1.684,0,1.979-.544,2.821-5.028l-2.821-.634c-.379,2.084-.421,2.31-.926,2.31H-.8c-.589,0-.716-.317-.716-.951v-1.993H3.621v-3.443H-4.125V-27.97H2.442v-3.4H-4.125V-34.04H-8.082v2.672h-6.23v3.4h6.23v2.446h-8.335v3.443h4.673c-.547,2.31-1.6,3.941-5.052,5.436l1.81,3.216c.21-.091.505-.226.674-.317v2.9h6.23v3.76c-2.147.091-6.357.272-8.335.272l.337,4.167c5.557-.181,14.566-1.178,18.523-1.812V-5Zm-18.06-12.5a13.112,13.112,0,0,0,5.3-7.655h2.821v3.714a2.011,2.011,0,0,0,.084.725H-8.082v3.216ZM-11.871-2.6A19.734,19.734,0,0,1-16.754,5.5L-13.26,8.72A24.323,24.323,0,0,0-8.082-1.517ZM.337,7.9A64.011,64.011,0,0,0-.042-1.7H-3.915a74.276,74.276,0,0,1-.21,9.6Zm10.482,0A53.419,53.419,0,0,0,8.546-1.925L4.589-1.7A67.86,67.86,0,0,1,6.441,7.9ZM23.07,5.368A47.452,47.452,0,0,0,15.787-3.51l-3.2,2.446a55.474,55.474,0,0,1,6.609,9.6Zm8.672-31.526V-4.144H47.36V8.539h4.42V-4.144h16V-26.158h-16v-7.791H47.36v7.791ZM47.36-8.855H36.12V-21.448H47.36Zm15.955,0H51.78V-21.448H63.315Z" transform="translate(63.44 34.04)"/></svg>