<svg xmlns="http://www.w3.org/2000/svg" width="155.623" height="42.52" viewBox="0 0 155.623 42.52"><defs><style>.a{fill:#dbdbdb;}</style></defs><path class="a" d="M-52.076-24.667a87.939,87.939,0,0,0,10.322-2.584l-2.4-4.578c-8.089,3.037-17.947,4.261-27.721,4.306l.885,4.578a101.015,101.015,0,0,0,14.239-1v6.392H-73.52v4.669h16.683C-57.3-5.084-59.744-.642-71.919,1.942l2.064,4.533c8.468-2.04,16.894-5.8,17.736-19.356H-38.68V-17.55h-13.4ZM-24.1-30.288h-4.676v11.242c0,12.466-2.654,17.226-6.783,21.849l3.539,3.808C-28.232,2.667-24.1-3.725-24.1-19.5Zm11.122-1.224H-17.7V5.795C-2.575,4.571,1.09-5.9,3.07-15.1l-4.508-2.04C-3.334-4.4-8.389-2.365-12.981-.506ZM40.1-11.249a105.2,105.2,0,0,0-20.222-9.519V-32.056H14.824V6.656h5.055V-15.51A83.936,83.936,0,0,1,37.616-5.946ZM27.8-28.792a37.866,37.866,0,0,1,4.339,8.749l3.244-1.995a39.83,39.83,0,0,0-4.55-8.613Zm6.067-3.128a40.623,40.623,0,0,1,4.381,8.749l3.244-1.995A40.439,40.439,0,0,0,36.9-33.733Zm12.175,5.757V-4.133h15.63V8.56h4.424V-4.133H82.1V-26.163H66.095v-7.8H61.671v7.8ZM61.671-8.847H50.423v-12.6H61.671Zm15.967,0H66.095v-12.6H77.638Z" transform="translate(73.52 33.96)"/></svg>