<svg xmlns="http://www.w3.org/2000/svg" width="211.989" height="29.952" viewBox="0 0 211.989 29.952"><defs><style>.a{fill:#dbdbdb;}</style></defs><path class="a" d="M-110.682-21.344h-4.907v2.592h4.907c0,11.9-2.528,16.1-5.442,19.264l1.784,2.176c3.569-3.488,6.067-9.376,6.067-21.44h3.777c-.119,11.52-.119,14.048-.684,17.024-.3,1.6-.743,1.7-1.428,1.7l-3.271-.032.416,2.688h3.034c1.933,0,2.855-.608,3.42-2.432.744-2.432.773-6.56.952-21.536h-6.216v-5.664h-2.409Zm10.974-3.68V2.08h10.5v-27.1Zm8.06,24.608h-5.68V-22.528h5.68Zm20.164-17.056-1.755-.416c-.327,1.44-.357,1.6-.8,1.6h-1.071c-.446,0-.565-.192-.565-.64v-2.016h3.9V-20.9h-5.8v-2.176h4.907v-1.952h-4.907v-1.952h-2.2v1.952H-84.57v1.952h4.788V-20.9h-6.008v1.952h3.658c-.476,1.92-1.338,3.04-3.955,4l1.011,1.952a7.727,7.727,0,0,0,5.145-5.952H-77.7v2.88a2.553,2.553,0,0,0,.119.832h-2.2v2.176H-84.57v2.048h4.788v3.072c-1.9.128-4.074.256-6.008.32l.178,2.272a112.8,112.8,0,0,0,12.64-1.312l-.178.192,1.9,1.888a24.055,24.055,0,0,0,4.074-7.3c.535.7.862,1.184,1.4,1.952l1.428-2.048c-.654-.864-1.279-1.76-2.112-2.752.208-1.056.446-3.712.595-6.144h2.171c-.03,1.248-.178,7.072-.178,7.872,0,4.736.714,7.68,2.736,7.68,1.1,0,1.636-.864,1.993-1.664a15.9,15.9,0,0,0,1.1-4.608l-1.814-.992c-.059.7-.446,4.128-1.041,4.128-.833,0-.833-3.84-.833-4.96,0-.48,0-.928.03-1.376,0-.416.327-7.36.357-8.48h-4.431c.03-.864.03-1.5.059-3.712h-2.2c.03,1.92.03,2.464,0,3.712h-3.242v2.4H-68c-.089,2.3-.238,3.52-.3,4.128-.714-.672-1.219-1.056-1.725-1.472l-1.219,1.824a23.131,23.131,0,0,1,2.409,2.432,17.6,17.6,0,0,1-3.9,7.008l.059-1.792c-1.487.256-2.171.32-4.877.608v-2.88h4.877v-2.048h-4.877V-15.2a1.681,1.681,0,0,0,1.636.864h2.409C-72.346-14.336-71.989-14.688-71.484-17.472Zm13.234,18.5a35.205,35.205,0,0,0-4.758-6.5L-64.822-4.16a37.936,37.936,0,0,1,4.4,6.848Zm-8.357,1.12A36.509,36.509,0,0,0-68.48-4.544l-2.2.256a42.921,42.921,0,0,1,1.636,6.624Zm-7.851.064a36.51,36.51,0,0,0-.327-6.5l-2.141.064c.03.768.119,2.688.119,3.328,0,1.28-.089,2.5-.149,3.232ZM-80.317-4.32l-2.112-.64A14.954,14.954,0,0,1-86.116.96l1.963,1.824A17.593,17.593,0,0,0-80.317-4.32Zm39.436-21.536v10.368h8.922V-.736c0,.736-.506.736-.922.736L-36.42-.032l.506,2.688h4.1c2.2,0,2.2-2.176,2.2-2.72V-25.856ZM-37.7-7.424V-11.1h3.39V-13.28H-50.487V-11.1h3.718v2.976a5.833,5.833,0,0,1-.03.7H-51.26V-5.28h4.223A8.105,8.105,0,0,1-50.785.256l1.576,1.888A11.148,11.148,0,0,0-44.688-5.28h4.7V2.208h2.29V-5.28h4.134V-7.424Zm5.68-14.144h-6.543V-23.84h6.543Zm0,4.064h-6.543v-2.3h6.543ZM-44.509-7.424a4.619,4.619,0,0,0,.03-.672V-11.1h4.491v3.68ZM-55.186-25.856V2.656h2.379V-15.488H-44V-25.856Zm8.863,4.288h-6.454V-23.84h6.454Zm0,4.064h-6.454v-2.3h6.454Zm25.368-3.84c.208-1.92.327-3.232.446-5.5l-2.379-.16c-.119,2.528-.178,3.552-.387,5.664h-3.182v2.464h2.885a47.86,47.86,0,0,1-2.439,9.76,32.565,32.565,0,0,1,4.669,3.264A16.8,16.8,0,0,1-26.695.384L-24.97,2.56A22.406,22.406,0,0,0-19.5-4.256,35.33,35.33,0,0,1-16.881-1.5l1.606-2.24A29.889,29.889,0,0,0-18.368-6.72c.565-1.472,1.814-5.632,2.29-14.624Zm2.5,2.464A43.169,43.169,0,0,1-20.331-8.224c-.981-.7-1.606-1.152-2.915-1.952a68.564,68.564,0,0,0,1.963-8.7ZM-.077-11.2H-14.115V2.016H-.077ZM-2.457-.288h-9.309V-8.9h9.309ZM-5.371-21.536a29.3,29.3,0,0,1,2.647,4.288c-3.718.48-7.762.736-8.357.768A87.067,87.067,0,0,0-7.453-26.816l-2.617-.352A70.366,70.366,0,0,1-13.579-16.32c-1.19.064-1.338.064-2.2.1l.208,2.656c4.7-.256,10.5-.9,13.918-1.472a24.451,24.451,0,0,1,.981,2.592l2.2-1.344a37.985,37.985,0,0,0-4.848-9.024Zm21.785,4.808v-2.52H14.451v2.52H5.975v1.848h8.476V-11.9H6.309v1.824h8.141v2.832a10.681,10.681,0,0,0-2.231-.24C8.9-7.488,6.6-5.664,6.6-3.144c0,1.536.937,4.032,5.286,4.032,1.874,0,4.528-.648,4.528-4.08V-4.56A15.833,15.833,0,0,1,21.767-.288l1.316-2.064A21.386,21.386,0,0,0,16.414-6.72v-3.36h6.692V-11.9H16.414V-14.88h7.115v-1.848Zm-1.963,13.1c0,1.9-.87,2.64-2.81,2.64C8.7-.984,8.473-2.76,8.473-3.216c0-1.584,1.673-2.5,3.747-2.5a6.627,6.627,0,0,1,2.231.336ZM40.258-12A20.94,20.94,0,0,1,42.6-7.368l1.561-1.056a21.677,21.677,0,0,0-2.454-4.536Zm3.3-1.536A22.047,22.047,0,0,1,45.9-8.9L47.463-9.96A21.261,21.261,0,0,0,45.009-14.5Zm2.721-4.512c-5.108.024-7.2.072-12.491.384-1.138.072-5,.264-6.089.288l.178,2.352c2.431-.312,10.149-.816,10.8-.84-2.632,1.656-6.535,4.8-6.535,9.36,0,6.72,7.405,7.056,11.8,7.248l.4-2.328a24.85,24.85,0,0,1-5.621-.432c-2.364-.528-4.506-1.512-4.506-4.632,0-4.128,4.372-7.848,7.584-9a5.851,5.851,0,0,1,2.253-.288c.625,0,1.316.024,2.275.1Zm11.2,11.3A14.069,14.069,0,0,0,58.37-8.3a16.439,16.439,0,0,1,2.721,2.232,12.663,12.663,0,0,1-4.55,6.5l1.048,1.656a14.744,14.744,0,0,0,5.175-7.9,30.345,30.345,0,0,0,1.249-8.376H60.154c.245-1.536.335-2.592.4-3.48h4.573v-1.8H56.585v1.8h2.208c-.112,2.472-.625,6.384-2.5,9.048Zm4.8-5.712a21.6,21.6,0,0,1-.625,4.488,13.222,13.222,0,0,0-2.61-1.92,21.519,21.519,0,0,0,.758-2.568ZM74.43-6.912A10.913,10.913,0,0,1,72-4.008a18.391,18.391,0,0,1-.87-2.928l6.089-.528-.089-1.752-6.335.528c-.067-.456-.178-1.008-.29-2.136l6.045-.552-.089-1.752-6.134.576c-.045-.624-.112-1.44-.156-2.136l6.736-.624-.112-1.752-6.714.624c-.089-1.488-.089-2.616-.089-3.816H68.117c0,.816.022,1.416.156,3.984l-3.725.336L64.7-14.16l3.7-.36c.022.312.134,1.8.178,2.136l-3.435.312.112,1.728,3.524-.312c.067.528.2,1.656.29,2.112l-4.55.384.112,1.8,4.751-.408a21.761,21.761,0,0,0,1.16,3.888A21.313,21.313,0,0,1,63.9.144l.87,1.872a20.508,20.508,0,0,0,6.6-3.144C72.8,1.536,74.14,1.92,74.742,1.92c.915,0,1.963-.48,2.833-4.272l-1.428-1.08C75.9-2.328,75.322-.12,74.653-.12c-.535,0-1.338-1.224-1.829-2.136A16.258,16.258,0,0,0,76.08-6.024Zm1.2-11.424a18.744,18.744,0,0,0-2.855-2.112l-1,1.344A23.285,23.285,0,0,1,74.5-16.92Zm7.405-.6a43.463,43.463,0,0,0-.691,7.968,46.53,46.53,0,0,0,.312,5.52l1.874-.12c.022-.984.045-2.544,2.61-6.5l-1.16-1.2c-.781,1.3-1.405,2.5-1.7,3.072a42.655,42.655,0,0,1,.781-8.52Zm10.417.1c.245,4.44.29,5.088.29,7.344,0,5.616-.156,8.952-7.74,11.088l1.539,1.632c8.074-2.184,8.32-7.008,8.32-12.168,0-2.592-.112-5.3-.29-7.9Z" transform="translate(116.124 27.168)"/></svg>