<svg xmlns="http://www.w3.org/2000/svg" width="152.472" height="29.856" viewBox="0 0 152.472 29.856"><defs><style>.a{fill:#dbdbdb;}</style></defs><path class="a" d="M-71.156-26.976v2.688H-83.021v8.1h2.468v-5.6H-59.26v5.6h2.528v-8.1H-68.657v-2.688ZM-83.616-12.7v2.56H-75.2c-.238,5.7-2.468,9.184-8.892,10.368l1.249,2.656c6.513-1.632,9.725-5.472,10.111-13.024h5.264V-.032A2.176,2.176,0,0,0-64.97,2.3h6.126c2.141,0,2.706-.864,2.8-6.752l-2.379-.832c-.089,3.68-.089,4.1-.3,4.672-.119.288-.357.448-.892.448h-4.4c-.684,0-.952-.032-.952-.8v-9.184h8.833V-12.7Zm4.52-5.856v2.432h18.379V-18.56Zm25.457-7.264V-23.2h22.661a26.191,26.191,0,0,1-8.089,5.376h-2.29V-1.088c0,.992-.743.992-1.071.992l-4.937-.032.535,2.784h5.2C-39.781,2.656-38.8,2.3-38.8-.1V-15.072a34.329,34.329,0,0,0,11.628-8.192v-2.56Zm42.571,9.1v-2.52h-1.963v2.52h-8.476v1.848h8.476V-11.9h-8.141v1.824h8.141v2.832a10.68,10.68,0,0,0-2.23-.24c-3.323,0-5.621,1.824-5.621,4.344,0,1.536.937,4.032,5.286,4.032,1.874,0,4.528-.648,4.528-4.08V-4.56A15.832,15.832,0,0,1-5.715-.288L-4.4-2.352A21.385,21.385,0,0,0-11.068-6.72v-3.36h6.691V-11.9h-6.691V-14.88h7.115v-1.848Zm-1.963,13.1c0,1.9-.87,2.64-2.81,2.64-2.944,0-3.167-1.776-3.167-2.232,0-1.584,1.673-2.5,3.747-2.5a6.627,6.627,0,0,1,2.23.336ZM12.776-12a20.94,20.94,0,0,1,2.342,4.632l1.561-1.056a21.677,21.677,0,0,0-2.453-4.536Zm3.3-1.536A22.047,22.047,0,0,1,18.419-8.9L19.98-9.96A21.261,21.261,0,0,0,17.526-14.5ZM18.8-18.048c-5.108.024-7.2.072-12.49.384-1.138.072-5,.264-6.089.288L.4-15.024c2.431-.312,10.148-.816,10.8-.84-2.632,1.656-6.535,4.8-6.535,9.36,0,6.72,7.405,7.056,11.8,7.248l.4-2.328a24.848,24.848,0,0,1-5.621-.432C8.872-2.544,6.731-3.528,6.731-6.648c0-4.128,4.372-7.848,7.583-9a5.851,5.851,0,0,1,2.253-.288c.625,0,1.316.024,2.275.1Zm11.2,11.3a14.069,14.069,0,0,0,.892-1.56,16.439,16.439,0,0,1,2.721,2.232,12.663,12.663,0,0,1-4.55,6.5l1.048,1.656a14.744,14.744,0,0,0,5.175-7.9,30.346,30.346,0,0,0,1.249-8.376H32.671c.245-1.536.335-2.592.4-3.48h4.572v-1.8H29.1v1.8H31.31c-.112,2.472-.625,6.384-2.5,9.048Zm4.8-5.712a21.6,21.6,0,0,1-.625,4.488,13.222,13.222,0,0,0-2.61-1.92,21.518,21.518,0,0,0,.758-2.568ZM46.946-6.912a10.914,10.914,0,0,1-2.431,2.9,18.39,18.39,0,0,1-.87-2.928l6.089-.528-.089-1.752-6.334.528c-.067-.456-.178-1.008-.29-2.136l6.044-.552-.089-1.752-6.134.576c-.045-.624-.112-1.44-.156-2.136l6.736-.624-.112-1.752L42.6-16.44c-.089-1.488-.089-2.616-.089-3.816H40.634c0,.816.022,1.416.156,3.984l-3.725.336.156,1.776,3.7-.36c.022.312.134,1.8.178,2.136l-3.435.312.112,1.728,3.524-.312c.067.528.2,1.656.29,2.112l-4.55.384.112,1.8L41.9-6.768a21.763,21.763,0,0,0,1.16,3.888A21.312,21.312,0,0,1,36.418.144l.87,1.872a20.507,20.507,0,0,0,6.6-3.144c1.427,2.664,2.766,3.048,3.368,3.048.914,0,1.963-.48,2.833-4.272l-1.427-1.08c-.245,1.1-.825,3.312-1.494,3.312-.535,0-1.338-1.224-1.829-2.136A16.259,16.259,0,0,0,48.6-6.024Zm1.2-11.424A18.744,18.744,0,0,0,45.3-20.448l-1,1.344a23.285,23.285,0,0,1,2.721,2.184Zm7.405-.6a43.464,43.464,0,0,0-.691,7.968,46.532,46.532,0,0,0,.312,5.52l1.874-.12c.022-.984.045-2.544,2.61-6.5l-1.16-1.2c-.781,1.3-1.405,2.5-1.7,3.072a42.657,42.657,0,0,1,.781-8.52Zm10.416.1c.245,4.44.29,5.088.29,7.344,0,5.616-.156,8.952-7.74,11.088l1.539,1.632c8.074-2.184,8.32-7.008,8.32-12.168,0-2.592-.112-5.3-.29-7.9Z" transform="translate(84.092 26.976)"/></svg>