<svg xmlns="http://www.w3.org/2000/svg" xmlns:xlink="http://www.w3.org/1999/xlink" width="156" height="266" viewBox="0 0 156 266"><defs><style>.a{fill:none;}.b{clip-path:url(#a);}.c{fill:url(#b);}.d{fill:#dbdbdb;}.e{fill:url(#c);}</style><clipPath id="a"><rect class="a" width="156" height="266"/></clipPath><linearGradient id="b" x1="0.5" y1="1" x2="0.5" gradientUnits="objectBoundingBox"><stop offset="0" stop-color="#302d2c"/><stop offset="1" stop-color="#767676"/></linearGradient><linearGradient id="c" x1="0.5" y1="1" x2="0.5" gradientUnits="objectBoundingBox"><stop offset="0" stop-color="#757575"/><stop offset="1" stop-color="#302d2c"/></linearGradient></defs><g class="b"><g transform="translate(-640 -120)"><g transform="translate(746 120)"><rect width="50" height="50"/><g transform="translate(-564 -251)"><rect class="c" width="50" height="50" rx="8" transform="translate(564 251)"/><path class="d" d="M292.173,76.977l20.567,12-20.567,12a57.78,57.78,0,0,0,1.712-12.119,54.27,54.27,0,0,0-1.712-11.881" transform="translate(287.767 187.023)"/></g></g><g transform="translate(640 120)"><rect width="50" height="50"/><g transform="translate(614 301) rotate(180)"><rect class="e" width="50" height="50" rx="8" transform="translate(564 251)"/><path class="d" d="M292.173,76.977l20.567,12-20.567,12a57.78,57.78,0,0,0,1.712-12.119,54.27,54.27,0,0,0-1.712-11.881" transform="translate(287.767 187.023)"/></g></g></g><g transform="translate(-640 -52)"><g transform="translate(746 120)"><rect width="50" height="50"/><g transform="translate(-564 -251)"><rect class="c" width="50" height="50" rx="8" transform="translate(564 251)"/><path class="d" d="M292.173,76.977l20.567,12-20.567,12a57.78,57.78,0,0,0,1.712-12.119,54.27,54.27,0,0,0-1.712-11.881" transform="translate(287.767 187.023)"/></g></g><g transform="translate(640 120)"><rect width="50" height="50"/><g transform="translate(614 301) rotate(180)"><rect class="e" width="50" height="50" rx="8" transform="translate(564 251)"/><path class="d" d="M292.173,76.977l20.567,12-20.567,12a57.78,57.78,0,0,0,1.712-12.119,54.27,54.27,0,0,0-1.712-11.881" transform="translate(287.767 187.023)"/></g></g></g><g transform="translate(-640 16)"><g transform="translate(746 120)"><rect width="50" height="50"/><g transform="translate(-564 -251)"><rect class="c" width="50" height="50" rx="8" transform="translate(564 251)"/><path class="d" d="M292.173,76.977l20.567,12-20.567,12a57.78,57.78,0,0,0,1.712-12.119,54.27,54.27,0,0,0-1.712-11.881" transform="translate(287.767 187.023)"/></g></g><g transform="translate(640 120)"><rect width="50" height="50"/><g transform="translate(614 301) rotate(180)"><rect class="e" width="50" height="50" rx="8" transform="translate(564 251)"/><path class="d" d="M292.173,76.977l20.567,12-20.567,12a57.78,57.78,0,0,0,1.712-12.119,54.27,54.27,0,0,0-1.712-11.881" transform="translate(287.767 187.023)"/></g></g></g><g transform="translate(-640 84)"><g transform="translate(746 120)"><rect width="50" height="50"/><g transform="translate(-564 -251)"><rect class="c" width="50" height="50" rx="8" transform="translate(564 251)"/><path class="d" d="M292.173,76.977l20.567,12-20.567,12a57.78,57.78,0,0,0,1.712-12.119,54.27,54.27,0,0,0-1.712-11.881" transform="translate(287.767 187.023)"/></g></g><g transform="translate(640 120)"><rect width="50" height="50"/><g transform="translate(614 301) rotate(180)"><rect class="e" width="50" height="50" rx="8" transform="translate(564 251)"/><path class="d" d="M292.173,76.977l20.567,12-20.567,12a57.78,57.78,0,0,0,1.712-12.119,54.27,54.27,0,0,0-1.712-11.881" transform="translate(287.767 187.023)"/></g></g></g></g></svg>