<svg xmlns="http://www.w3.org/2000/svg" width="99.482" height="24.955" viewBox="0 0 99.482 24.955"><defs><style>.a{fill:#dbdbdb;stroke:#dbdbdb;stroke-width:0.5px;}</style></defs><path class="a" d="M-41.982-19.812v-1.534H-53.725v1.976h1.546V-3.3c-.507.1-.846.13-1.667.234l.29,2.08A51.065,51.065,0,0,0-45.365-2.86V2.184h1.909V-19.37h1.232v1.664h8.191A29.616,29.616,0,0,1-37.1-6.864a23.42,23.42,0,0,1-2.706-9.8l-1.885.312A29.6,29.6,0,0,0-38.285-4.888a19.522,19.522,0,0,1-5,5.122l1.3,1.95a24.3,24.3,0,0,0,4.954-5.122A24.36,24.36,0,0,0-32.22,2.08L-31.132-.1A23.142,23.142,0,0,1-35.82-4.836a33.52,33.52,0,0,0,3.842-13.338v-1.638Zm-3.383,9.75h-4.929v-3.744h4.929Zm-4.929,1.9h4.929v3.3a46.277,46.277,0,0,1-4.929,1.2Zm4.929-7.488h-4.929V-19.37h4.929ZM-23.4-20.514a47.085,47.085,0,0,0-.749,8.632,50.41,50.41,0,0,0,.338,5.98l2.03-.13c.024-1.066.048-2.756,2.827-7.046l-1.257-1.3c-.846,1.4-1.522,2.7-1.836,3.328a46.211,46.211,0,0,1,.846-9.23Zm11.284.1c.266,4.81.314,5.512.314,7.956,0,6.084-.169,9.7-8.385,12.012l1.667,1.768C-9.772-1.04-9.506-6.266-9.506-11.856c0-2.808-.121-5.746-.314-8.554ZM-1.169-9.126A17.059,17.059,0,0,0,.86-11.778a31.622,31.622,0,0,1,4.422,5.07A22.486,22.486,0,0,1-2.136.572l1.45,1.82C6.66-2.938,9.946-9.126,10.647-18.564H3.687A27.063,27.063,0,0,0,4.34-21.84l-1.957-.1c-.677,4.394-1.861,7.8-4.954,11.258ZM8.5-16.562A25.4,25.4,0,0,1,6.321-8.606,35.524,35.524,0,0,0,1.8-13.468a23.167,23.167,0,0,0,1.281-3.094ZM20.65-6.968a19.4,19.4,0,0,1-4.253-2.6v-12.4H14.319v10.426a17.062,17.062,0,0,1-2.441-3.432l-1.5,1.2a20.282,20.282,0,0,0,3.939,5.122V2.184H16.4V-6.864A20.563,20.563,0,0,0,19.95-4.628ZM38.773-18.2v-2.912H36.55L36.6-18.2H24.71v2.158H36.622l.024,2.808a3.356,3.356,0,0,0-2.706-1.04,4.93,4.93,0,0,0-5,5.278c0,2.522,1.5,5.1,4.494,5.1a3.828,3.828,0,0,0,3.818-2.5C36.937-3.3,35.148-.91,28.7-.988L29.373,1.2c4.2-.182,9.859-1.43,9.859-8.294a13.683,13.683,0,0,0-.145-2,14.275,14.275,0,0,0-.314-1.716v-5.226H45.1V-18.2ZM36.695-8.814A2.918,2.918,0,0,1,33.723-5.8c-2.247,0-2.755-2.21-2.755-3.3a2.952,2.952,0,0,1,3.02-3.224,2.566,2.566,0,0,1,2.706,2.366Z" transform="translate(54.129 22.22)"/></svg>