<svg xmlns="http://www.w3.org/2000/svg" width="72.51" height="25.076" viewBox="0 0 72.51 25.076"><defs><style>.a{fill:#dbdbdb;stroke:#dbdbdb;stroke-width:0.5px;}</style></defs><path class="a" d="M-37.146,1.352c8.6-2.08,13.652-7.228,15.658-17.134l-2.247-3.2H-33.4a18.614,18.614,0,0,1-6.041,7.254l1.377,1.768A21.033,21.033,0,0,0-31.951-16.8h8.385C-24.944-8.97-28.689-2.86-38.065-.858ZM-20.474-22.1a22.264,22.264,0,0,1,2.561,4.888l1.546-1.092a23.252,23.252,0,0,0-2.658-4.784Zm-3.214,1.014a22.112,22.112,0,0,1,2.634,4.836l1.522-1.118a22.231,22.231,0,0,0-2.73-4.732ZM-10.76-20.02v2.184H5.091V-20.02Zm-1.716,6.11v2.184H4.052c-1.4,8.19-7.3,9.854-13.507,10.374l.6,2.262C.645-.156,5.357-3.406,6.565-13.91Zm26.362-5.278v2.314H29.956C29.158-9,25.945-3.562,16.158-1.43L17.052.754C29.69-2.132,31.889-10.92,32.445-19.188Z" transform="translate(39.798 23.431)"/></svg>