<svg xmlns="http://www.w3.org/2000/svg" width="72.904" height="24.791" viewBox="0 0 72.904 24.791"><defs><style>.a{fill:#dbdbdb;stroke:#dbdbdb;stroke-width:0.5px;}</style></defs><path class="a" d="M-35.429-17.342c.169-1.56.266-2.626.362-4.472L-37-21.944c-.1,2.054-.145,2.886-.314,4.6H-39.9v2h2.344a38.888,38.888,0,0,1-1.981,7.93,26.458,26.458,0,0,1,3.794,2.652A13.649,13.649,0,0,1-40.092.312l1.4,1.768a18.2,18.2,0,0,0,4.446-5.538,28.706,28.706,0,0,1,2.126,2.236l1.3-1.82A24.285,24.285,0,0,0-33.326-5.46c.459-1.2,1.474-4.576,1.861-11.882Zm2.03,2a35.076,35.076,0,0,1-1.522,8.658c-.8-.572-1.3-.936-2.368-1.586a55.709,55.709,0,0,0,1.595-7.072ZM-18.466-9.1h-11.4V1.638h11.4ZM-20.4-.234h-7.563V-7.228H-20.4ZM-22.767-17.5a23.808,23.808,0,0,1,2.151,3.484c-3.02.39-6.307.6-6.79.624a70.744,70.744,0,0,0,2.948-8.4l-2.126-.286a57.174,57.174,0,0,1-2.851,8.814c-.967.052-1.087.052-1.788.078l.169,2.158c3.818-.208,8.53-.728,11.308-1.2a19.866,19.866,0,0,1,.8,2.106l1.788-1.092A30.863,30.863,0,0,0-21.1-18.538Zm11.719-1.9a47.048,47.048,0,0,0,1.136,5.564,10.184,10.184,0,0,0-3.165,7.384c0,2.21.918,5.538,4.084,5.538,2.513,0,4.349-2.132,5.654-4.5A28.547,28.547,0,0,0-.561-14.82c1.087.156,5.7.806,5.7,6.812,0,6.344-6.017,6.578-8.215,6.682l.58,2.158C-.586.754,7.292.338,7.292-7.93c0-2.99-1.353-8.32-7.539-8.918.145-1.092.217-1.794.362-4l-2.223-.156a40.505,40.505,0,0,1-.242,4.134,12.426,12.426,0,0,0-5.968,1.846,31.75,31.75,0,0,1-.822-4.732Zm6.089,12.87A21.052,21.052,0,0,1-7.786-13a10.808,10.808,0,0,1,5.268-1.872A27.644,27.644,0,0,1-4.959-6.526ZM-5.974-4.94A4.154,4.154,0,0,1-8.9-3.068c-.967,0-2.2-.7-2.2-3.276a8.623,8.623,0,0,1,1.812-5.3A20.324,20.324,0,0,0-5.974-4.94Zm34.36-15.366c-5.775.364-7.756.39-12.879.39v2.236c3.939-.078,5.364-.13,9.472-.442C20.436-13.728,14.9-8.944,13.042-7.384L14.3-5.434c3.31-3.38,6.452-5.954,10.728-5.954,4.639,0,5.026,3.25,5.026,4.628a5.007,5.007,0,0,1-2.8,4.784c-1.184-4.81-4.929-5.1-5.775-5.1a3.811,3.811,0,0,0-4.084,3.666c0,2.47,2.392,4.316,6.234,4.316C28.144.91,32.2-1.716,32.2-6.812c0-4.42-2.851-6.526-6.4-6.526a12.083,12.083,0,0,0-4.325.884c1.595-1.352,1.933-1.638,5.026-4.316.6-.52,1.353-1.17,1.885-1.586ZM25.438-1.17a6.58,6.58,0,0,1-1.885.234c-2.706,0-4.253-1.248-4.253-2.522a1.9,1.9,0,0,1,2.1-1.716C23.5-5.174,24.906-3.64,25.438-1.17Z" transform="translate(40.451 22.352)"/></svg>