<svg xmlns="http://www.w3.org/2000/svg" width="109.296" height="26.741" viewBox="0 0 109.296 26.741"><path d="M12.134-21.913v2.4H1.529v7.236H3.735V-17.28H22.766v5.005h2.259V-19.51H14.367v-2.4ZM1-9.157v2.288H8.519C8.307-1.778,6.313,1.339.572,2.4L1.688,4.771C7.509,3.313,10.38-.119,10.725-6.869h4.7V2.169a1.945,1.945,0,0,0,2.233,2.088h5.475c1.914,0,2.419-.772,2.5-6.035L23.51-2.522c-.08,3.289-.08,3.661-.266,4.176-.106.257-.319.4-.8.4H18.513c-.611,0-.851-.029-.851-.715V-6.869h7.894V-9.157Zm4.04-5.234v2.174H21.464v-2.174ZM29.65-20.883v2.345H49.9a23.408,23.408,0,0,1-7.23,4.8H40.628V1.225c0,.887-.664.887-.957.887l-4.412-.029.478,2.488h4.651c1.648,0,2.525-.315,2.525-2.46V-11.273A30.682,30.682,0,0,0,53.306-18.6v-2.288Zm28.866.086V2.569h7.921V-20.8Zm5.9,10.353H60.563V-18.6h3.854Zm0,10.811H60.563V-8.328h3.854ZM79.7-5.668h2.6V-7.841H79.7V-11.1h2.791v-2.2H76.005v-3.8h5.661v-2.174H76.005V-21.97H73.879v2.688H68.35v2.174h5.529v3.8H67.447v2.2h10.1v3.26H67.659v2.174h9.888V1.654c0,.543-.213.572-.664.572L73.108,2.2l.425,2.345h3.96A2.063,2.063,0,0,0,79.7,2.14ZM73.693-.234A19.117,19.117,0,0,0,70.025-4.9L68.377-3.58a22.674,22.674,0,0,1,3.509,4.8Zm23.39-15.044A18.809,18.809,0,0,1,93.1-9.043c-.558-.715-1.249-1.43-1.807-2.031a26.924,26.924,0,0,0,3.376-5.405h6.858v-2.145H95.143v-3.318h-2.18v3.318H86.292v2.145h5.9a17.628,17.628,0,0,1-2.419,3.947c-.744-.658-1.09-.915-1.648-1.344L86.876-12.1a28.544,28.544,0,0,1,4.678,4.576,24.1,24.1,0,0,1-5.475,3.6L87.222-1.95a23.774,23.774,0,0,0,11.7-12.27Zm5.555-5.005v18.39h2.206v-18.39ZM87.169,4.485a27.29,27.29,0,0,0,8.107-5.491,17.9,17.9,0,0,0,5.156,4.862l1.3-2.031a14.793,14.793,0,0,1-5.024-4.347,22.532,22.532,0,0,0,4.279-6.75l-1.807-1.115A23.711,23.711,0,0,1,85.946,2.426Zm20.493-26.427V1.683c0,.429-.053.572-.478.572l-3.535-.029.346,2.345h3.562c2.153,0,2.312-1.115,2.312-2.4v-24.11Z" transform="translate(-0.572 21.97)"/></svg>