<svg xmlns="http://www.w3.org/2000/svg" width="130" height="36" viewBox="0 0 130 36"><defs><style>.a{fill:#dbdbdb;}</style></defs><g transform="translate(-407 -328)"><g transform="translate(-225 -940)"><g transform="translate(632 1268)"><rect width="26" height="36"/><path class="a" d="M876.262,357.946h3.122v31.515h-3.569V362.146L870.2,366.3l-.483-3.559Z" transform="translate(-862.719 -355.306)"/></g><g transform="translate(658 1268)"><rect width="26" height="36"/><path class="a" d="M989.569,361.386H977v9.438a10.139,10.139,0,0,1,4.535-.92c6.84,0,10.447,4.919,10.447,10,0,4.88-3.421,10.2-11.375,10.2a15.93,15.93,0,0,1-8.774-2.48l1.078-3.439a12.616,12.616,0,0,0,7.658,2.48c6.357,0,7.88-4.16,7.88-6.839,0-4.12-3.048-6.639-7.062-6.639a7.083,7.083,0,0,0-4.424,1.4h-3.2V357.946h15.8Z" transform="translate(-968.677 -355.306)"/></g><g transform="translate(684 1268)"><rect width="26" height="36"/><path class="a" d="M0,16H3.188V12.464H0ZM0,3.537H3.188V0H0Z" transform="translate(11.406 9.999)"/></g><g transform="translate(710 1268)"><rect width="26" height="36"/><path class="a" d="M876.262,357.946h3.122v31.515h-3.569V362.146L870.2,366.3l-.483-3.559Z" transform="translate(-862.719 -355.306)"/></g><g transform="translate(736 1268)"><rect width="26" height="36"/><path class="a" d="M876.262,357.946h3.122v31.515h-3.569V362.146L870.2,366.3l-.483-3.559Z" transform="translate(-862.719 -355.306)"/></g></g></g></svg>