<svg xmlns="http://www.w3.org/2000/svg" xmlns:xlink="http://www.w3.org/1999/xlink" width="800" height="44" viewBox="0 0 800 44"><defs><style>.a{fill:rgba(0,0,0,0);}.b{fill:#222;}.c{fill:#474645;}.d{clip-path:url(#a);}</style><clipPath id="a"><rect class="a" width="103.048" height="27.899"/></clipPath></defs><rect width="800" height="44"/><rect class="b" width="792" height="40" rx="4" transform="translate(4 4)"/><g transform="translate(2 -48)"><path class="c" d="M39.227,61.337l3.021,4.032c-.817,5.055-1.659,8.8-4.325,12.575A18.019,18.019,0,0,1,26.2,85.5l-1.17-2.72c8.76-1.535,13.549-7.135,14.746-18.654H22.849V61.337Zm8.761-.864c0,2.464-1.687,4.448-3.781,4.448-2.068,0-3.782-1.984-3.782-4.448,0-2.5,1.742-4.448,3.782-4.448,2.067,0,3.781,1.952,3.781,4.448m-5.876,0a2.122,2.122,0,1,0,2.1-2.464,2.322,2.322,0,0,0-2.1,2.464"/><path class="c" d="M70.048,83.992H49.969V61.081H70.048ZM67.571,63.833H52.444V81.24H67.571Z"/><path class="c" d="M75.237,83.384C85.793,80.921,90.01,73.4,91.561,63.77H82.119a25.265,25.265,0,0,1-6.882,8.415l-1.551-2.176a22.508,22.508,0,0,0,6.8-8.927H91.369L93.9,65.018C91.642,77.209,85.955,83.544,76.27,86.1ZM93.029,57.242A28.071,28.071,0,0,1,96.1,63.066L94.39,64.442a28.033,28.033,0,0,0-2.966-5.952Zm3.646-1.216a29.413,29.413,0,0,1,2.993,5.888l-1.741,1.343a28.43,28.43,0,0,0-2.884-6.015Z"/><path class="c" d="M122.217,67.321c-1.361,12.927-6.666,16.927-17.358,18.239l-.681-2.784c6.993-.64,13.631-2.688,15.209-12.767H100.778V67.321Zm-1.66-4.831H102.709V59.8h17.848Z"/><path class="c" d="M123.925,81.464c.108,0,2.2-.064,2.476-.064A187.732,187.732,0,0,0,132.413,59l2.694.544a170.455,170.455,0,0,1-6.257,21.79c4.352-.128,9.358-.48,13.63-1.056a63.012,63.012,0,0,0-4.653-8.9l2.1-1.247a61.7,61.7,0,0,1,6.965,14.175l-2.449,1.312c-.326-1.088-.516-1.7-.979-2.976a166.113,166.113,0,0,1-19.289,1.824Z"/></g><g transform="translate(151 10.05)"><g class="d" transform="translate(0 0)"><path class="c" d="M5.771,11.609V20.22c.5,2.819,2.231,4.589,7.444,4.589H26.458l-.474,2.31H12.63c-1.338,0-5.6-.181-7.472-3.45a21.705,21.705,0,0,1-3.93,4.2L0,25.379a17.247,17.247,0,0,0,3.485-3.09V14.01H.362v-2.4ZM4.879,6.9A35.816,35.816,0,0,0,.753,1.92L2.481.36A28.815,28.815,0,0,1,6.664,5.309ZM15,.66V5.849H9.34V7.53c0,.48.056.629.558.629h3.178c.668,0,.7-.149.92-1.619l1.952.33C15.7,9.329,15.307,9.989,14,9.989H9.229a1.654,1.654,0,0,1-1.9-1.83V4.139h5.688V2.49H6.831V.66ZM25.427,14.43H21.105V17.1H26.1v2.01H7.026V17.1h4.74V14.43H7.7V12.45h4.071V10.769H13.94V12.45h4.992V10.769h2.174V12.45h4.322ZM7.918,21.839a20.808,20.808,0,0,0,5.047-2.369l1.672,1.319a21.36,21.36,0,0,1-5.352,2.97ZM18.931,14.43H13.941V17.1h4.991Zm5.743-8.581H18.653v1.71c0,.6.307.6.64.6h3.68c.754,0,.781-.27.92-1.68l2.035.361c-.167,1.77-.307,3.149-1.952,3.149H18.791c-.7,0-2.091-.059-2.091-1.8V4.139h5.94V2.49H16.394V.66h8.28Zm-4.6,13.56a19.172,19.172,0,0,0,5.8,2.67L24.7,24.029a18.559,18.559,0,0,1-6.161-3.149Z" transform="translate(0 0)"/><path class="c" d="M40.611,15.21c-.725.33-1.142.539-3.4,1.468v8.791c0,.84-.027,2.369-2.286,2.369H31.689l-.419-2.46,2.817.06c.78.031.863-.09.863-.75V17.579c-2.286.87-3.122,1.14-3.9,1.41L30.63,16.5c1.059-.3,2.2-.6,4.321-1.379V7.649H30.8V5.46h4.153V0h2.258V5.46h3.234V7.649H37.209v6.6c1.617-.629,2.4-.99,3.234-1.35Zm15.25-2.041H50.48a16.979,16.979,0,0,0,6.72,12.48l-1.451,2.16c-4.266-3.721-6.774-7.77-7.5-14.64H43.817c-.028,2.64-.139,9.959-4.043,14.73l-1.784-2.07a12.574,12.574,0,0,0,2.454-4.47,28.527,28.527,0,0,0,1.2-7.89V1.08H55.861Zm-2.2-9.839H43.844v7.56h9.814Z" transform="translate(-2.163 0)"/><path class="c" d="M74.4,4.89V7.409H68.074a64.71,64.71,0,0,1-4.878,15.6l-2.566-1.2c2.983-5.16,4.21-11.04,4.935-14.4H60.853V4.89h5.158c.307-2.071.39-2.73.5-3.93l2.649.12c-.223,1.441-.251,1.62-.613,3.81ZM79.255,16.8a18.929,18.929,0,0,1,5.939,4.59l-1.534,2.369a16.367,16.367,0,0,0-4.516-4.08v1.23c0,4.44-2.817,5.52-5.576,5.52-4.182,0-6.245-2.49-6.245-5.279,0-2.25,1.617-5.581,6.552-5.581a11.171,11.171,0,0,1,2.9.361l-.168-6.42h2.509Zm-2.426,1.619a7.464,7.464,0,0,0-2.955-.569c-2.844,0-4.182,1.53-4.182,3.21,0,3.029,3.428,3.029,3.959,3.029,2.759,0,3.178-1.619,3.178-3.66ZM83.547,9.63a38.9,38.9,0,0,0-7.415-3.9l.975-2.22a41.76,41.76,0,0,1,7.612,3.72Z" transform="translate(-4.282 0)"/><path class="c" d="M93.1,1.351c-.251,8.1-.362,11.669-.362,14.52,0,3.839.167,7.859,5.409,7.859,7.22,0,8.14-5.4,8.921-9.96l2.343.931c-.892,5.429-2.7,11.609-11.18,11.609-7.639,0-8.14-5.49-8.14-10.71,0-2.25.166-12.21.2-14.249Z" transform="translate(-6.362 0)"/></g></g></svg>