<svg xmlns="http://www.w3.org/2000/svg" width="17.658" height="18.39" viewBox="0 0 17.658 18.39"><defs><style>.a{fill:#8fc31f;}</style></defs><path class="a" d="M39.1,7.636A13.8,13.8,0,0,0,44.73.28l1.536.393a16.958,16.958,0,0,1-6.087,8.3ZM47.527,18.67l-.274-1.712,2.706.02a1.3,1.3,0,0,0,1.206-.669c.621-1.18.731-4.524.8-7.336H47.344c-.493,5-2.267,7.749-6.91,9.7l-.859-1.495c3.711-1.437,5.868-3.521,6.161-8.2H42.08V7.419H53.523c0,6.059-.531,8.949-.988,9.972a2.275,2.275,0,0,1-2.412,1.279ZM51.183.3a16.586,16.586,0,0,0,5.575,7.336L55.735,8.974A20.74,20.74,0,0,1,49.647.791Z" transform="translate(-39.1 -0.28)"/></svg>