<svg xmlns="http://www.w3.org/2000/svg" width="41.933" height="66.001" viewBox="0 0 41.933 66.001"><defs><style>.a{fill:#dbdbdb;}</style></defs><path class="a" d="M1989.067,376.884a27.558,27.558,0,0,0,16.209,5.04c10.557,0,14.349-6.24,14.349-11.68,0-5.6-4.312-10.4-14.052-10.4H1999.7v-8.321h5.651c8.03,0,10.93-5.2,10.93-9.44,0-6.08-4.981-8.88-9.815-8.88-5.576,0-10.78,2.88-14.5,7.36l-3.2-8.56a25.8,25.8,0,0,1,17.77-7.44c9.74,0,18.364,6.16,18.364,16.88a14.265,14.265,0,0,1-8.029,13.44c3.048,1.281,11.6,4.8,11.6,16.241,0,8.56-5.948,19.44-23.2,19.44a35.663,35.663,0,0,1-18.737-5.04Z" transform="translate(-1986.539 -324.563)"/></svg>