<svg xmlns="http://www.w3.org/2000/svg" width="20.149" height="32.155" viewBox="0 0 20.149 32.155"><defs><style>.a{fill:#8fc31f;}</style></defs><path class="a" d="M989.569,361.386H977v9.438a10.139,10.139,0,0,1,4.535-.92c6.84,0,10.447,4.919,10.447,10,0,4.88-3.421,10.2-11.375,10.2a15.93,15.93,0,0,1-8.774-2.48l1.078-3.439a12.616,12.616,0,0,0,7.658,2.48c6.357,0,7.88-4.16,7.88-6.839,0-4.12-3.048-6.639-7.062-6.639a7.083,7.083,0,0,0-4.424,1.4h-3.2V357.946h15.8Z" transform="translate(-971.837 -357.946)"/></svg>