<svg xmlns="http://www.w3.org/2000/svg" width="83.887" height="59.414" viewBox="0 0 83.887 59.414"><defs><style>.a{fill:#dbdbdb;}</style></defs><g transform="translate(-1113.632 -561.018)"><path class="a" d="M1120.172,561.1h3.791v6.919h7.767c0,5.678-.074,21.956-1.04,27.035-.595,3.159-2.528,3.519-4.535,3.519h-3.9l-.632-4.239h4.051c1.041,0,1.264-.24,1.561-2.68.483-4.119.595-12.118.595-19.476h-3.865c0,17.516-4.571,23.435-7.545,26.395l-2.787-3.519c2.3-2.56,6.54-7.2,6.54-22.237v-.639h-5.723v-4.159h5.723Zm27.577,2.2v34.474h-13.38V563.3Zm-3.791,3.92h-5.835v26.515h5.835Z"/><path class="a" d="M1178.937,586.653v.48c-3.494.56-11.447,1.44-16.354,1.6l-.3-3.678c1.746,0,5.462-.16,7.358-.241v-3.319h-5.5v-2.559c-.149.08-.409.2-.595.28l-1.6-2.84c3.047-1.32,3.976-2.76,4.46-4.8h-4.125v-3.04h7.358v-2.159h-5.5v-3h5.5v-2.359h3.494v2.359h5.8v3h-5.8v2.159h6.838v3.04h-4.534v1.759c0,.561.111.84.632.84h1.152c.446,0,.483-.2.818-2.039l2.49.559c-.743,3.96-1,4.44-2.49,4.44h-3.234a2.7,2.7,0,0,1-1.672-.56v1.76h5.8v3.159h-5.8v3.079c2.6-.16,4.348-.359,5.8-.519v1.479a20.636,20.636,0,0,0,4.274-7.358,30.665,30.665,0,0,0-2.825-2.32l1.784-3.12c.855.56,1.3.84,1.859,1.241.074-.88.223-2.161.3-4.28h-3.307v-3.8h3.457c0-1.719.037-3.079.037-4.878h3.419c-.037,1.16-.112,3.919-.149,4.878h5.686c-.037,1.56-.3,9.279-.3,11.039a35.629,35.629,0,0,0,.335,5.919c.074.2.223.52.483.52.409,0,.52-.72.595-1.2.074-.4.3-3.239.335-3.839l2.6,1.439c-.409,4.919-1.3,8.8-3.976,8.8-3.16,0-3.456-5.639-3.569-7.8-.11-1.559-.11-9.318-.148-11.078h-2.23c-.111,1.44-.3,4.559-.632,6.759a18.893,18.893,0,0,1,2.6,2.839l-2.23,3.56c-.595-.8-.966-1.28-1.487-1.879a28.936,28.936,0,0,1-4.646,8.4Zm-9.292,3.079a21.47,21.47,0,0,1-4.571,9.039l-3.084-2.839a17.434,17.434,0,0,0,4.311-7.16Zm0-11.4v-2.84h2.862a1.755,1.755,0,0,1-.075-.64v-3.279h-2.49a11.581,11.581,0,0,1-4.683,6.759Zm3.494,19.716a65.414,65.414,0,0,0,.185-8.479h3.42a56.517,56.517,0,0,1,.335,8.479Zm9.328,0a59.928,59.928,0,0,0-1.636-8.479l3.493-.2a47.079,47.079,0,0,1,2.007,8.678Zm11.261.56a48.978,48.978,0,0,0-5.835-8.478l2.824-2.16a41.857,41.857,0,0,1,6.43,7.839Z"/><path class="a" d="M1128.72,604.308a21.976,21.976,0,0,1-3.439,8.261,69.317,69.317,0,0,1,6.171,5.822l-1.748,1.82a69.66,69.66,0,0,0-5.687-5.961,22.736,22.736,0,0,1-7.4,5.961l-1.208-1.86a19.847,19.847,0,0,0,10.557-11.922H1116.4v-2.121Z"/><path class="a" d="M1137.772,610.249a12.511,12.511,0,0,0,4.889-5.981h9.926c-.3,3.18-1.226,13.043-12.528,16.164l-1.041-2.041a14.923,14.923,0,0,0,7.844-4.541,25.41,25.41,0,0,0-5.464-3.8,13.338,13.338,0,0,1-2.268,1.9Zm6.283-3.921a17.158,17.158,0,0,1-1.432,2.24,26.411,26.411,0,0,1,5.5,3.621,14.7,14.7,0,0,0,2.007-5.861Z"/><path class="a" d="M1175.44,610.669v2.341h-15.948v-2.341Z"/><path class="a" d="M1196.146,614.771a37.486,37.486,0,0,0-7.844-4.222v9.8h-2.249V603.268h2.249v4.941a46.438,46.438,0,0,1,8.922,4.24Z"/></g></svg>