<svg xmlns="http://www.w3.org/2000/svg" width="103.411" height="59.134" viewBox="0 0 103.411 59.134"><defs><style>.a{fill:#dbdbdb;}</style></defs><g transform="translate(-1264.551 -561.298)"><path class="a" d="M1283.468,575.575h11.817v4.119h-11.854c-.744,11.958-8.177,15.278-15.646,17.077l-1.821-4c10.74-2.28,12.9-6.2,13.305-13.078h-14.718v-4.119h14.792v-5.639a89.193,89.193,0,0,1-12.562.879l-.781-4.039c8.622-.04,17.319-1.12,24.454-3.8l2.118,4.039a77.55,77.55,0,0,1-9.1,2.279Z"/><path class="a" d="M1308.7,573.855c0,13.918-3.643,19.557-6.987,23.037l-3.122-3.36c3.643-4.079,5.984-8.279,5.984-19.277v-9.918h4.126Zm9.811,16.757c4.051-1.639,8.511-3.439,10.183-14.677l3.976,1.8c-1.746,8.12-4.98,17.358-18.321,18.438V563.257h4.162Z"/><path class="a" d="M1364.541,585.813a74.049,74.049,0,0,0-15.65-8.438v19.557h-4.461V562.777h4.461v9.958a92.878,92.878,0,0,1,17.844,8.4Zm-5.985-21.8a35.148,35.148,0,0,1,4.016,7.6l-2.863,1.76a33.463,33.463,0,0,0-3.829-7.719Zm5.353-2.719a35.655,35.655,0,0,1,4.053,7.558l-2.863,1.76a35.838,35.838,0,0,0-3.866-7.719Z"/><path class="a" d="M1288.72,604.308a21.976,21.976,0,0,1-3.439,8.261,69.3,69.3,0,0,1,6.171,5.822l-1.748,1.82a69.639,69.639,0,0,0-5.687-5.961,22.736,22.736,0,0,1-7.4,5.961l-1.208-1.86a19.847,19.847,0,0,0,10.557-11.922H1276.4v-2.121Z"/><path class="a" d="M1297.772,610.249a12.511,12.511,0,0,0,4.888-5.981h9.926c-.3,3.18-1.226,13.043-12.528,16.164l-1.041-2.041a14.923,14.923,0,0,0,7.844-4.541,25.411,25.411,0,0,0-5.465-3.8,13.333,13.333,0,0,1-2.268,1.9Zm6.283-3.921a17.171,17.171,0,0,1-1.432,2.24,26.414,26.414,0,0,1,5.5,3.621,14.706,14.706,0,0,0,2.007-5.861Z"/><path class="a" d="M1335.44,610.669v2.341h-15.948v-2.341Z"/><path class="a" d="M1356.146,614.771a37.486,37.486,0,0,0-7.844-4.222v9.8h-2.249V603.268h2.249v4.941a46.438,46.438,0,0,1,8.922,4.24Z"/></g></svg>