<svg xmlns="http://www.w3.org/2000/svg" width="800" height="92" viewBox="0 0 800 92"><defs><style>.a{fill:#dbdbdb;}</style></defs><rect width="800" height="92"/><rect class="a" width="786" height="92" rx="8" transform="translate(7)"/><path d="M-27.8,4.45a38.11,38.11,0,0,0,5.3-15.35h8.55v8.8c0,1.25-.325,1.25-1.3,1.25h-4.786l.743,5.3h5.994c3.671,0,3.857-2.3,3.857-5.3V-41.2H-26.41v22.3A37.11,37.11,0,0,1-28.594-5.1v-4h-9.387v-3.65H-29.8v-18.6h-8.178V-34.4h9.387v-4.65h-9.387V-42.5h-4.461v3.45h-9.247v4.65h9.247v3.05h-8.039v18.6h8.039V-9.1H-52.2v4.6h9.758V4.45h4.461V-4.5h9.2a24.521,24.521,0,0,1-3.113,5.75Zm-6.227-31.8V-24H-46.3v-3.35Zm0,7.1v3.45H-46.3v-3.45Zm20.074-16.1v8.1H-21.9v-8.1Zm0,12.7v8.15h-8.086c.046-1,.139-2,.139-3.35v-4.8ZM38.832-27.2c1.3.6,2.184.95,4.415,1.8l2.509-4.9c-8.457-2.3-14.08-5.6-19.563-12.2H20.244A40.512,40.512,0,0,1,.077-30.5l2.556,5.1a39.6,39.6,0,0,0,4.229-1.7V-1.05c-2.184.15-3.113.2-4.972.25l.7,5.15c14.452-1.5,18.541-2.25,22.4-2.95l-.325-4.7c-4.275.75-8.643,1.3-13.011,1.75v-9.5h7.3c7.2,10.3,15.335,14,23.7,15.85l2.045-5A39.011,39.011,0,0,1,34.371-3.3,59.783,59.783,0,0,0,43.8-10.75l-3.625-3.2a12.712,12.712,0,0,1-1.348,1.5Zm-4.693,4.8H11.648v-3.1H34.138Zm0,7.05H11.648v-3.4H34.138ZM25.263-29.8v-4.75h-4.74v4.75H11.694a54.888,54.888,0,0,0,11.385-8.9c4.74,4.7,7.853,7.1,10.874,8.9ZM37.345-11.05A56.638,56.638,0,0,1,30.1-5.6,21.8,21.8,0,0,1,24.1-11.05Z" transform="translate(353.2 64.5)"/><g transform="translate(244 30)"><g transform="translate(0)"><path d="M-1695.479,1187.594a3.9,3.9,0,0,1-1.081-.6c-.967-.937-1.875-1.942-2.79-2.939a2.18,2.18,0,0,1-.024-3.085,1.889,1.889,0,0,1,2.884.044c.909.951,1.839,1.877,2.725,2.854a2.251,2.251,0,0,1,.4,2.488A2.045,2.045,0,0,1-1695.479,1187.594Z" transform="translate(1706.569 -1173.005)"/><path d="M-1679.106,1187.488a2.244,2.244,0,0,1-1.9-1.363,2.176,2.176,0,0,1,.382-2.39q1.382-1.526,2.808-3a1.978,1.978,0,0,1,2.876.056,2.19,2.19,0,0,1-.074,3.047c-.908.978-1.8,1.975-2.757,2.9A5.933,5.933,0,0,1-1679.106,1187.488Z" transform="translate(1717.576 -1173.11)"/><path d="M-1700.177,1191.294c.644,0,1.287-.01,1.931,0a2.12,2.12,0,0,1,2.072,2.132,2.1,2.1,0,0,1-2.086,2.171q-1.931.019-3.863,0a2.04,2.04,0,0,1-2.021-2.156,2.056,2.056,0,0,1,2.036-2.145C-1701.465,1191.286-1700.821,1191.294-1700.177,1191.294Z" transform="translate(1704.144 -1166.583)"/><path d="M-1673.593,1195.344c-.679,0-1.357.027-2.034-.006a2.084,2.084,0,0,1-1.942-2.2,2.05,2.05,0,0,1,2.024-2.1q1.984-.021,3.967,0a2.077,2.077,0,0,1,1.972,2.107,2.1,2.1,0,0,1-1.9,2.188c-.693.035-1.39.006-2.087.006Z" transform="translate(1719.703 -1166.738)"/><path d="M-1685.747,1179.947c0,.71.011,1.422,0,2.132a2.013,2.013,0,0,1-1.907,2.095,2.008,2.008,0,0,1-2.066-1.99c-.046-1.476-.052-2.957,0-4.433a2.024,2.024,0,0,1,2.126-2.042,2.057,2.057,0,0,1,1.853,2.159c.011.693,0,1.386,0,2.079Z" transform="translate(1712.565 -1175.707)"/><path d="M-1683.38,1183.315c-7.5.011-13.627,6.594-13.608,14.613a15.439,15.439,0,0,0,1.063,5.617h25.285a15.3,15.3,0,0,0,1.042-5.6C-1669.61,1189.771-1675.7,1183.3-1683.38,1183.315Z" transform="translate(1708.334 -1171.253)"/></g></g></svg>