<svg xmlns="http://www.w3.org/2000/svg" width="160" height="50" viewBox="0 0 160 50"><defs><style>.a{fill:#5f5e5e;}</style></defs><path d="M0,0H160V50H0Z"/><path class="a" d="M312,50V8a8.024,8.024,0,0,0-8-8H168a8.024,8.024,0,0,0-8,8V50" transform="translate(-156)"/><path d="M-25.77-14.752V-3.68h15.643v-6.3A25.506,25.506,0,0,0-5.993-4.928L-3.971-7.52a20.091,20.091,0,0,1-6.6-9.7H-6.38V-25.76h-23.2v9.568A17.724,17.724,0,0,1-32.432-5.728l2.23,2.592c2.944-4.128,3.6-9.216,3.6-13.024v-1.056h13.294c.268.928.446,1.536.8,2.464Zm12.937,2.432v1.92H-22.975v-1.92Zm0,4.128v1.984H-22.975V-8.192Zm3.45-14.784v2.88H-26.6v-2.88ZM-31.153-1.44V1.568H-5.428V-1.44ZM23.806-17.408c.833.384,1.4.608,2.825,1.152l1.606-3.136c-5.413-1.472-9.011-3.584-12.52-7.808H11.91A25.928,25.928,0,0,1-1-19.52L.639-16.256a25.342,25.342,0,0,0,2.706-1.088V-.672c-1.4.1-1.993.128-3.182.16l.446,3.3C9.858,1.824,12.475,1.344,14.943.9l-.208-3.008C12-1.632,9.2-1.28,6.408-.992v-6.08h4.669A23.329,23.329,0,0,0,26.245,3.072l1.309-3.2a24.967,24.967,0,0,1-6.6-1.984A38.261,38.261,0,0,0,26.988-6.88l-2.32-2.048a8.136,8.136,0,0,1-.862.96Zm-3,3.072H6.408V-16.32H20.8Zm0,4.512H6.408V-12H20.8Zm-5.68-9.248v-3.04H12.088v3.04H6.438a35.128,35.128,0,0,0,7.286-5.7,35.569,35.569,0,0,0,6.959,5.7Zm7.732,12a36.248,36.248,0,0,1-4.639,3.488,13.955,13.955,0,0,1-3.836-3.488Z" transform="translate(101.412 38)"/><g transform="translate(1579.221 -1159.825)"><path d="M-1533.79,1185.782a8.89,8.89,0,0,1-8.637,9.173,8.916,8.916,0,0,1-8.638-9.185c-.012-5.057,3.855-9.21,8.583-9.217C-1537.639,1176.546-1533.8,1180.625-1533.79,1185.782Z"/><path d="M-1543.574,1199.926c0-.448-.006-.9,0-1.344a1.336,1.336,0,0,1,1.2-1.347,1.253,1.253,0,0,1,1.332,1.213c.042.987.037,1.98,0,2.967a1.223,1.223,0,0,1-1.3,1.162,1.3,1.3,0,0,1-1.222-1.272C-1543.583,1200.845-1543.573,1200.385-1543.574,1199.926Z"/><path d="M-1551.226,1178.147a2.454,2.454,0,0,1-.682-.379c-.61-.59-1.183-1.225-1.76-1.854a1.373,1.373,0,0,1-.015-1.945,1.191,1.191,0,0,1,1.819.027c.573.6,1.16,1.185,1.719,1.8a1.422,1.422,0,0,1,.252,1.57A1.289,1.289,0,0,1-1551.226,1178.147Z"/><path d="M-1533.957,1178.014a1.418,1.418,0,0,1-1.2-.861,1.373,1.373,0,0,1,.241-1.507q.872-.961,1.771-1.893a1.249,1.249,0,0,1,1.814.035,1.383,1.383,0,0,1-.047,1.923c-.573.616-1.136,1.246-1.739,1.827A3.748,3.748,0,0,1-1533.957,1178.014Z"/><path d="M-1555.719,1184.531c.406,0,.812-.005,1.218,0a1.337,1.337,0,0,1,1.307,1.346,1.327,1.327,0,0,1-1.316,1.369q-1.218.012-2.436,0a1.286,1.286,0,0,1-1.275-1.36,1.3,1.3,0,0,1,1.284-1.352C-1556.531,1184.527-1556.125,1184.532-1555.719,1184.531Z"/><path d="M-1532.1,1198.042a4.022,4.022,0,0,1-.84-.487c-.6-.57-1.158-1.185-1.726-1.79a1.381,1.381,0,0,1-.065-1.948,1.2,1.2,0,0,1,1.846,0c.574.6,1.155,1.19,1.716,1.8a1.39,1.39,0,0,1,.271,1.5A1.524,1.524,0,0,1-1532.1,1198.042Z"/><path d="M-1529.138,1186.988c-.428,0-.856.018-1.283,0a1.315,1.315,0,0,1-1.225-1.387,1.292,1.292,0,0,1,1.277-1.326q1.251-.014,2.5,0a1.309,1.309,0,0,1,1.244,1.329,1.324,1.324,0,0,1-1.2,1.38c-.437.022-.877,0-1.316,0Z"/><path d="M-1549.58,1195.133a3.334,3.334,0,0,1-.4.753c-.538.638-1.116,1.236-1.685,1.842a1.184,1.184,0,0,1-1.845.005,1.381,1.381,0,0,1,.045-1.925c.561-.615,1.116-1.238,1.695-1.833a1.176,1.176,0,0,1,1.435-.263A1.431,1.431,0,0,1-1549.58,1195.133Z"/><path d="M-1541.306,1171.619c0,.449.007.9,0,1.346a1.271,1.271,0,0,1-1.2,1.321,1.267,1.267,0,0,1-1.3-1.255c-.029-.932-.033-1.866,0-2.8a1.276,1.276,0,0,1,1.341-1.288,1.3,1.3,0,0,1,1.169,1.363c.007.437,0,.873,0,1.31Z"/></g></svg>