<svg xmlns="http://www.w3.org/2000/svg" width="800" height="72" viewBox="0 0 800 72"><defs><style>.a{fill:#dbdbdb;}.b{fill:#474645;}</style></defs><rect width="800" height="72"/><path class="a" d="M13.64-26.976v2.688H1.775v8.1H4.243v-5.6H25.536v5.6h2.528v-8.1H16.138v-2.688ZM1.18-12.7v2.56H9.6C9.358-4.448,7.128-.96.7.224L1.953,2.88c6.513-1.632,9.725-5.472,10.111-13.024h5.264V-.032a2.176,2.176,0,0,0,2.5,2.336h6.126c2.141,0,2.706-.864,2.8-6.752L26.369-5.28c-.089,3.68-.089,4.1-.3,4.672-.119.288-.357.448-.892.448h-4.4c-.684,0-.952-.032-.952-.8v-9.184h8.832V-12.7ZM5.7-18.56v2.432H24.079V-18.56Zm27.538-7.264V-23.2H55.9a26.19,26.19,0,0,1-8.089,5.376H45.52V-1.088c0,.992-.743.992-1.071.992L39.513-.128l.535,2.784h5.2c1.844,0,2.825-.352,2.825-2.752V-15.072a34.329,34.329,0,0,0,11.628-8.192v-2.56Zm32.3.1V.416H74.4V-25.728Zm6.6,11.584H67.825v-9.12h4.312Zm0,12.1H67.825v-9.728h4.312ZM89.237-8.8h2.914v-2.432H89.237V-14.88h3.123v-2.464H85.1V-21.6h6.334v-2.432H85.1V-27.04H82.724v3.008H76.538V-21.6h6.186v4.256h-7.2v2.464h11.3v3.648H75.765V-8.8H86.828V-.608c0,.608-.238.64-.743.64L81.861,0l.476,2.624h4.431A2.308,2.308,0,0,0,89.237-.064ZM82.516-2.72a21.39,21.39,0,0,0-4.1-5.216L76.568-6.464a25.369,25.369,0,0,1,3.926,5.376Zm26.17-16.832a21.045,21.045,0,0,1-4.461,6.976c-.625-.8-1.4-1.6-2.022-2.272A30.125,30.125,0,0,0,105.98-20.9h7.673v-2.4h-7.137v-3.712h-2.439V-23.3H96.612v2.4h6.6a19.723,19.723,0,0,1-2.706,4.416c-.833-.736-1.219-1.024-1.844-1.5L97.266-16a31.937,31.937,0,0,1,5.234,5.12,26.969,26.969,0,0,1-6.126,4.032L97.653-4.64a26.6,26.6,0,0,0,13.085-13.728Zm6.215-5.6V-4.576h2.468V-25.152ZM97.593,2.56a30.533,30.533,0,0,0,9.07-6.144,20.028,20.028,0,0,0,5.769,5.44L113.89-.416A16.551,16.551,0,0,1,108.27-5.28a25.211,25.211,0,0,0,4.788-7.552l-2.022-1.248A26.53,26.53,0,0,1,96.225.256Zm22.929-29.568V-.576c0,.48-.059.64-.535.64L116.031.032l.387,2.624H120.4c2.409,0,2.587-1.248,2.587-2.688V-27.008Z" transform="translate(251.996 51)"/><path class="b" d="M0,0H800V2H0Z"/></svg>