<svg xmlns="http://www.w3.org/2000/svg" width="51" height="68" viewBox="0 0 51 68"><defs><style>.a{fill:#dbdbdb;}</style></defs><rect width="51" height="68"/><path class="a" d="M6.648,21.074H0V1.464H6.648ZM4.952,3.312H1.718v6.841H4.952Zm0,8.617H1.718v7.3H4.952ZM17.78,20.714a1.731,1.731,0,0,1-1.852,2.016H12.6l-.357-1.968,3.168.024c.378,0,.558-.024.558-.48V14.161h-8.3V12.337h8.3V9.6H7.5V7.753h5.4V4.561H8.254V2.737h4.64V.48h1.784V2.737H19.43V4.561H14.678V7.753h5.444V9.6H17.78v2.736h2.186v1.824H17.78Zm-6.559-.768a19.06,19.06,0,0,0-2.944-4.033l1.383-1.1a16.066,16.066,0,0,1,3.078,3.913Z" transform="translate(3.278 43.664)"/><path class="a" d="M32.611,1.393V9.745H26.12V22.778H24.336V1.393Zm-1.74,1.584H26.12V4.8h4.751Zm0,3.216H26.12V8.137h4.751Zm7.984,13.969H28.685V11.4h10.17ZM37.16,12.985h-6.8V15h6.8Zm0,3.385h-6.8v2.208h6.8Zm6.088,4.416c0,.48,0,1.992-1.561,1.992H38.432l-.335-1.92,2.744.024c.4,0,.646-.072.646-.672V9.745H34.8V1.393h8.452ZM41.487,2.977H36.535V4.8h4.952Zm0,3.216H36.535V8.137h4.952Z" transform="translate(1.274 43.664)"/></svg>