<svg xmlns="http://www.w3.org/2000/svg" width="800" height="180" viewBox="0 0 800 180"><defs><style>.a{fill:#474645;}.b{fill:#dbdbdb;}</style></defs><rect width="800" height="180"/><rect class="a" width="2" height="154" transform="translate(399 13)"/><g transform="translate(511 24)"><path class="b" d="M10.227,23.071A58.854,58.854,0,0,1,.451,26.3L0,23.711a27.475,27.475,0,0,0,3.7-.96V14.24H.511V11.776H3.7V4.256H.361V1.825H9.715V4.256H6.106v7.52H9.174V14.24H6.106v7.775a28.825,28.825,0,0,0,3.7-1.376ZM27.281,1.185V19.232H22.2v6.846c0,.705.061,1.025.933,1.025h1.745c.481,0,.812-.16.932-.609a28.968,28.968,0,0,0,.331-4.031l2.346.512c-.271,5.76-.9,6.655-2.707,6.655h-3.73c-1.173,0-2.286-.256-2.286-2.559V19.232H17.175c-1.083,5.951-3.76,8.735-9.655,10.783L6.346,27.487c6.437-1.92,7.941-5.024,8.392-8.255H11.069V1.185ZM24.844,3.456H13.474V6.528h11.37Zm0,5.216H13.474v3.04h11.37Zm0,5.184H13.474v3.1h11.37Z" transform="translate(46 1)"/><path class="b" d="M32.577,6.719V4.192h9.2A36.353,36.353,0,0,0,42.864,0l2.707.064c-.271,1.088-.482,2.016-1.143,4.128H60.369V6.719H43.495a34.292,34.292,0,0,1-4.121,7.457v15.71h-2.5V17.151a26.116,26.116,0,0,1-3.4,2.976L32.126,17.6a23.328,23.328,0,0,0,8.692-10.88Zm26.709,9.728H51.857v9.791h8.512v2.528H40.788V26.238H49.33V16.447H42.021v-2.5H49.33V8.032h2.527v5.919h7.429Z" transform="translate(46 1)"/></g></svg>